{
.formatVersion = 3;
axes = (
{
name = Weight;
tag = wght;
}
);
classes = (
{
code = "zero.lnum five.lnum seven.lnum eight.lnum a g i ordfeminine periodcentered agrave aacute acircumflex atilde adieresis aring ae amacron abreve aogonek gcircumflex gbreve gdotaccent gcommaaccent Scedilla scedilla Tcedilla tcedilla gcaron aringacute aeacute adblgrave ainvertedbreve gravecomb acutecomb circumflexcomb tildecomb macroncomb brevecomb dotaccentcomb dieresiscomb hookabovecomb ringcomb hungarumlautcomb dblgravecomb breveinvertedcomb commaturnedabovecomb strokeshortcomb tonos Decyr Kacyr Elcyr acyr becyr vecyr zhecyr zecyr icyr ishortcyr kacyr elcyr tsecyr shacyr shchacyr hardcyr softcyr yucyr gjecyr igravecyr abrevecyr adieresiscyr aiecyr adotbelow ahoi acircumflexacute acircumflexgrave acircumflexhoi acircumflextilde acircumflexdotbelow abreveacute abrevegrave abrevehoi abrevetilde abrevedotbelow zero two.lnum.ss05 five six seven eight nine periodcentered.loclCAT caroncomb.case horncomb.case pecyr.loclSRB tecyr.loclSRB gjecyr.loclMKD";
name = aalt;
},
{

glyphs = (
{
glyphname = .notdef;
layers = (
{
layerId = "CE4E9A76-E92C-4E6B-9275-59AAE218FE2B";
shapes = (
{
closed = 1;
nodes = (
(133,0,l),
(1263,0,l),
(1263,1440,l),
(133,1440,l)
);
},
{
closed = 1;
nodes = (
(461,270,l),
(461,1170,l),
(934,1170,l),
(934,270,l)
);
}
);
width = 1357;
},
{
layerId = "549D2AD3-0DA6-49CF-9D11-873E4390D3BF";
shapes = (
{
closed = 1;
nodes = (
(161,0,l),
(1145,0,l),
(1145,1440,l),
(161,1440,l)
);
},
{
closed = 1;
nodes = (
(342,158,l),
(342,1283,l),
(963,1283,l),
(963,158,l)
);
}
);
width = 1270;
},
{
layerId = "CD835F4B-8B2D-46BA-8F00-12B1EDA2331F";
shapes = (
{
closed = 1;
nodes = (
(181,0,l),
(1066,0,l),
(1066,1440,l),
(181,1440,l)
);
},
{
closed = 1;
nodes = (
(265,85,l),
(265,1357,l),
(984,1357,l),
(984,85,l)
);
}
);
width = 1213;
}
);
},
{
glyphname = exclam;
layers = (
{
layerId = "CE4E9A76-E92C-4E6B-9275-59AAE218FE2B";
shapes = (
{
closed = 1;
nodes = (
(189,545,l),
(546,545,l),
(608,1470,l),
(125,1470,l)
);
},
{
closed = 1;
nodes = (
(502,-31,o),
(602,57,o),
(602,193,cs),
(602,332,o),
(502,419,o),
(366,419,cs),
(232,419,o),
(131,327,o),
(131,193,cs),
(131,60,o),
(237,-31,o),
(366,-31,cs)
);
}
);
width = 717;
},
{
layerId = "549D2AD3-0DA6-49CF-9D11-873E4390D3BF";
shapes = (
{
closed = 1;
nodes = (
(234,479,l),
(419,479,l),
(450,1470,l),
(199,1470,l)
);
},
{
closed = 1;
nodes = (
(410,-31,o),
(475,27,o),
(475,111,cs),
(475,201,o),
(411,254,o),
(325,254,cs),
(241,254,o),
(175,195,o),
(175,111,cs),
(175,28,o),
(245,-31,o),
(326,-31,cs)
);
}
);
width = 636;
},
{
layerId = "CD835F4B-8B2D-46BA-8F00-12B1EDA2331F";
shapes = (
{
closed = 1;
nodes = (
(262,434,l),
(334,434,l),
(346,1470,l),
(248,1470,l)
);
},
{
closed = 1;
nodes = (
(349,-31,o),
(391,7,o),
(391,57,cs),
(391,113,o),
(350,145,o),
(297,145,cs),
(247,145,o),
(203,108,o),
(203,57,cs),
(203,6,o),
(248,-31,o),
(298,-31,cs)
);
}
);
width = 582;
}
);
leftKerningGroup = _b2;
rightKerningGroup = _d;
unicode = 33;
},
{
glyphname = quotedbl;
layers = (
{
layerId = "CE4E9A76-E92C-4E6B-9275-59AAE218FE2B";
shapes = (
{
closed = 1;
nodes = (
(124,729,l),
(406,729,l),
(447,1440,l),
(84,1440,l)
);
},
{
closed = 1;
nodes = (
(590,729,l),
(872,729,l),
(913,1440,l),
(550,1440,l)
);
}
);
width = 970;
},
{
layerId = "549D2AD3-0DA6-49CF-9D11-873E4390D3BF";
shapes = (
{
closed = 1;
nodes = (
(155,924,l),
(305,924,l),
(325,1430,l),
(136,1430,l)
);
},
{
closed = 1;
nodes = (
(510,924,l),
(660,924,l),
(680,1430,l),
(491,1430,l)
);
}
);
width = 797;
},
{
layerId = "CD835F4B-8B2D-46BA-8F00-12B1EDA2331F";
shapes = (
{
closed = 1;
nodes = (
(177,1057,l),
(240,1057,l),
(245,1430,l),
(172,1430,l)
);
},
{
closed = 1;
nodes = (
(459,1057,l),
(522,1057,l),
(527,1430,l),
(454,1430,l)
);
}
);
width = 682;
}
);
leftKerningGroup = _tonos2;
rightKerningGroup = _tonos;
unicode = 34;
},
{
glyphname = numbersign;
layers = (
{
layerId = "CE4E9A76-E92C-4E6B-9275-59AAE218FE2B";
shapes = (
{
closed = 1;
nodes = (
(137,33,l),
(405,33,l),
(477,338,l),
(666,336,l),
(593,33,l),
(861,33,l),
(936,336,l),
(1098,336,l),
(1157,590,l),
(997,590,l),
(1045,804,l),
(1206,804,l),
(1263,1056,l),
(1105,1056,l),
(1179,1367,l),
(911,1367,l),
(837,1056,l),
(647,1056,l),
(721,1367,l),
(453,1367,l),
(379,1056,l),
(216,1056,l),
(157,804,l),
(320,804,l),
(269,590,l),
(108,590,l),
(49,338,l),
(210,338,l)
);
},
{
closed = 1;
nodes = (
(537,590,l),
(585,804,l),
(778,804,l),
(729,590,l)
);
}
);
width = 1312;
},
{
layerId = "549D2AD3-0DA6-49CF-9D11-873E4390D3BF";
shapes = (
{
closed = 1;
nodes = (
(171,50,l),
(323,50,l),
(406,393,l),
(714,393,l),
(631,49,l),
(783,49,l),
(867,393,l),
(1038,393,l),
(1073,540,l),
(902,540,l),
(974,858,l),
(1146,858,l),
(1179,1005,l),
(1009,1005,l),
(1091,1351,l),
(939,1351,l),
(857,1005,l),
(548,1005,l),
(630,1350,l),
(480,1350,l),
(396,1005,l),
(224,1005,l),
(190,859,l),
(363,859,l),
(288,539,l),
(115,539,l),
(82,393,l),
(254,393,l)
);
},
{
closed = 1;
nodes = (
(439,539,l),
(511,859,l),
(822,858,l),
(750,540,l)
);
}
);
width = 1261;
},
{
layerId = "CD835F4B-8B2D-46BA-8F00-12B1EDA2331F";
shapes = (
{
closed = 1;
nodes = (
(193,62,l),
(268,62,l),
(358,431,l),
(747,431,l),
(656,59,l),
(730,59,l),
(820,431,l),
(998,431,l),
(1017,506,l),
(839,506,l),
(926,894,l),
(1106,894,l),
(1123,970,l),
(945,970,l),
(1032,1341,l),
(958,1341,l),
(870,970,l),
(482,970,l),
(570,1338,l),
(498,1338,l),
(408,970,l),
(230,970,l),
(211,897,l),
(391,897,l),
(300,504,l),
(119,504,l),
(103,431,l),
(283,431,l)
);
},
{
closed = 1;
nodes = (
(375,504,l),
(461,897,l),
(851,894,l),
(765,506,l)
);
}
);
width = 1226;
}
);
unicode = 35;
},
{
glyphname = dollar;
layers = (
{
layerId = "CE4E9A76-E92C-4E6B-9275-59AAE218FE2B";
shapes = (
{
closed = 1;
nodes = (
(903,-30,o),
(1118,128,o),
(1118,417,cs),
(1118,662,o),
(959,795,o),
(757,822,cs),
(630,839,ls),
(528,852,o),
(423,892,o),
(423,1013,cs),
(423,1134,o),
(537,1160,o),
(626,1160,cs),
(741,1160,o),
(857,1115,o),
(934,1021,c),
(1080,1260,l),
(965,1384,o),
(778,1428,o),
(622,1428,cs),
(372,1428,o),
(146,1268,o),
(146,997,cs),
(146,758,o),
(313,614,o),
(511,581,cs),
(632,560,ls),
(732,543,o),
(839,498,o),
(839,381,cs),
(839,260,o),
(709,238,o),
(622,238,cs),
(485,238,o),
(355,297,o),
(262,395,c),
(121,151,l),
(251,26,o),
(451,-30,o),
(622,-30,cs)
);
},
{
closed = 1;
nodes = (
(508,-160,l),
(759,-160,l),
(759,1560,l),
(508,1560,l)
);
}
);
width = 1200;
},
{
layerId = "549D2AD3-0DA6-49CF-9D11-873E4390D3BF";
shapes = (
{
closed = 1;
nodes = (
(873,-30,o),
(1066,109,o),
(1066,377,cs),
(1066,601,o),
(925,706,o),
(743,755,c),
(593,799,ls),
(466,836,o),
(342,886,o),
(342,1039,cs),
(342,1213,o),
(475,1274,o),
(613,1274,cs),
(732,1274,o),
(844,1234,o),
(932,1147,c),
(1020,1287,l),
(914,1389,o),
(764,1429,o),
(625,1429,cs),
(386,1429,o),
(179,1289,o),
(179,1028,cs),
(179,812,o),
(338,704,o),
(511,655,c),
(649,613,ls),
(781,572,o),
(902,518,o),
(902,361,cs),
(902,189,o),
(762,127,o),
(611,127,cs),
(475,127,o),
(354,175,o),
(250,267,c),
(164,121,l),
(284,15,o),
(458,-30,o),
(611,-30,cs)
);
},
{
closed = 1;
nodes = (
(547,-160,l),
(697,-160,l),
(697,1560,l),
(547,1560,l)
);
}
);
width = 1200;
},
{
layerId = "CD835F4B-8B2D-46BA-8F00-12B1EDA2331F";
shapes = (
{
closed = 1;
nodes = (
(854,-30,o),
(1031,96,o),
(1031,352,cs),
(1031,560,o),
(902,646,o),
(733,711,c),
(569,772,l),
(424,826,o),
(287,882,o),
(287,1055,cs),
(287,1266,o),
(433,1349,o),
(605,1349,cs),
(726,1349,o),
(835,1313,o),
(930,1230,c),
(980,1305,l),
(879,1392,o),
(754,1430,o),
(627,1430,cs),
(395,1430,o),
(200,1304,o),
(200,1049,cs),
(200,847,o),
(354,764,o),
(511,703,c),
(661,648,ls),
(814,591,o),
(944,530,o),
(944,348,cs),
(944,141,o),
(797,54,o),
(604,54,cs),
(468,54,o),
(353,94,o),
(242,181,c),
(192,102,l),
(305,8,o),
(462,-30,o),
(604,-30,cs)
);
},
{
closed = 1;
nodes = (
(572,-160,l),
(655,-160,l),
(655,1560,l),
(572,1560,l)
);
}
);
width = 1200;
}
);
unicode = 36;
},
{
glyphname = percent;
layers = (
{
guides = (
{
position = "{0, 1061.632}";
}
);
layerId = "CE4E9A76-E92C-4E6B-9275-59AAE218FE2B";
shapes = (
{
closed = 1;
nodes = (
(494,760,o),
(582,931,o),
(582,1110,cs),
(582,1290,o),
(495,1459,o),
(307,1459,cs),
(119,1459,o),
(32,1290,o),
(32,1110,cs),
(32,931,o),
(120,760,o),
(307,760,cs)
);
},
{
closed = 1;
nodes = (
(251,963,o),
(240,1057,o),
(240,1110,cs),
(240,1209,o),
(274,1259,o),
(307,1259,cs),
(339,1259,o),
(374,1210,o),
(374,1110,cs),
(374,1056,o),
(362,963,o),
(307,963,cs)
);
},
{
closed = 1;
nodes = (
(1105,-27,o),
(1193,144,o),
(1193,324,cs),
(1193,503,o),
(1106,673,o),
(917,673,cs),
(731,673,o),
(642,503,o),
(642,324,cs),
(642,144,o),
(732,-27,o),
(917,-27,cs)
);
},
{
closed = 1;
nodes = (
(863,177,o),
(851,268,o),
(851,324,cs),
(851,422,o),
(885,472,o),
(918,472,cs),
(951,472,o),
(985,423,o),
(985,324,cs),
(985,268,o),
(973,177,o),
(917,177,cs)
);
},
{
closed = 1;
nodes = (
(297,-44,l),
(1087,1373,l),
(924,1470,l),
(132,57,l)
);
}
);
width = 1200;
},
{
guides = (
{
position = "{0, 1061.632}";
}
);
layerId = "549D2AD3-0DA6-49CF-9D11-873E4390D3BF";
shapes = (
{
closed = 1;
nodes = (
(508,760,o),
(583,953,o),
(583,1110,cs),
(583,1269,o),
(509,1459,o),
(327,1459,cs),
(143,1459,o),
(68,1267,o),
(68,1110,cs),
(68,954,o),
(144,760,o),
(327,760,cs)
);
},
{
closed = 1;
nodes = (
(223,877,o),
(191,1015,o),
(191,1110,cs),
(191,1265,o),
(259,1344,o),
(327,1344,cs),
(393,1344,o),
(461,1266,o),
(461,1110,cs),
(461,1021,o),
(434,877,o),
(327,877,cs)
);
},
{
closed = 1;
nodes = (
(1081,-29,o),
(1157,164,o),
(1157,321,cs),
(1157,479,o),
(1082,670,o),
(898,670,cs),
(717,670,o),
(642,477,o),
(642,321,cs),
(642,164,o),
(718,-29,o),
(898,-29,cs)
);
},
{
closed = 1;
nodes = (
(795,88,o),
(764,225,o),
(764,321,cs),
(764,477,o),
(832,554,o),
(898,554,cs),
(966,554,o),
(1034,478,o),
(1034,321,cs),
(1034,231,o),
(1008,88,o),
(898,88,cs)
);
},
{
closed = 1;
nodes = (
(263,-35,l),
(1067,1409,l),
(966,1463,l),
(161,26,l)
);
}
);
width = 1200;
},
{
guides = (
{
position = "{0, 1061.632}";
}
);
layerId = "CD835F4B-8B2D-46BA-8F00-12B1EDA2331F";
shapes = (
{
closed = 1;
nodes = (
(518,760,o),
(584,969,o),
(584,1110,cs),
(584,1254,o),
(519,1459,o),
(339,1459,cs),
(158,1459,o),
(92,1252,o),
(92,1110,cs),
(92,970,o),
(159,760,o),
(339,760,cs)
);
},
{
closed = 1;
nodes = (
(203,820,o),
(157,986,o),
(157,1110,cs),
(157,1304,o),
(249,1402,o),
(339,1402,cs),
(429,1402,o),
(520,1305,o),
(520,1110,cs),
(520,997,o),
(482,820,o),
(339,820,cs)
);
},
{
closed = 1;
nodes = (
(1066,-30,o),
(1132,177,o),
(1132,318,cs),
(1132,462,o),
(1067,668,o),
(886,668,cs),
(706,668,o),
(641,460,o),
(641,318,cs),
(641,178,o),
(707,-30,o),
(886,-30,cs)
);
},
{
closed = 1;
nodes = (
(750,30,o),
(705,196,o),
(705,318,cs),
(705,512,o),
(796,609,o),
(886,609,cs),
(976,609,o),
(1068,513,o),
(1068,318,cs),
(1068,205,o),
(1029,30,o),
(886,30,cs)
);
},
{
closed = 1;
nodes = (
(241,-29,l),
(1051,1431,l),
(991,1459,l),
(181,4,l)
);
}
);
width = 1200;
}
);
leftKerningGroup = _percent;
unicode = 37;
},
{
glyphname = ampersand;
layers = (
{
layerId = "CE4E9A76-E92C-4E6B-9275-59AAE218FE2B";
shapes = (
{
closed = 1;
nodes = (
(483,-31,o),
(401,-13,o),
(327,27,cs),
(179,105,o),
(92,235,o),
(92,406,cs),
(92,463,o),
(103,511,o),
(125,562,c),
(174,669,o),
(263,754,o),
(404,820,c),
(604,596,l),
(556,584,o),
(520,556,o),
(492,526,cs),
(465,495,o),
(451,459,o),
(451,423,cs),
(451,385,o),
(464,352,o),
(497,327,cs),
(528,301,o),
(566,289,o),
(611,289,cs),
(674,289,o),
(735,315,o),
(786,353,c),
(371,803,l),
(343,836,o),
(317,867,o),
(300,899,c),
(263,962,o),
(246,1019,o),
(246,1084,cs),
(246,1160,o),
(264,1220,o),
(304,1282,c),
(352,1351,o),
(413,1398,o),
(484,1429,cs),
(553,1459,o),
(632,1471,o),
(715,1470,c),
(777,1471,o),
(842,1463,o),
(903,1447,cs),
(965,1431,o),
(1027,1408,o),
(1080,1382,c),
(973,1133,l),
(932,1149,o),
(887,1163,o),
(842,1175,cs),
(797,1186,o),
(754,1191,o),
(714,1188,c),
(664,1189,o),
(624,1179,o),
(599,1155,cs),
(583,1138,o),
(574,1117,o),
(574,1086,cs),
(574,1067,o),
(583,1042,o),
(599,1018,c),
(615,992,o),
(638,970,o),
(666,944,c),
(1027,581,l),
(1063,625,o),
(1094,672,o),
(1124,725,cs),
(1152,774,o),
(1177,836,o),
(1203,910,c),
(1512,792,l),
(1495,747,o),
(1474,698,o),
(1442,644,cs),
(1380,533,o),
(1309,424,o),
(1233,347,c),
(1549,0,l),
(1107,0,l),
(995,119,l),
(936,72,o),
(873,39,o),
(797,10,cs),
(720,-18,o),
(648,-31,o),
(578,-31,cs)
);
}
);
width = 1556;
},
{
layerId = "549D2AD3-0DA6-49CF-9D11-873E4390D3BF";
shapes = (
{
closed = 1;
nodes = (
(484,-31,o),
(409,-13,o),
(338,22,c),
(197,96,o),
(113,217,o),
(113,380,cs),
(113,441,o),
(128,493,o),
(155,549,c),
(216,661,o),
(329,749,o),
(492,803,c),
(605,684,l),
(509,659,o),
(437,619,o),
(387,568,cs),
(335,514,o),
(309,453,o),
(309,385,cs),
(309,312,o),
(333,255,o),
(387,209,c),
(435,166,o),
(502,144,o),
(588,144,cs),
(719,144,o),
(831,194,o),
(929,295,c),
(457,790,l),
(415,836,o),
(379,874,o),
(352,912,cs),
(302,983,o),
(282,1046,o),
(282,1127,cs),
(282,1192,o),
(299,1246,o),
(335,1300,c),
(379,1362,o),
(435,1406,o),
(498,1433,c),
(563,1460,o),
(636,1471,o),
(713,1470,c),
(785,1471,o),
(860,1458,o),
(927,1436,cs),
(995,1414,o),
(1061,1381,o),
(1111,1345,c),
(1030,1201,l),
(990,1229,o),
(936,1255,o),
(878,1276,c),
(818,1295,o),
(756,1307,o),
(698,1306,c),
(629,1308,o),
(569,1293,o),
(526,1254,c),
(486,1220,o),
(469,1180,o),
(469,1125,cs),
(469,1083,o),
(481,1042,o),
(503,1003,cs),
(527,965,o),
(568,921,o),
(622,865,cs),
(1051,427,l),
(1091,476,o),
(1129,534,o),
(1164,601,cs),
(1197,668,o),
(1226,743,o),
(1257,833,c),
(1425,764,l),
(1406,709,o),
(1384,654,o),
(1356,600,c),
(1303,488,o),
(1237,386,o),
(1165,302,c),
(1451,0,l),
(1206,0,l),
(1044,168,l),
(979,104,o),
(904,57,o),
(824,22,c),
(740,-15,o),
(660,-31,o),
(577,-31,cs)
);
}
);
width = 1491;
},
{
layerId = "CD835F4B-8B2D-46BA-8F00-12B1EDA2331F";
shapes = (
{
closed = 1;
nodes = (
(485,-31,o),
(413,-13,o),
(344,19,c),
(209,90,o),
(129,207,o),
(129,362,cs),
(129,426,o),
(144,481,o),
(175,540,c),
(245,657,o),
(372,746,o),
(551,793,c),
(605,742,l),
(479,709,o),
(383,660,o),
(315,593,cs),
(249,528,o),
(214,449,o),
(214,359,cs),
(214,264,o),
(246,190,o),
(311,133,cs),
(374,77,o),
(460,47,o),
(573,47,cs),
(747,47,o),
(893,114,o),
(1025,256,c),
(514,782,l),
(463,836,o),
(419,878,o),
(389,919,c),
(327,996,o),
(305,1063,o),
(305,1155,cs),
(305,1214,o),
(322,1263,o),
(354,1313,c),
(395,1369,o),
(448,1410,o),
(508,1436,c),
(570,1461,o),
(638,1471,o),
(710,1470,c),
(791,1470,o),
(870,1455,o),
(942,1429,c),
(1015,1402,o),
(1082,1365,o),
(1131,1321,c),
(1069,1246,l),
(1029,1284,o),
(971,1317,o),
(900,1342,cs),
(832,1367,o),
(757,1383,o),
(688,1382,c),
(605,1385,o),
(530,1368,o),
(476,1320,c),
(423,1275,o),
(398,1221,o),
(398,1149,cs),
(398,1093,o),
(413,1041,o),
(440,994,cs),
(468,946,o),
(519,888,o),
(593,809,c),
(1068,323,l),
(1110,378,o),
(1150,442,o),
(1189,520,c),
(1226,597,o),
(1260,682,o),
(1293,780,c),
(1366,744,l),
(1345,684,o),
(1326,626,o),
(1298,572,c),
(1249,459,o),
(1189,359,o),
(1120,273,c),
(1384,0,l),
(1272,0,l),
(1078,202,l),
(1004,124,o),
(924,69,o),
(840,30,cs),
(752,-12,o),
(668,-31,o),
(576,-31,cs)
);
}
);
width = 1447;
}
);
rightKerningGroup = _x;
unicode = 38;
},
{
glyphname = quotesingle;
layers = (
{
layerId = "CE4E9A76-E92C-4E6B-9275-59AAE218FE2B";
shapes = (
{
closed = 1;
nodes = (
(124,729,l),
(407,729,l),
(447,1440,l),
(84,1440,l)
);
}
);
width = 514;
},
{
layerId = "549D2AD3-0DA6-49CF-9D11-873E4390D3BF";
shapes = (
{
closed = 1;
nodes = (
(156,930,l),
(307,930,l),
(327,1440,l),
(137,1440,l)
);
}
);
width = 449;
},
{
layerId = "CD835F4B-8B2D-46BA-8F00-12B1EDA2331F";
shapes = (
{
closed = 1;
nodes = (
(178,1064,l),
(242,1064,l),
(247,1440,l),
(173,1440,l)
);
}
);
width = 405;
}
);
leftKerningGroup = _tonos2;
rightKerningGroup = _tonos;
unicode = 39;
},
{
glyphname = parenleft;
layers = (
{
layerId = "CE4E9A76-E92C-4E6B-9275-59AAE218FE2B";
shapes = (
{
closed = 1;
nodes = (
(659,-120,l),
(587,1,o),
(534,127,o),
(501,268,c),
(465,409,o),
(446,551,o),
(446,696,cs),
(446,841,o),
(463,980,o),
(499,1120,cs),
(536,1257,o),
(587,1384,o),
(659,1500,c),
(350,1610,l),
(237,1414,o),
(166,1214,o),
(130,1006,cs),
(111,901,o),
(102,800,o),
(102,692,cs),
(102,532,o),
(123,380,o),
(164,224,cs),
(205,67,o),
(266,-81,o),
(350,-230,c)
);
}
);
width = 730;
},
{
layerId = "549D2AD3-0DA6-49CF-9D11-873E4390D3BF";
shapes = (
{
closed = 1;
nodes = (
(564,-167,l),
(489,-43,o),
(435,88,o),
(400,240,c),
(361,391,o),
(342,541,o),
(342,696,cs),
(342,852,o),
(360,1002,o),
(398,1151,c),
(437,1296,o),
(489,1431,o),
(564,1547,c),
(414,1610,l),
(301,1426,o),
(230,1227,o),
(194,1014,cs),
(175,906,o),
(166,803,o),
(166,692,cs),
(166,529,o),
(187,374,o),
(228,215,cs),
(269,55,o),
(330,-90,o),
(414,-230,c)
);
}
);
width = 686;
},
{
layerId = "CD835F4B-8B2D-46BA-8F00-12B1EDA2331F";
shapes = (
{
closed = 1;
nodes = (
(501,-199,l),
(425,-72,o),
(369,63,o),
(331,221,cs),
(292,379,o),
(273,534,o),
(273,696,cs),
(273,859,o),
(291,1017,o),
(331,1170,cs),
(371,1321,o),
(425,1462,o),
(501,1579,c),
(456,1610,l),
(343,1433,o),
(272,1235,o),
(236,1018,c),
(217,909,o),
(208,805,o),
(208,692,cs),
(208,526,o),
(229,370,o),
(270,209,cs),
(311,47,o),
(372,-96,o),
(456,-230,c)
);
}
);
width = 657;
}
);
rightKerningGroup = _parenleft;
unicode = 40;
},
{
glyphname = parenright;
layers = (
{
layerId = "CE4E9A76-E92C-4E6B-9275-59AAE218FE2B";
shapes = (
{
closed = 1;
nodes = (
(72,1500,l),
(144,1383,o),
(195,1256,o),
(231,1112,cs),
(267,971,o),
(284,829,o),
(284,684,cs),
(284,539,o),
(267,399,o),
(231,262,c),
(198,122,o),
(145,-3,o),
(72,-120,c),
(380,-230,l),
(493,-31,o),
(564,166,o),
(600,375,c),
(619,479,o),
(628,583,o),
(628,688,cs),
(628,848,o),
(607,1000,o),
(566,1157,cs),
(525,1314,o),
(464,1461,o),
(380,1610,c)
);
}
);
width = 730;
},
{
layerId = "549D2AD3-0DA6-49CF-9D11-873E4390D3BF";
shapes = (
{
closed = 1;
nodes = (
(122,1547,l),
(197,1427,o),
(250,1294,o),
(289,1140,cs),
(327,989,o),
(344,840,o),
(344,684,cs),
(344,528,o),
(326,377,o),
(288,232,c),
(252,83,o),
(198,-48,o),
(122,-167,c),
(272,-230,l),
(385,-44,o),
(456,153,o),
(492,368,c),
(511,475,o),
(520,581,o),
(520,688,cs),
(520,852,o),
(499,1007,o),
(458,1165,cs),
(417,1325,o),
(356,1470,o),
(272,1610,c)
);
}
);
width = 686;
},
{
layerId = "CD835F4B-8B2D-46BA-8F00-12B1EDA2331F";
shapes = (
{
closed = 1;
nodes = (
(156,1579,l),
(232,1456,o),
(286,1318,o),
(327,1159,cs),
(367,1001,o),
(384,846,o),
(384,684,cs),
(384,521,o),
(365,362,o),
(326,211,c),
(288,58,o),
(233,-77,o),
(156,-199,c),
(200,-230,l),
(313,-52,o),
(384,145,o),
(420,364,c),
(439,472,o),
(448,579,o),
(448,688,cs),
(448,854,o),
(427,1010,o),
(386,1171,cs),
(345,1332,o),
(284,1476,o),
(200,1610,c)
);
}
);
width = 657;
}
);
leftKerningGroup = _parenright;
unicode = 41;
},
{
glyphname = asterisk;
layers = (
{
layerId = "CE4E9A76-E92C-4E6B-9275-59AAE218FE2B";
shapes = (
{
closed = 1;
nodes = (
(465,417,l),
(609,667,l),
(754,417,l),
(1063,629,l),
(872,845,l),
(1152,912,l),
(1035,1268,l),
(769,1153,l),
(801,1440,l),
(421,1440,l),
(453,1153,l),
(187,1268,l),
(69,912,l),
(350,845,l),
(159,629,l)
);
}
);
width = 1188;
},
{
layerId = "549D2AD3-0DA6-49CF-9D11-873E4390D3BF";
shapes = (
{
closed = 1;
nodes = (
(394,624,l),
(562,884,l),
(727,625,l),
(889,736,l),
(691,977,l),
(992,1057,l),
(929,1243,l),
(640,1133,l),
(658,1440,l),
(463,1440,l),
(481,1130,l),
(193,1241,l),
(132,1055,l),
(431,975,l),
(237,736,l)
);
}
);
width = 1088;
},
{
layerId = "CD835F4B-8B2D-46BA-8F00-12B1EDA2331F";
shapes = (
{
closed = 1;
nodes = (
(345,761,l),
(531,1028,l),
(711,764,l),
(771,807,l),
(571,1065,l),
(883,1154,l),
(859,1227,l),
(557,1119,l),
(563,1440,l),
(490,1440,l),
(499,1113,l),
(196,1225,l),
(173,1151,l),
(485,1061,l),
(289,807,l)
);
}
);
width = 1022;
}
);
leftKerningGroup = _degree2;
rightKerningGroup = _degree;
unicode = 42;
},
{
glyphname = plus;
layers = (
{
layerId = "CE4E9A76-E92C-4E6B-9275-59AAE218FE2B";
shapes = (
{
closed = 1;
nodes = (
(510,113,l),
(786,113,l),
(786,538,l),
(1225,538,l),
(1225,802,l),
(786,802,l),
(786,1227,l),
(510,1227,l),
(510,802,l),
(71,802,l),
(71,538,l),
(510,538,l)
);
}
);
width = 1296;
},
{
layerId = "549D2AD3-0DA6-49CF-9D11-873E4390D3BF";
shapes = (
{
closed = 1;
nodes = (
(571,187,l),
(725,187,l),
(725,592,l),
(1150,592,l),
(1150,740,l),
(725,740,l),
(725,1145,l),
(571,1145,l),
(571,740,l),
(146,740,l),
(146,592,l),
(571,592,l)
);
}
);
width = 1296;
},
{
layerId = "CD835F4B-8B2D-46BA-8F00-12B1EDA2331F";
shapes = (
{
closed = 1;
nodes = (
(612,237,l),
(684,237,l),
(684,628,l),
(1099,628,l),
(1099,698,l),
(684,698,l),
(684,1090,l),
(612,1090,l),
(612,698,l),
(197,698,l),
(197,628,l),
(612,628,l)
);
}
);
width = 1296;
}
);
leftKerningGroup = _plus2;
rightKerningGroup = _plus;
unicode = 43;
},
{
glyphname = hyphen;
layers = (
{
layerId = "CE4E9A76-E92C-4E6B-9275-59AAE218FE2B";
shapes = (
{
closed = 1;
nodes = (
(91,395,l),
(708,395,l),
(708,739,l),
(91,739,l)
);
}
);
width = 799;
},
{
layerId = "549D2AD3-0DA6-49CF-9D11-873E4390D3BF";
shapes = (
{
closed = 1;
nodes = (
(122,476,l),
(653,476,l),
(653,648,l),
(122,648,l)
);
}
);
width = 775;
},
{
layerId = "CD835F4B-8B2D-46BA-8F00-12B1EDA2331F";
shapes = (
{
closed = 1;
nodes = (
(143,530,l),
(615,530,l),
(615,588,l),
(143,588,l)
);
}
);
width = 759;
}
);
leftKerningGroup = _hyphen2;
rightKerningGroup = _hyphen;
unicode = 45;
},
{
glyphname = slash;
layers = (
{
layerId = "CE4E9A76-E92C-4E6B-9275-59AAE218FE2B";
shapes = (
{
closed = 1;
nodes = (
(288,-230,l),
(975,1486,l),
(659,1610,l),
(-29,-106,l)
);
}
);
width = 947;
},
{
layerId = "549D2AD3-0DA6-49CF-9D11-873E4390D3BF";
shapes = (
{
closed = 1;
nodes = (
(172,-230,l),
(904,1544,l),
(737,1610,l),
(5,-164,l)
);
}
);
width = 909;
},
{
layerId = "CD835F4B-8B2D-46BA-8F00-12B1EDA2331F";
shapes = (
{
closed = 1;
nodes = (
(95,-230,l),
(856,1583,l),
(790,1610,l),
(27,-203,l)
);
}
);
width = 884;
}
);
unicode = 47;
},
{
glyphname = zero;
layers = (
{
layerId = "CE4E9A76-E92C-4E6B-9275-59AAE218FE2B";
shapes = (
{
closed = 1;
nodes = (
(1010,-31,o),
(1194,334,o),
(1194,720,cs),
(1194,1106,o),
(1012,1470,o),
(617,1470,cs),
(225,1470,o),
(39,1105,o),
(39,720,cs),
(39,335,o),
(226,-31,o),
(617,-31,cs)
);
},
{
closed = 1;
nodes = (
(435,314,o),
(399,568,o),
(399,720,cs),
(399,991,o),
(507,1130,o),
(617,1130,c),
(726,1131,o),
(835,996,o),
(835,720,cs),
(835,568,o),
(802,314,o),
(617,314,cs)
);
}
);
width = 1200;
},
{
layerId = "549D2AD3-0DA6-49CF-9D11-873E4390D3BF";
shapes = (
{
closed = 1;
nodes = (
(1002,-31,o),
(1161,383,o),
(1161,720,cs),
(1161,1059,o),
(1004,1470,o),
(617,1470,cs),
(232,1470,o),
(73,1058,o),
(73,720,cs),
(73,384,o),
(233,-31,o),
(617,-31,cs)
);
},
{
closed = 1;
nodes = (
(351,155,o),
(271,485,o),
(271,720,cs),
(271,1096,o),
(444,1289,o),
(617,1289,cs),
(789,1289,o),
(963,1100,o),
(963,720,cs),
(963,500,o),
(894,155,o),
(617,155,cs)
);
}
);
width = 1200;
},
{
layerId = "CD835F4B-8B2D-46BA-8F00-12B1EDA2331F";
shapes = (
{
closed = 1;
nodes = (
(998,-31,o),
(1138,414,o),
(1138,720,cs),
(1138,1026,o),
(998,1470,o),
(617,1470,cs),
(236,1470,o),
(97,1025,o),
(97,720,cs),
(97,415,o),
(237,-31,o),
(617,-31,cs)
);
},
{
closed = 1;
nodes = (
(295,48,o),
(186,431,o),
(186,720,cs),
(186,1168,o),
(401,1393,o),
(617,1393,cs),
(833,1393,o),
(1047,1170,o),
(1047,720,cs),
(1047,455,o),
(954,48,o),
(617,48,cs)
);
}
);
width = 1200;
}
);
leftKerningGroup = _plus2;
rightKerningGroup = _plus;
unicode = 48;
},
{
glyphname = one;
layers = (
{
layerId = "CE4E9A76-E92C-4E6B-9275-59AAE218FE2B";
shapes = (
{
closed = 1;
nodes = (
(130,0,l),
(1178,0,l),
(1178,362,l),
(849,362,l),
(849,1440,l),
(807,1440,l),
(128,1195,l),
(228,874,l),
(498,976,l),
(498,362,l),
(130,362,l)
);
}
);
width = 1200;
},
{
layerId = "549D2AD3-0DA6-49CF-9D11-873E4390D3BF";
shapes = (
{
closed = 1;
nodes = (
(178,0,l),
(1123,0,l),
(1123,188,l),
(765,188,l),
(765,1440,l),
(721,1440,l),
(177,1227,l),
(233,1058,l),
(578,1199,l),
(578,188,l),
(178,188,l)
);
}
);
width = 1200;
},
{
layerId = "CD835F4B-8B2D-46BA-8F00-12B1EDA2331F";
shapes = (
{
closed = 1;
nodes = (
(210,0,l),
(1087,0,l),
(1087,71,l),
(709,71,l),
(709,1440,l),
(662,1440,l),
(210,1248,l),
(236,1181,l),
(630,1347,l),
(630,71,l),
(210,71,l)
);
}
);
width = 1200;
}
);
leftKerningGroup = _plus2;
rightKerningGroup = _plus;
unicode = 49;
},
{
glyphname = two;
layers = (
{
layerId = "CE4E9A76-E92C-4E6B-9275-59AAE218FE2B";
shapes = (
{
closed = 1;
nodes = (
(725,1157,o),
(771,1098,o),
(771,995,cs),
(771,967,o),
(760,936,o),
(744,903,cs),
(637,698,o),
(240,392,o),
(101,292,c),
(101,0,l),
(1134,0,l),
(1134,324,l),
(659,324,l),
(822,425,o),
(1024,609,o),
(1107,806,cs),
(1131,866,o),
(1145,925,o),
(1145,983,cs),
(1145,1282,o),
(941,1470,o),
(617,1470,cs),
(353,1470,o),
(118,1287,o),
(48,1034,c),
(354,875,l),
(392,980,o),
(492,1157,o),
(617,1157,cs)
);
}
);
width = 1200;
},
{
layerId = "549D2AD3-0DA6-49CF-9D11-873E4390D3BF";
shapes = (
{
closed = 1;
nodes = (
(797,1303,o),
(896,1218,o),
(896,1068,cs),
(896,1029,o),
(889,988,o),
(877,947,cs),
(797,686,o),
(331,307,o),
(120,155,c),
(120,0,l),
(1082,0,l),
(1082,178,l),
(435,178,l),
(640,325,o),
(975,629,o),
(1068,904,cs),
(1084,954,o),
(1094,1003,o),
(1094,1050,cs),
(1094,1317,o),
(922,1470,o),
(616,1470,cs),
(392,1470,o),
(178,1324,o),
(110,1107,c),
(283,1030,l),
(328,1172,o),
(463,1303,o),
(616,1303,cs)
);
}
);
width = 1200;
},
{
layerId = "CD835F4B-8B2D-46BA-8F00-12B1EDA2331F";
shapes = (
{
closed = 1;
nodes = (
(846,1401,o),
(980,1297,o),
(980,1117,cs),
(980,1071,o),
(974,1024,o),
(964,979,c),
(904,679,o),
(393,251,o),
(133,64,c),
(133,0,l),
(1047,0,l),
(1047,81,l),
(286,81,l),
(521,259,o),
(942,641,o),
(1042,971,cs),
(1056,1014,o),
(1060,1056,o),
(1060,1095,cs),
(1060,1340,o),
(909,1470,o),
(615,1470,cs),
(416,1470,o),
(216,1348,o),
(151,1157,c),
(235,1134,l),
(285,1300,o),
(444,1401,o),
(615,1401,cs)
);
}
);
width = 1200;
}
);
leftKerningGroup = _two.tnum2;
rightKerningGroup = _two.tnum;
unicode = 50;
},
{
glyphname = three;
layers = (
{
layerId = "CE4E9A76-E92C-4E6B-9275-59AAE218FE2B";
shapes = (
{
closed = 1;
nodes = (
(889,-31,o),
(1141,141,o),
(1141,430,cs),
(1141,627,o),
(1014,850,o),
(789,852,c),
(786,852,o),
(784,852,o),
(781,852,c),
(1078,1140,l),
(1078,1440,l),
(138,1440,l),
(138,1113,l),
(642,1113,l),
(314,848,l),
(420,598,l),
(472,614,o),
(530,620,o),
(580,620,cs),
(686,620,o),
(781,574,o),
(781,462,cs),
(781,351,o),
(662,307,o),
(566,307,cs),
(431,307,o),
(303,355,o),
(231,446,c),
(114,138,l),
(213,23,o),
(445,-31,o),
(591,-31,cs)
);
}
);
width = 1200;
},
{
layerId = "549D2AD3-0DA6-49CF-9D11-873E4390D3BF";
shapes = (
{
closed = 1;
nodes = (
(890,-31,o),
(1089,178,o),
(1089,421,cs),
(1089,666,o),
(879,847,o),
(633,848,c),
(614,848,o),
(596,845,o),
(577,845,c),
(1021,1276,l),
(1021,1440,l),
(139,1440,l),
(139,1262,l),
(781,1262,l),
(319,826,l),
(383,688,l),
(437,702,o),
(493,707,o),
(546,707,cs),
(729,707,o),
(897,630,o),
(897,433,cs),
(897,240,o),
(734,153,o),
(559,153,cs),
(421,153,o),
(287,196,o),
(196,276,c),
(127,109,l),
(236,15,o),
(429,-31,o),
(571,-31,cs)
);
}
);
width = 1200;
},
{
layerId = "CD835F4B-8B2D-46BA-8F00-12B1EDA2331F";
shapes = (
{
closed = 1;
nodes = (
(891,-31,o),
(1053,201,o),
(1053,415,cs),
(1053,692,o),
(789,845,o),
(529,845,c),
(499,845,o),
(470,841,o),
(441,841,c),
(982,1365,l),
(982,1440,l),
(139,1440,l),
(139,1361,l),
(873,1361,l),
(322,810,l),
(357,747,l),
(415,759,o),
(470,764,o),
(525,764,cs),
(757,764,o),
(972,669,o),
(972,414,cs),
(972,164,o),
(782,49,o),
(553,49,cs),
(414,49,o),
(277,90,o),
(175,161,c),
(134,90,l),
(251,9,o),
(419,-31,o),
(556,-31,cs)
);
}
);
width = 1200;
}
);
leftKerningGroup = _plus2;
rightKerningGroup = _plus;
unicode = 51;
},
{
glyphname = four;
layers = (
{
layerId = "CE4E9A76-E92C-4E6B-9275-59AAE218FE2B";
shapes = (
{
closed = 1;
nodes = (
(696,0,l),
(1010,0,l),
(1010,255,l),
(1183,255,l),
(1183,577,l),
(1010,577,l),
(1010,834,l),
(696,834,l),
(696,577,l),
(453,577,l),
(837,1440,l),
(461,1440,l),
(58,540,l),
(58,255,l),
(696,255,l)
);
}
);
width = 1200;
},
{
layerId = "549D2AD3-0DA6-49CF-9D11-873E4390D3BF";
shapes = (
{
closed = 1;
nodes = (
(782,0,l),
(954,0,l),
(954,300,l),
(1174,300,l),
(1174,476,l),
(954,476,l),
(954,803,l),
(782,803,l),
(782,476,l),
(300,476,l),
(799,1440,l),
(594,1440,l),
(91,460,l),
(91,300,l),
(782,300,l)
);
}
);
width = 1200;
},
{
layerId = "CD835F4B-8B2D-46BA-8F00-12B1EDA2331F";
shapes = (
{
closed = 1;
nodes = (
(842,0,l),
(915,0,l),
(915,330,l),
(1168,330,l),
(1168,411,l),
(915,411,l),
(915,783,l),
(842,783,l),
(842,411,l),
(196,411,l),
(773,1440,l),
(683,1440,l),
(112,405,l),
(112,330,l),
(842,330,l)
);
}
);
width = 1200;
}
);
leftKerningGroup = _plus2;
rightKerningGroup = _plus;
unicode = 52;
},
{
glyphname = five;
layers = (
{
layerId = "CE4E9A76-E92C-4E6B-9275-59AAE218FE2B";
shapes = (
{
closed = 1;
nodes = (
(857,-31,o),
(1106,123,o),
(1106,450,cs),
(1106,768,o),
(891,922,o),
(615,922,cs),
(578,922,o),
(544,920,o),
(508,914,c),
(501,914,l),
(527,1090,l),
(1074,1090,l),
(1074,1440,l),
(263,1440,l),
(190,759,l),
(348,573,l),
(415,608,o),
(481,619,o),
(541,619,cs),
(639,619,o),
(752,589,o),
(752,470,cs),
(752,340,o),
(653,307,o),
(545,307,cs),
(413,307,o),
(295,343,o),
(208,438,c),
(102,128,l),
(224,16,o),
(407,-31,o),
(566,-31,cs)
);
}
);
width = 1200;
},
{
layerId = "549D2AD3-0DA6-49CF-9D11-873E4390D3BF";
shapes = (
{
closed = 1;
nodes = (
(855,-31,o),
(1085,133,o),
(1085,443,cs),
(1085,741,o),
(871,895,o),
(613,895,cs),
(544,895,o),
(478,883,o),
(404,857,c),
(397,857,l),
(441,1255,l),
(1050,1255,l),
(1050,1440,l),
(301,1440,l),
(230,759,l),
(311,668,l),
(400,711,o),
(485,727,o),
(564,727,cs),
(737,727,o),
(893,641,o),
(893,449,cs),
(893,244,o),
(744,153,o),
(563,153,cs),
(433,153,o),
(302,194,o),
(209,277,c),
(143,108,l),
(255,13,o),
(432,-31,o),
(573,-31,cs)
);
}
);
width = 1200;
},
{
layerId = "CD835F4B-8B2D-46BA-8F00-12B1EDA2331F";
shapes = (
{
closed = 1;
nodes = (
(853,-31,o),
(1069,139,o),
(1069,439,cs),
(1069,723,o),
(859,876,o),
(611,876,cs),
(523,876,o),
(433,859,o),
(333,817,c),
(326,817,l),
(384,1365,l),
(1034,1365,l),
(1034,1440,l),
(326,1440,l),
(255,759,l),
(287,731,l),
(390,778,o),
(488,799,o),
(579,799,cs),
(802,799,o),
(988,677,o),
(988,436,cs),
(988,179,o),
(802,49,o),
(573,49,cs),
(445,49,o),
(306,96,o),
(209,169,c),
(169,95,l),
(275,10,o),
(447,-31,o),
(577,-31,cs)
);
}
);
width = 1200;
}
);
leftKerningGroup = _plus2;
rightKerningGroup = _plus;
unicode = 53;
},
{
glyphname = six;
layers = (
{
layerId = "CE4E9A76-E92C-4E6B-9275-59AAE218FE2B";
shapes = (
{
closed = 1;
nodes = (
(955,-31,o),
(1166,197,o),
(1166,477,cs),
(1166,750,o),
(989,947,o),
(723,947,cs),
(629,947,o),
(555,923,o),
(493,879,c),
(563,1053,o),
(764,1156,o),
(1058,1156,c),
(989,1470,l),
(412,1470,o),
(67,1071,o),
(67,595,cs),
(67,204,o),
(301,-31,o),
(625,-31,cs)
);
},
{
closed = 1;
nodes = (
(532,291,o),
(461,364,o),
(461,465,cs),
(461,560,o),
(527,641,o),
(625,641,cs),
(720,641,o),
(789,568,o),
(789,465,cs),
(789,364,o),
(720,291,o),
(625,291,cs)
);
}
);
width = 1200;
},
{
layerId = "549D2AD3-0DA6-49CF-9D11-873E4390D3BF";
shapes = (
{
closed = 1;
nodes = (
(942,-31,o),
(1151,187,o),
(1151,465,cs),
(1151,738,o),
(953,928,o),
(688,928,cs),
(534,928,o),
(403,855,o),
(324,739,c),
(371,1088,o),
(639,1296,o),
(1028,1296,c),
(993,1470,l),
(458,1470,o),
(108,1096,o),
(108,595,cs),
(108,195,o),
(328,-31,o),
(639,-31,cs)
);
},
{
closed = 1;
nodes = (
(459,150,o),
(331,276,o),
(331,451,cs),
(331,620,o),
(464,751,o),
(639,751,cs),
(813,751,o),
(947,622,o),
(947,451,cs),
(947,276,o),
(819,150,o),
(639,150,cs)
);
}
);
width = 1200;
},
{
layerId = "CD835F4B-8B2D-46BA-8F00-12B1EDA2331F";
shapes = (
{
closed = 1;
nodes = (
(934,-31,o),
(1142,181,o),
(1142,458,cs),
(1142,730,o),
(930,916,o),
(664,916,cs),
(470,916,o),
(299,809,o),
(210,644,c),
(242,1111,o),
(556,1390,o),
(1009,1390,c),
(996,1470,l),
(488,1470,o),
(134,1113,o),
(134,595,cs),
(134,189,o),
(344,-31,o),
(648,-31,cs)
);
},
{
closed = 1;
nodes = (
(411,55,o),
(245,214,o),
(245,441,cs),
(245,659,o),
(423,827,o),
(648,827,cs),
(875,827,o),
(1052,658,o),
(1052,441,cs),
(1052,214,o),
(885,55,o),
(648,55,cs)
);
}
);
width = 1200;
}
);
leftKerningGroup = _plus2;
rightKerningGroup = _plus;
unicode = 54;
},
{
glyphname = seven;
layers = (
{
layerId = "CE4E9A76-E92C-4E6B-9275-59AAE218FE2B";
shapes = (
{
closed = 1;
nodes = (
(191,0,l),
(597,0,l),
(1128,1158,l),
(1128,1440,l),
(129,1440,l),
(129,1077,l),
(698,1077,l)
);
}
);
width = 1200;
},
{
layerId = "549D2AD3-0DA6-49CF-9D11-873E4390D3BF";
shapes = (
{
closed = 1;
nodes = (
(262,0,l),
(474,0,l),
(1071,1283,l),
(1071,1440,l),
(185,1440,l),
(185,1251,l),
(853,1251,l)
);
}
);
width = 1200;
},
{
layerId = "CD835F4B-8B2D-46BA-8F00-12B1EDA2331F";
shapes = (
{
closed = 1;
nodes = (
(310,0,l),
(393,0,l),
(1035,1363,l),
(1035,1440,l),
(222,1440,l),
(222,1368,l),
(956,1368,l)
);
}
);
width = 1200;
}
);
leftKerningGroup = _plus2;
rightKerningGroup = _plus;
unicode = 55;
},
{
glyphname = eight;
layers = (
{
layerId = "CE4E9A76-E92C-4E6B-9275-59AAE218FE2B";
shapes = (
{
closed = 1;
nodes = (
(869,-31,o),
(1152,112,o),
(1152,401,cs),
(1152,558,o),
(1067,697,o),
(919,760,c),
(1038,821,o),
(1106,929,o),
(1106,1069,cs),
(1106,1335,o),
(862,1470,o),
(617,1470,cs),
(370,1470,o),
(132,1328,o),
(132,1069,cs),
(132,939,o),
(199,821,o),
(318,760,c),
(171,699,o),
(81,570,o),
(81,401,cs),
(81,104,o),
(338,-31,o),
(607,-31,cs)
);
},
{
closed = 1;
nodes = (
(510,279,o),
(434,352,o),
(434,450,cs),
(434,556,o),
(518,617,o),
(617,617,cs),
(723,617,o),
(799,558,o),
(799,449,cs),
(799,349,o),
(721,279,o),
(617,279,cs)
);
},
{
closed = 1;
nodes = (
(534,915,o),
(459,973,o),
(459,1061,cs),
(459,1147,o),
(531,1205,o),
(619,1205,cs),
(704,1205,o),
(778,1154,o),
(778,1061,cs),
(778,970,o),
(704,915,o),
(619,915,cs)
);
}
);
width = 1200;
},
{
layerId = "549D2AD3-0DA6-49CF-9D11-873E4390D3BF";
shapes = (
{
closed = 1;
nodes = (
(874,-31,o),
(1109,127,o),
(1109,401,cs),
(1109,570,o),
(1016,694,o),
(860,757,c),
(989,811,o),
(1066,929,o),
(1066,1076,cs),
(1066,1328,o),
(855,1470,o),
(618,1470,cs),
(387,1470,o),
(171,1331,o),
(171,1076,cs),
(171,932,o),
(252,811,o),
(380,757,c),
(225,698,o),
(125,579,o),
(125,401,cs),
(125,117,o),
(365,-31,o),
(615,-31,cs)
);
},
{
closed = 1;
nodes = (
(455,144,o),
(315,238,o),
(315,409,cs),
(315,581,o),
(445,674,o),
(617,674,cs),
(782,674,o),
(918,587,o),
(918,408,cs),
(918,234,o),
(775,144,o),
(617,144,cs)
);
},
{
closed = 1;
nodes = (
(485,845,o),
(352,918,o),
(352,1070,cs),
(352,1223,o),
(479,1309,o),
(619,1309,cs),
(760,1309,o),
(886,1226,o),
(886,1070,cs),
(886,921,o),
(760,845,o),
(619,845,cs)
);
}
);
width = 1200;
},
{
layerId = "CD835F4B-8B2D-46BA-8F00-12B1EDA2331F";
shapes = (
{
closed = 1;
nodes = (
(877,-31,o),
(1080,136,o),
(1080,401,cs),
(1080,577,o),
(981,692,o),
(820,755,c),
(954,804,o),
(1040,929,o),
(1040,1080,cs),
(1040,1322,o),
(852,1470,o),
(618,1470,cs),
(397,1470,o),
(197,1333,o),
(197,1080,cs),
(197,928,o),
(287,804,o),
(420,755,c),
(260,697,o),
(153,585,o),
(153,401,cs),
(153,126,o),
(385,-31,o),
(618,-31,cs)
);
},
{
closed = 1;
nodes = (
(419,54,o),
(238,160,o),
(238,382,cs),
(238,597,o),
(397,713,o),
(617,713,cs),
(823,713,o),
(996,606,o),
(996,383,cs),
(996,156,o),
(811,54,o),
(617,54,cs)
);
},
{
closed = 1;
nodes = (
(451,798,o),
(281,882,o),
(281,1076,cs),
(281,1275,o),
(444,1377,o),
(619,1377,cs),
(799,1377,o),
(956,1276,o),
(956,1076,cs),
(956,888,o),
(797,798,o),
(619,798,cs)
);
}
);
width = 1200;
}
);
leftKerningGroup = _plus2;
rightKerningGroup = _plus;
unicode = 56;
},
{
glyphname = nine;
layers = (
{
layerId = "CE4E9A76-E92C-4E6B-9275-59AAE218FE2B";
shapes = (
{
closed = 1;
nodes = (
(242,-31,l),
(812,-31,o),
(1157,378,o),
(1157,863,cs),
(1157,1238,o),
(928,1470,o),
(609,1470,cs),
(284,1470,o),
(81,1255,o),
(81,987,cs),
(81,714,o),
(251,516,o),
(511,516,cs),
(600,516,o),
(672,542,o),
(731,585,c),
(660,395,o),
(468,284,o),
(173,284,c)
);
},
{
closed = 1;
nodes = (
(520,823,o),
(455,891,o),
(455,986,cs),
(455,1078,o),
(520,1148,o),
(608,1148,cs),
(696,1148,o),
(763,1079,o),
(763,986,cs),
(763,897,o),
(701,823,o),
(608,823,cs)
);
}
);
width = 1200;
},
{
layerId = "549D2AD3-0DA6-49CF-9D11-873E4390D3BF";
shapes = (
{
closed = 1;
nodes = (
(241,-31,l),
(790,-31,o),
(1116,372,o),
(1116,862,cs),
(1116,1248,o),
(901,1470,o),
(596,1470,cs),
(298,1470,o),
(95,1263,o),
(95,997,cs),
(95,726,o),
(289,535,o),
(548,535,cs),
(698,535,o),
(826,607,o),
(900,724,c),
(858,405,o),
(629,143,o),
(204,143,c)
);
},
{
closed = 1;
nodes = (
(428,710,o),
(298,836,o),
(298,1000,cs),
(298,1169,o),
(422,1289,o),
(595,1289,cs),
(768,1289,o),
(893,1169,o),
(893,1000,cs),
(893,838,o),
(764,710,o),
(595,710,cs)
);
}
);
width = 1200;
},
{
layerId = "CD835F4B-8B2D-46BA-8F00-12B1EDA2331F";
shapes = (
{
closed = 1;
nodes = (
(240,-31,l),
(777,-31,o),
(1090,369,o),
(1090,860,cs),
(1090,1255,o),
(883,1470,o),
(587,1470,cs),
(306,1470,o),
(104,1268,o),
(104,1003,cs),
(104,732,o),
(313,545,o),
(571,545,cs),
(762,545,o),
(927,650,o),
(1014,815,c),
(991,411,o),
(737,48,o),
(227,48,c)
);
},
{
closed = 1;
nodes = (
(365,635,o),
(193,796,o),
(193,1010,cs),
(193,1227,o),
(356,1383,o),
(586,1383,cs),
(816,1383,o),
(980,1227,o),
(980,1010,cs),
(980,796,o),
(805,635,o),
(586,635,cs)
);
}
);
width = 1200;
}
);
leftKerningGroup = _plus2;
rightKerningGroup = _plus;
unicode = 57;
},
{
glyphname = less;
layers = (
{
layerId = "CE4E9A76-E92C-4E6B-9275-59AAE218FE2B";
shapes = (
{
closed = 1;
nodes = (
(1133,1184,l),
(71,763,l),
(71,497,l),
(1135,76,l),
(1233,329,l),
(484,631,l),
(1233,931,l)
);
}
);
width = 1296;
},
{
layerId = "549D2AD3-0DA6-49CF-9D11-873E4390D3BF";
shapes = (
{
closed = 1;
nodes = (
(1100,1115,l),
(146,729,l),
(146,584,l),
(1101,195,l),
(1160,343,l),
(380,657,l),
(1160,966,l)
);
}
);
width = 1296;
},
{
layerId = "CD835F4B-8B2D-46BA-8F00-12B1EDA2331F";
shapes = (
{
closed = 1;
nodes = (
(1079,1068,l),
(197,707,l),
(197,641,l),
(1079,274,l),
(1112,353,l),
(311,673,l),
(1112,989,l)
);
}
);
width = 1296;
}
);
leftKerningGroup = _plus2;
rightKerningGroup = _plus;
unicode = 60;
},
{
glyphname = equal;
layers = (
{
layerId = "CE4E9A76-E92C-4E6B-9275-59AAE218FE2B";
shapes = (
{
closed = 1;
nodes = (
(71,782,l),
(1225,782,l),
(1225,1046,l),
(71,1046,l)
);
},
{
closed = 1;
nodes = (
(71,294,l),
(1225,294,l),
(1225,558,l),
(71,558,l)
);
}
);
width = 1296;
},
{
layerId = "549D2AD3-0DA6-49CF-9D11-873E4390D3BF";
shapes = (
{
closed = 1;
nodes = (
(146,776,l),
(1150,776,l),
(1150,924,l),
(146,924,l)
);
},
{
closed = 1;
nodes = (
(146,402,l),
(1150,402,l),
(1150,550,l),
(146,550,l)
);
}
);
width = 1296;
},
{
layerId = "CD835F4B-8B2D-46BA-8F00-12B1EDA2331F";
shapes = (
{
closed = 1;
nodes = (
(197,773,l),
(1099,773,l),
(1099,843,l),
(197,843,l)
);
},
{
closed = 1;
nodes = (
(197,474,l),
(1099,474,l),
(1099,544,l),
(197,544,l)
);
}
);
width = 1296;
}
);
leftKerningGroup = _plus2;
rightKerningGroup = _plus;
unicode = 61;
},
{
glyphname = greater;
layers = (
{
layerId = "CE4E9A76-E92C-4E6B-9275-59AAE218FE2B";
shapes = (
{
closed = 1;
nodes = (
(163,76,l),
(1225,497,l),
(1225,763,l),
(161,1184,l),
(63,931,l),
(812,629,l),
(63,329,l)
);
}
);
width = 1296;
},
{
layerId = "549D2AD3-0DA6-49CF-9D11-873E4390D3BF";
shapes = (
{
closed = 1;
nodes = (
(196,195,l),
(1150,581,l),
(1150,726,l),
(195,1115,l),
(136,966,l),
(916,653,l),
(136,343,l)
);
}
);
width = 1296;
},
{
layerId = "CD835F4B-8B2D-46BA-8F00-12B1EDA2331F";
shapes = (
{
closed = 1;
nodes = (
(217,274,l),
(1099,637,l),
(1099,702,l),
(217,1068,l),
(184,989,l),
(985,669,l),
(184,353,l)
);
}
);
width = 1296;
}
);
leftKerningGroup = _plus2;
rightKerningGroup = _plus;
unicode = 62;
},
{
glyphname = question;
layers = (
{
guides = (
{
position = "{0, 1400}";
}
);
layerId = "CE4E9A76-E92C-4E6B-9275-59AAE218FE2B";
shapes = (
{
closed = 1;
nodes = (
(673,550,l),
(595,608,o),
(577,636,o),
(577,671,cs),
(577,695,o),
(581,716,o),
(597,727,cs),
(709,801,ls),
(820,874,o),
(975,931,o),
(975,1114,cs),
(975,1360,o),
(702,1470,o),
(498,1470,cs),
(377,1470,o),
(134,1431,o),
(60,1354,c),
(134,1036,l),
(218,1080,o),
(287,1110,o),
(386,1110,cs),
(444,1110,o),
(498,1099,o),
(498,1035,cs),
(498,1004,o),
(487,978,o),
(463,962,cs),
(385,908,ls),
(313,858,o),
(228,812,o),
(228,697,cs),
(228,626,o),
(259,572,o),
(412,492,c)
);
},
{
closed = 1;
nodes = (
(593,-30,o),
(696,60,o),
(696,192,cs),
(696,323,o),
(595,410,o),
(464,410,cs),
(336,410,o),
(234,326,o),
(234,192,cs),
(234,57,o),
(336,-30,o),
(463,-30,cs)
);
}
);
width = 1049;
},
{
guides = (
{
position = "{0, 1400}";
}
);
layerId = "549D2AD3-0DA6-49CF-9D11-873E4390D3BF";
shapes = (
{
closed = 1;
nodes = (
(557,458,l),
(497,504,o),
(434,552,o),
(434,620,cs),
(434,656,o),
(456,685,o),
(517,724,cs),
(622,790,ls),
(791,897,o),
(895,989,o),
(895,1132,cs),
(895,1366,o),
(657,1470,o),
(441,1470,cs),
(320,1470,o),
(164,1437,o),
(72,1357,c),
(128,1199,l),
(209,1266,o),
(309,1291,o),
(411,1291,cs),
(542,1291,o),
(662,1246,o),
(662,1104,cs),
(662,1036,o),
(614,977,o),
(523,921,cs),
(435,866,ls),
(311,789,o),
(246,727,o),
(246,636,cs),
(246,532,o),
(329,466,o),
(415,417,c)
);
},
{
closed = 1;
nodes = (
(508,-30,o),
(572,24,o),
(572,106,cs),
(572,187,o),
(509,240,o),
(429,240,cs),
(350,240,o),
(287,188,o),
(287,107,cs),
(287,25,o),
(351,-30,o),
(430,-30,cs)
);
}
);
width = 977;
},
{
guides = (
{
position = "{0, 1400}";
}
);
layerId = "CD835F4B-8B2D-46BA-8F00-12B1EDA2331F";
shapes = (
{
closed = 1;
nodes = (
(477,389,l),
(431,425,o),
(331,489,o),
(331,581,cs),
(331,629,o),
(357,666,o),
(454,726,cs),
(553,787,ls),
(769,920,o),
(842,1030,o),
(842,1142,cs),
(842,1369,o),
(632,1470,o),
(409,1470,cs),
(288,1470,o),
(180,1440,o),
(78,1359,c),
(125,1294,l),
(203,1373,o),
(321,1395,o),
(424,1395,cs),
(595,1395,o),
(773,1327,o),
(773,1142,cs),
(773,1045,o),
(715,965,o),
(570,879,cs),
(475,822,ls),
(309,725,o),
(261,660,o),
(261,588,cs),
(261,457,o),
(384,383,o),
(417,357,c)
);
},
{
closed = 1;
nodes = (
(461,-30,o),
(503,5,o),
(503,58,cs),
(503,112,o),
(461,146,o),
(410,146,cs),
(358,146,o),
(315,112,o),
(315,60,cs),
(315,9,o),
(360,-30,o),
(412,-30,cs)
);
}
);
width = 936;
}
);
unicode = 63;
},
{
glyphname = at;
layers = (
{
layerId = "CE4E9A76-E92C-4E6B-9275-59AAE218FE2B";
shapes = (
{
closed = 1;
nodes = (
(996,-234,o),
(1124,-208,o),
(1248,-156,cs),
(1308,-131,o),
(1365,-100,o),
(1418,-64,c),
(1339,113,l),
(1247,45,o),
(1143,-1,o),
(1030,-24,cs),
(970,-37,o),
(914,-43,o),
(853,-43,cs),
(739,-43,o),
(640,-19,o),
(551,24,cs),
(463,68,o),
(398,127,o),
(350,208,c),
(300,285,o),
(276,376,o),
(276,480,cs),
(276,649,o),
(337,788,o),
(445,893,cs),
(553,998,o),
(696,1056,o),
(868,1056,cs),
(978,1056,o),
(1069,1037,o),
(1154,996,cs),
(1234,956,o),
(1297,900,o),
(1344,827,c),
(1390,755,o),
(1413,673,o),
(1413,576,cs),
(1413,475,o),
(1390,405,o),
(1346,371,c),
(1322,351,o),
(1297,343,o),
(1265,343,cs),
(1235,343,o),
(1213,351,o),
(1197,371,cs),
(1183,388,o),
(1174,413,o),
(1177,449,c),
(1199,841,l),
(1016,841,l),
(1013,788,l),
(949,841,o),
(883,867,o),
(803,867,cs),
(731,867,o),
(672,852,o),
(616,818,cs),
(560,785,o),
(520,741,o),
(489,685,cs),
(457,629,o),
(441,564,o),
(441,492,cs),
(441,359,o),
(501,257,o),
(601,197,c),
(653,169,o),
(706,153,o),
(774,153,cs),
(876,153,o),
(948,186,o),
(1019,263,c),
(1063,193,o),
(1140,153,o),
(1245,153,cs),
(1314,153,o),
(1375,171,o),
(1432,210,c),
(1492,249,o),
(1535,299,o),
(1568,364,cs),
(1601,429,o),
(1618,499,o),
(1618,576,cs),
(1618,709,o),
(1589,823,o),
(1525,924,c),
(1460,1024,o),
(1375,1102,o),
(1262,1159,cs),
(1149,1215,o),
(1023,1242,o),
(874,1242,cs),
(643,1242,o),
(445,1165,o),
(300,1028,cs),
(155,891,o),
(71,706,o),
(71,486,cs),
(71,345,o),
(103,220,o),
(171,112,cs),
(240,4,o),
(328,-82,o),
(448,-142,c),
(567,-206,o),
(700,-234,o),
(856,-234,cs)
);
},
{
closed = 1;
nodes = (
(730,363,o),
(686,412,o),
(686,490,cs),
(686,540,o),
(699,581,o),
(726,610,c),
(751,640,o),
(784,655,o),
(828,655,cs),
(902,655,o),
(945,611,o),
(945,528,cs),
(945,478,o),
(932,438,o),
(907,409,c),
(880,379,o),
(844,363,o),
(800,363,cs)
);
}
);
width = 1689;
},
{
layerId = "549D2AD3-0DA6-49CF-9D11-873E4390D3BF";
shapes = (
{
closed = 1;
nodes = (
(1003,-234,o),
(1138,-208,o),
(1260,-158,c),
(1320,-135,o),
(1370,-105,o),
(1414,-74,c),
(1362,36,l),
(1287,-26,o),
(1178,-72,o),
(1057,-96,c),
(993,-111,o),
(934,-116,o),
(870,-116,cs),
(743,-116,o),
(633,-89,o),
(534,-40,c),
(437,13,o),
(364,81,o),
(310,174,c),
(253,264,o),
(228,366,o),
(228,487,cs),
(228,672,o),
(296,827,o),
(415,943,cs),
(535,1061,o),
(692,1125,o),
(881,1125,cs),
(1003,1125,o),
(1104,1104,o),
(1198,1056,cs),
(1289,1010,o),
(1358,944,o),
(1411,861,c),
(1461,778,o),
(1487,684,o),
(1487,573,cs),
(1487,445,o),
(1450,347,o),
(1387,295,cs),
(1354,267,o),
(1320,254,o),
(1279,254,cs),
(1232,254,o),
(1202,266,o),
(1183,292,c),
(1167,317,o),
(1158,356,o),
(1161,411,cs),
(1185,857,l),
(1059,857,l),
(1055,777,l),
(991,849,o),
(918,883,o),
(823,883,cs),
(756,883,o),
(697,866,o),
(643,831,cs),
(589,796,o),
(548,749,o),
(517,689,c),
(484,630,o),
(468,564,o),
(468,489,cs),
(468,353,o),
(527,248,o),
(621,184,c),
(670,156,o),
(720,139,o),
(782,139,cs),
(903,139,o),
(996,187,o),
(1054,277,c),
(1078,192,o),
(1148,139,o),
(1264,139,cs),
(1329,139,o),
(1387,157,o),
(1440,196,cs),
(1495,235,o),
(1538,285,o),
(1568,351,cs),
(1600,419,o),
(1615,492,o),
(1615,575,cs),
(1615,708,o),
(1585,820,o),
(1523,924,c),
(1459,1024,o),
(1374,1102,o),
(1263,1159,cs),
(1154,1215,o),
(1029,1242,o),
(882,1242,cs),
(657,1242,o),
(465,1165,o),
(323,1028,cs),
(181,891,o),
(99,705,o),
(99,485,cs),
(99,342,o),
(130,218,o),
(195,110,cs),
(261,2,o),
(348,-83,o),
(462,-143,cs),
(578,-205,o),
(709,-234,o),
(860,-234,cs)
);
},
{
closed = 1;
nodes = (
(683,269,o),
(615,346,o),
(615,486,cs),
(615,568,o),
(636,633,o),
(676,681,c),
(714,729,o),
(768,751,o),
(836,751,cs),
(960,751,o),
(1025,679,o),
(1025,538,cs),
(1025,453,o),
(1006,390,o),
(968,342,c),
(928,294,o),
(873,269,o),
(804,269,cs)
);
}
);
width = 1715;
},
{
layerId = "CD835F4B-8B2D-46BA-8F00-12B1EDA2331F";
shapes = (
{
closed = 1;
nodes = (
(1007,-234,o),
(1147,-207,o),
(1267,-159,c),
(1327,-137,o),
(1373,-108,o),
(1411,-80,c),
(1377,-15,l),
(1312,-74,o),
(1200,-120,o),
(1073,-144,c),
(1008,-159,o),
(947,-164,o),
(882,-164,cs),
(746,-164,o),
(629,-136,o),
(522,-82,c),
(419,-25,o),
(341,51,o),
(283,151,c),
(221,249,o),
(195,359,o),
(195,491,cs),
(195,687,o),
(268,852,o),
(396,977,c),
(523,1103,o),
(689,1172,o),
(889,1172,cs),
(1019,1172,o),
(1127,1148,o),
(1226,1096,cs),
(1325,1045,o),
(1398,973,o),
(1455,883,c),
(1509,793,o),
(1537,691,o),
(1537,571,cs),
(1537,424,o),
(1490,308,o),
(1412,244,c),
(1375,210,o),
(1335,194,o),
(1289,194,cs),
(1229,194,o),
(1195,209,o),
(1174,239,c),
(1157,269,o),
(1148,317,o),
(1151,386,cs),
(1175,867,l),
(1087,867,l),
(1083,770,l),
(1019,855,o),
(940,893,o),
(836,893,cs),
(772,893,o),
(713,876,o),
(661,839,cs),
(608,802,o),
(566,753,o),
(535,692,c),
(502,631,o),
(486,564,o),
(486,487,cs),
(486,350,o),
(543,242,o),
(634,176,c),
(682,147,o),
(729,129,o),
(788,129,cs),
(919,129,o),
(1029,188,o),
(1077,287,c),
(1088,191,o),
(1152,129,o),
(1276,129,cs),
(1339,129,o),
(1394,147,o),
(1446,186,cs),
(1497,225,o),
(1540,275,o),
(1568,343,c),
(1599,413,o),
(1613,488,o),
(1613,574,cs),
(1613,707,o),
(1582,818,o),
(1521,923,c),
(1458,1023,o),
(1373,1101,o),
(1264,1158,cs),
(1157,1214,o),
(1032,1242,o),
(888,1242,cs),
(666,1242,o),
(478,1164,o),
(338,1027,cs),
(197,890,o),
(118,704,o),
(118,484,cs),
(118,339,o),
(148,216,o),
(211,108,c),
(276,0,o),
(360,-83,o),
(472,-143,cs),
(584,-204,o),
(715,-234,o),
(863,-234,cs)
);
},
{
closed = 1;
nodes = (
(650,207,o),
(568,302,o),
(568,483,cs),
(568,587,o),
(594,668,o),
(641,728,cs),
(689,788,o),
(756,815,o),
(842,815,cs),
(998,815,o),
(1078,724,o),
(1078,544,cs),
(1078,437,o),
(1054,357,o),
(1008,297,c),
(960,237,o),
(892,207,o),
(807,207,cs)
);
}
);
width = 1731;
}
);
rightKerningGroup = _at;
unicode = 64;
},
{
glyphname = A;
layers = (
{
layerId = "CE4E9A76-E92C-4E6B-9275-59AAE218FE2B";
shapes = (
{
closed = 1;
nodes = (
(1,0,l),
(449,0,l),
(532,260,l),
(993,260,l),
(1074,0,l),
(1535,0,l),
(1011,1440,l),
(527,1440,l)
);
},
{
closed = 1;
nodes = (
(619,598,l),
(763,1018,l),
(903,598,l)
);
}
);
width = 1494;
},
{
layerId = "549D2AD3-0DA6-49CF-9D11-873E4390D3BF";
shapes = (
{
closed = 1;
nodes = (
(26,0,l),
(254,0,l),
(387,353,l),
(1016,353,l),
(1155,0,l),
(1389,0,l),
(809,1440,l),
(589,1440,l)
);
},
{
closed = 1;
nodes = (
(444,535,l),
(694,1188,l),
(957,535,l)
);
}
);
width = 1376;
},
{
layerId = "CD835F4B-8B2D-46BA-8F00-12B1EDA2331F";
shapes = (
{
closed = 1;
nodes = (
(42,0,l),
(124,0,l),
(290,416,l),
(1032,416,l),
(1209,0,l),
(1292,0,l),
(676,1440,l),
(631,1440,l)
);
},
{
closed = 1;
nodes = (
(327,491,l),
(649,1301,l),
(994,491,l)
);
}
);
width = 1298;
}
);
leftKerningGroup = _A2;
rightKerningGroup = _A;
unicode = 65;
},
{
glyphname = B;
layers = (
{
layerId = "CE4E9A76-E92C-4E6B-9275-59AAE218FE2B";
shapes = (
{
closed = 1;
nodes = (
(161,0,l),
(765,0,ls),
(996,0,o),
(1159,70,o),
(1249,202,cs),
(1293,270,o),
(1315,342,o),
(1315,433,cs),
(1315,519,o),
(1294,590,o),
(1249,656,cs),
(1203,722,o),
(1144,767,o),
(1065,795,c),
(1103,814,o),
(1138,838,o),
(1165,866,cs),
(1193,894,o),
(1215,921,o),
(1231,958,c),
(1245,995,o),
(1254,1032,o),
(1254,1073,cs),
(1254,1197,o),
(1210,1287,o),
(1120,1348,cs),
(1029,1409,o),
(914,1440,o),
(758,1440,cs),
(161,1440,l)
);
},
{
closed = 1;
nodes = (
(570,294,l),
(570,592,l),
(729,592,ls),
(833,592,o),
(890,536,o),
(890,443,cs),
(890,346,o),
(831,294,o),
(710,294,cs)
);
},
{
closed = 1;
nodes = (
(570,864,l),
(570,1146,l),
(700,1146,ls),
(805,1146,o),
(860,1096,o),
(860,1008,cs),
(860,947,o),
(835,903,o),
(788,881,c),
(766,870,o),
(738,864,o),
(706,864,cs)
);
}
);
width = 1351;
},
{
layerId = "549D2AD3-0DA6-49CF-9D11-873E4390D3BF";
shapes = (
{
closed = 1;
nodes = (
(192,0,l),
(699,0,ls),
(900,0,o),
(1044,73,o),
(1123,194,c),
(1161,257,o),
(1181,322,o),
(1181,401,cs),
(1181,495,o),
(1156,575,o),
(1103,638,cs),
(1048,705,o),
(985,747,o),
(903,768,c),
(943,782,o),
(978,806,o),
(1013,838,c),
(1048,869,o),
(1076,904,o),
(1099,945,c),
(1120,989,o),
(1131,1030,o),
(1131,1076,cs),
(1131,1198,o),
(1089,1287,o),
(1005,1348,cs),
(919,1409,o),
(813,1440,o),
(674,1440,cs),
(192,1440,l)
);
},
{
closed = 1;
nodes = (
(400,167,l),
(400,659,l),
(654,659,ls),
(869,659,o),
(966,573,o),
(966,412,cs),
(966,246,o),
(870,167,o),
(661,167,cs)
);
},
{
closed = 1;
nodes = (
(400,819,l),
(400,1273,l),
(636,1273,ls),
(826,1273,o),
(926,1197,o),
(926,1055,cs),
(926,955,o),
(878,885,o),
(792,848,cs),
(750,829,o),
(699,819,o),
(639,819,cs)
);
}
);
width = 1260;
},
{
layerId = "CD835F4B-8B2D-46BA-8F00-12B1EDA2331F";
shapes = (
{
closed = 1;
nodes = (
(211,0,l),
(653,0,ls),
(836,0,o),
(966,74,o),
(1039,188,c),
(1073,249,o),
(1091,308,o),
(1091,380,cs),
(1091,480,o),
(1065,565,o),
(1005,626,c),
(944,692,o),
(877,731,o),
(795,752,c),
(835,761,o),
(871,784,o),
(911,818,c),
(950,853,o),
(984,892,o),
(1011,937,c),
(1036,985,o),
(1049,1029,o),
(1049,1078,cs),
(1049,1198,o),
(1009,1287,o),
(927,1348,cs),
(848,1409,o),
(746,1440,o),
(617,1440,cs),
(211,1440,l)
);
},
{
closed = 1;
nodes = (
(287,84,l),
(287,705,l),
(605,705,ls),
(892,705,o),
(1019,596,o),
(1019,390,cs),
(1019,178,o),
(896,84,o),
(628,84,cs)
);
},
{
closed = 1;
nodes = (
(287,790,l),
(287,1356,l),
(594,1356,ls),
(838,1356,o),
(972,1263,o),
(972,1087,cs),
(972,961,o),
(906,873,o),
(794,826,cs),
(739,803,o),
(673,790,o),
(596,790,cs)
);
}
);
width = 1200;
}
);
leftKerningGroup = _B2;
rightKerningGroup = _B;
unicode = 66;
},
{
glyphname = C;
layers = (
{
layerId = "CE4E9A76-E92C-4E6B-9275-59AAE218FE2B";
shapes = (
{
closed = 1;
nodes = (
(970,-31,o),
(1079,-13,o),
(1174,18,c),
(1270,52,o),
(1347,93,o),
(1413,142,c),
(1227,483,l),
(1115,404,o),
(993,367,o),
(872,367,cs),
(717,367,o),
(604,426,o),
(546,532,cs),
(518,583,o),
(501,644,o),
(501,720,cs),
(501,829,o),
(534,915,o),
(598,978,cs),
(660,1040,o),
(749,1072,o),
(868,1072,cs),
(1000,1072,o),
(1107,1034,o),
(1181,950,c),
(1381,1286,l),
(1313,1344,o),
(1237,1389,o),
(1156,1423,c),
(1073,1453,o),
(969,1470,o),
(841,1470,cs),
(616,1470,o),
(430,1396,o),
(290,1260,cs),
(150,1124,o),
(72,940,o),
(72,714,cs),
(72,560,o),
(105,430,o),
(171,318,c),
(238,203,o),
(324,122,o),
(440,59,c),
(555,-2,o),
(686,-31,o),
(835,-31,cs)
);
}
);
width = 1406;
},
{
layerId = "549D2AD3-0DA6-49CF-9D11-873E4390D3BF";
shapes = (
{
closed = 1;
nodes = (
(955,-31,o),
(1050,-15,o),
(1139,11,c),
(1228,41,o),
(1305,82,o),
(1375,136,c),
(1279,312,l),
(1159,213,o),
(1025,171,o),
(873,171,cs),
(646,171,o),
(477,259,o),
(387,426,cs),
(343,506,o),
(320,603,o),
(320,721,cs),
(320,892,o),
(371,1027,o),
(468,1124,cs),
(562,1219,o),
(695,1270,o),
(862,1270,cs),
(1012,1270,o),
(1134,1231,o),
(1224,1145,c),
(1334,1315,l),
(1277,1365,o),
(1208,1403,o),
(1129,1431,c),
(1048,1457,o),
(954,1470,o),
(847,1470,cs),
(629,1470,o),
(447,1396,o),
(311,1260,c),
(178,1121,o),
(102,941,o),
(102,720,cs),
(102,568,o),
(133,439,o),
(196,326,c),
(259,209,o),
(342,128,o),
(454,62,c),
(569,1,o),
(696,-31,o),
(845,-31,cs)
);
}
);
width = 1396;
},
{
layerId = "CD835F4B-8B2D-46BA-8F00-12B1EDA2331F";
shapes = (
{
closed = 1;
nodes = (
(945,-31,o),
(1031,-16,o),
(1116,7,c),
(1200,34,o),
(1276,73,o),
(1351,133,c),
(1314,198,l),
(1186,88,o),
(1044,41,o),
(874,41,cs),
(598,41,o),
(393,147,o),
(282,354,cs),
(228,455,o),
(198,576,o),
(198,722,cs),
(198,934,o),
(263,1100,o),
(382,1220,c),
(496,1337,o),
(657,1400,o),
(858,1400,cs),
(1019,1400,o),
(1150,1362,o),
(1253,1275,c),
(1304,1334,l),
(1253,1377,o),
(1188,1411,o),
(1110,1435,cs),
(1032,1459,o),
(944,1470,o),
(850,1470,cs),
(637,1470,o),
(457,1395,o),
(327,1259,cs),
(194,1119,o),
(121,942,o),
(121,723,cs),
(121,571,o),
(149,445,o),
(211,329,cs),
(273,212,o),
(354,131,o),
(464,64,c),
(577,3,o),
(702,-31,o),
(851,-31,cs)
);
}
);
width = 1390;
}
);
leftKerningGroup = _C2;
rightKerningGroup = _C;
unicode = 67;
},
{
glyphname = D;
layers = (
{
layerId = "CE4E9A76-E92C-4E6B-9275-59AAE218FE2B";
shapes = (
{
closed = 1;
nodes = (
(161,0,l),
(681,0,ls),
(915,0,o),
(1100,70,o),
(1237,199,cs),
(1374,327,o),
(1447,501,o),
(1447,720,cs),
(1447,865,o),
(1418,990,o),
(1351,1096,c),
(1286,1204,o),
(1200,1288,o),
(1085,1349,c),
(965,1410,o),
(834,1440,o),
(681,1440,cs),
(161,1440,l)
);
},
{
closed = 1;
nodes = (
(570,381,l),
(570,1059,l),
(671,1059,ls),
(810,1059,o),
(915,1012,o),
(975,911,c),
(1004,860,o),
(1018,799,o),
(1018,720,cs),
(1018,606,o),
(986,524,o),
(922,465,c),
(859,409,o),
(776,381,o),
(671,381,cs)
);
}
);
width = 1478;
},
{
layerId = "549D2AD3-0DA6-49CF-9D11-873E4390D3BF";
shapes = (
{
closed = 1;
nodes = (
(192,0,l),
(633,0,ls),
(850,0,o),
(1025,76,o),
(1157,203,cs),
(1288,331,o),
(1359,506,o),
(1359,719,cs),
(1359,861,o),
(1330,987,o),
(1267,1093,cs),
(1203,1201,o),
(1121,1287,o),
(1012,1348,c),
(900,1409,o),
(775,1440,o),
(633,1440,cs),
(192,1440,l)
);
},
{
closed = 1;
nodes = (
(400,193,l),
(400,1246,l),
(604,1246,ls),
(824,1246,o),
(987,1160,o),
(1076,1002,c),
(1120,919,o),
(1143,829,o),
(1143,719,cs),
(1143,556,o),
(1090,428,o),
(995,336,cs),
(898,244,o),
(769,193,o),
(604,193,cs)
);
}
);
width = 1421;
},
{
layerId = "CD835F4B-8B2D-46BA-8F00-12B1EDA2331F";
shapes = (
{
closed = 1;
nodes = (
(211,0,l),
(603,0,ls),
(804,0,o),
(976,78,o),
(1102,205,cs),
(1230,334,o),
(1301,509,o),
(1301,718,cs),
(1301,858,o),
(1272,984,o),
(1210,1091,cs),
(1149,1199,o),
(1068,1286,o),
(962,1347,cs),
(857,1408,o),
(736,1440,o),
(603,1440,cs),
(211,1440,l)
);
},
{
closed = 1;
nodes = (
(287,69,l),
(287,1370,l),
(559,1370,ls),
(832,1370,o),
(1033,1258,o),
(1144,1060,c),
(1197,959,o),
(1224,849,o),
(1224,718,cs),
(1224,520,o),
(1161,364,o),
(1043,251,c),
(923,134,o),
(765,69,o),
(559,69,cs)
);
}
);
width = 1383;
}
);
leftKerningGroup = _B2;
rightKerningGroup = _D;
unicode = 68;
},
{
glyphname = E;
layers = (
{
layerId = "CE4E9A76-E92C-4E6B-9275-59AAE218FE2B";
shapes = (
{
closed = 1;
nodes = (
(161,0,l),
(1232,0,l),
(1232,355,l),
(570,355,l),
(570,571,l),
(1107,571,l),
(1107,893,l),
(570,893,l),
(570,1088,l),
(1224,1088,l),
(1224,1440,l),
(161,1440,l)
);
}
);
width = 1303;
},
{
layerId = "549D2AD3-0DA6-49CF-9D11-873E4390D3BF";
shapes = (
{
closed = 1;
nodes = (
(192,0,l),
(1112,0,l),
(1112,186,l),
(400,186,l),
(400,665,l),
(1013,665,l),
(1013,842,l),
(400,842,l),
(400,1254,l),
(1105,1254,l),
(1105,1440,l),
(192,1440,l)
);
}
);
width = 1218;
},
{
layerId = "CD835F4B-8B2D-46BA-8F00-12B1EDA2331F";
shapes = (
{
closed = 1;
nodes = (
(211,0,l),
(1034,0,l),
(1034,74,l),
(287,74,l),
(287,728,l),
(950,728,l),
(950,806,l),
(287,806,l),
(287,1365,l),
(1027,1365,l),
(1027,1440,l),
(211,1440,l)
);
}
);
width = 1161;
}
);
leftKerningGroup = _B2;
rightKerningGroup = _E;
unicode = 69;
},
{
glyphname = F;
layers = (
{
layerId = "CE4E9A76-E92C-4E6B-9275-59AAE218FE2B";
shapes = (
{
closed = 1;
nodes = (
(161,0,l),
(570,0,l),
(570,484,l),
(1081,484,l),
(1081,841,l),
(570,841,l),
(570,1067,l),
(1145,1067,l),
(1145,1440,l),
(161,1440,l)
);
}
);
width = 1214;
},
{
layerId = "549D2AD3-0DA6-49CF-9D11-873E4390D3BF";
shapes = (
{
closed = 1;
nodes = (
(192,0,l),
(400,0,l),
(400,624,l),
(1008,624,l),
(1008,811,l),
(400,811,l),
(400,1248,l),
(1069,1248,l),
(1069,1440,l),
(192,1440,l)
);
}
);
width = 1157;
},
{
layerId = "CD835F4B-8B2D-46BA-8F00-12B1EDA2331F";
shapes = (
{
closed = 1;
nodes = (
(211,0,l),
(287,0,l),
(287,719,l),
(958,719,l),
(958,792,l),
(287,792,l),
(287,1369,l),
(1020,1369,l),
(1020,1440,l),
(211,1440,l)
);
}
);
width = 1119;
}
);
leftKerningGroup = _B2;
rightKerningGroup = _F;
unicode = 70;
},
{
glyphname = G;
layers = (
{
layerId = "CE4E9A76-E92C-4E6B-9275-59AAE218FE2B";
shapes = (
{
closed = 1;
nodes = (
(945,-31,o),
(1001,-26,o),
(1067,-16,cs),
(1130,-8,o),
(1191,7,o),
(1252,23,c),
(1314,43,o),
(1368,62,o),
(1413,87,c),
(1413,857,l),
(782,857,l),
(782,538,l),
(1059,538,l),
(1059,339,l),
(1014,330,o),
(962,321,o),
(915,321,cs),
(763,321,o),
(630,377,o),
(552,494,cs),
(512,553,o),
(493,627,o),
(493,716,cs),
(493,841,o),
(531,933,o),
(601,1000,cs),
(673,1068,o),
(776,1103,o),
(905,1103,cs),
(1030,1103,o),
(1131,1075,o),
(1226,1014,c),
(1393,1327,l),
(1271,1406,o),
(1150,1443,o),
(1034,1459,cs),
(977,1466,o),
(926,1470,o),
(874,1470,cs),
(651,1470,o),
(458,1402,o),
(310,1270,cs),
(158,1137,o),
(72,954,o),
(72,720,cs),
(72,482,o),
(165,297,o),
(318,168,c),
(470,37,o),
(666,-31,o),
(889,-31,cs)
);
}
);
width = 1512;
},
{
layerId = "549D2AD3-0DA6-49CF-9D11-873E4390D3BF";
shapes = (
{
closed = 1;
nodes = (
(952,-31,o),
(1002,-26,o),
(1064,-16,cs),
(1123,-7,o),
(1180,9,o),
(1235,27,c),
(1292,47,o),
(1340,66,o),
(1374,93,c),
(1374,752,l),
(809,752,l),
(809,577,l),
(1185,577,l),
(1185,210,l),
(1132,183,o),
(1034,154,o),
(914,154,cs),
(677,154,o),
(495,244,o),
(393,412,cs),
(341,497,o),
(316,597,o),
(316,719,cs),
(316,894,o),
(372,1030,o),
(471,1127,cs),
(570,1225,o),
(710,1278,o),
(884,1278,cs),
(1014,1278,o),
(1139,1244,o),
(1245,1177,c),
(1337,1341,l),
(1247,1406,o),
(1146,1440,o),
(1038,1458,cs),
(985,1466,o),
(934,1470,o),
(881,1470,cs),
(652,1470,o),
(465,1398,o),
(325,1263,c),
(181,1130,o),
(102,946,o),
(102,717,cs),
(102,488,o),
(186,305,o),
(333,174,c),
(477,39,o),
(674,-31,o),
(903,-31,cs)
);
}
);
width = 1504;
},
{
layerId = "CD835F4B-8B2D-46BA-8F00-12B1EDA2331F";
shapes = (
{
closed = 1;
nodes = (
(955,-31,o),
(1003,-24,o),
(1061,-15,cs),
(1119,-6,o),
(1173,10,o),
(1225,29,c),
(1277,49,o),
(1321,69,o),
(1348,96,c),
(1348,682,l),
(829,682,l),
(829,602,l),
(1270,602,l),
(1270,127,l),
(1210,85,o),
(1082,43,o),
(913,43,cs),
(619,43,o),
(405,155,o),
(288,357,c),
(228,458,o),
(199,578,o),
(199,721,cs),
(199,930,o),
(267,1093,o),
(385,1211,cs),
(501,1330,o),
(665,1393,o),
(869,1393,cs),
(1003,1393,o),
(1145,1358,o),
(1258,1287,c),
(1298,1351,l),
(1232,1406,o),
(1143,1438,o),
(1041,1457,cs),
(989,1466,o),
(938,1470,o),
(885,1470,cs),
(653,1470,o),
(469,1395,o),
(334,1260,c),
(196,1124,o),
(121,940,o),
(121,715,cs),
(121,491,o),
(199,309,o),
(342,177,c),
(481,40,o),
(677,-31,o),
(914,-31,cs)
);
}
);
width = 1498;
}
);
leftKerningGroup = _C2;
rightKerningGroup = _G;
unicode = 71;
},
{
glyphname = H;
layers = (
{
layerId = "CE4E9A76-E92C-4E6B-9275-59AAE218FE2B";
shapes = (
{
closed = 1;
nodes = (
(161,0,l),
(570,0,l),
(570,558,l),
(1059,558,l),
(1059,0,l),
(1468,0,l),
(1468,1440,l),
(1059,1440,l),
(1059,929,l),
(570,929,l),
(570,1440,l),
(161,1440,l)
);
}
);
width = 1584;
},
{
layerId = "549D2AD3-0DA6-49CF-9D11-873E4390D3BF";
shapes = (
{
closed = 1;
nodes = (
(192,0,l),
(400,0,l),
(400,668,l),
(1123,668,l),
(1123,0,l),
(1332,0,l),
(1332,1440,l),
(1123,1440,l),
(1123,860,l),
(400,860,l),
(400,1440,l),
(192,1440,l)
);
}
);
width = 1482;
},
{
layerId = "CD835F4B-8B2D-46BA-8F00-12B1EDA2331F";
shapes = (
{
closed = 1;
nodes = (
(211,0,l),
(287,0,l),
(287,742,l),
(1166,742,l),
(1166,0,l),
(1241,0,l),
(1241,1440,l),
(1166,1440,l),
(1166,813,l),
(287,813,l),
(287,1440,l),
(211,1440,l)
);
}
);
width = 1413;
}
);
leftKerningGroup = _B2;
rightKerningGroup = _H;
unicode = 72;
},
{
glyphname = I;
layers = (
{
layerId = "CE4E9A76-E92C-4E6B-9275-59AAE218FE2B";
shapes = (
{
closed = 1;
nodes = (
(161,0,l),
(570,0,l),
(570,1440,l),
(161,1440,l)
);
}
);
width = 711;
},
{
layerId = "549D2AD3-0DA6-49CF-9D11-873E4390D3BF";
shapes = (
{
closed = 1;
nodes = (
(192,0,l),
(400,0,l),
(400,1440,l),
(192,1440,l)
);
}
);
width = 576;
},
{
layerId = "CD835F4B-8B2D-46BA-8F00-12B1EDA2331F";
shapes = (
{
closed = 1;
nodes = (
(208,0,l),
(290,0,l),
(290,1440,l),
(208,1440,l)
);
}
);
width = 487;
}
);
leftKerningGroup = _B2;
rightKerningGroup = _H;
unicode = 73;
},
{
glyphname = J;
layers = (
{
layerId = "CE4E9A76-E92C-4E6B-9275-59AAE218FE2B";
shapes = (
{
closed = 1;
nodes = (
(663,-31,o),
(821,54,o),
(907,205,c),
(947,280,o),
(968,359,o),
(968,459,cs),
(968,1440,l),
(560,1440,l),
(560,549,ls),
(560,407,o),
(488,341,o),
(376,341,cs),
(297,341,o),
(215,371,o),
(117,423,c),
(2,96,l),
(113,17,o),
(258,-31,o),
(434,-31,cs)
);
}
);
width = 1096;
},
{
layerId = "549D2AD3-0DA6-49CF-9D11-873E4390D3BF";
shapes = (
{
closed = 1;
nodes = (
(573,-31,o),
(710,41,o),
(781,173,c),
(815,239,o),
(833,311,o),
(833,399,cs),
(833,1440,l),
(625,1440,l),
(625,430,ls),
(625,241,o),
(528,160,o),
(347,160,cs),
(267,160,o),
(187,187,o),
(107,233,c),
(38,60,l),
(138,2,o),
(248,-31,o),
(372,-31,cs)
);
}
);
width = 995;
},
{
layerId = "CD835F4B-8B2D-46BA-8F00-12B1EDA2331F";
shapes = (
{
closed = 1;
nodes = (
(511,-31,o),
(634,32,o),
(698,151,cs),
(728,210,o),
(747,278,o),
(747,358,cs),
(747,1440,l),
(665,1440,l),
(665,350,ls),
(665,130,o),
(554,45,o),
(329,45,cs),
(245,45,o),
(167,69,o),
(101,111,c),
(60,38,l),
(153,-8,o),
(241,-31,o),
(331,-31,cs)
);
}
);
width = 928;
}
);
leftKerningGroup = _J2;
rightKerningGroup = _J;
unicode = 74;
},
{
glyphname = K;
layers = (
{
layerId = "CE4E9A76-E92C-4E6B-9275-59AAE218FE2B";
shapes = (
{
closed = 1;
nodes = (
(161,0,l),
(570,0,l),
(570,323,l),
(701,465,l),
(1044,0,l),
(1569,0,l),
(969,772,l),
(1505,1440,l),
(995,1440,l),
(570,899,l),
(570,1440,l),
(161,1440,l)
);
}
);
width = 1517;
},
{
layerId = "549D2AD3-0DA6-49CF-9D11-873E4390D3BF";
shapes = (
{
closed = 1;
nodes = (
(192,0,l),
(400,0,l),
(400,380,l),
(610,630,l),
(1085,0,l),
(1353,0,l),
(747,789,l),
(1273,1440,l),
(1016,1440,l),
(400,678,l),
(400,1440,l),
(192,1440,l)
);
}
);
width = 1376;
},
{
layerId = "CD835F4B-8B2D-46BA-8F00-12B1EDA2331F";
shapes = (
{
closed = 1;
nodes = (
(211,0,l),
(287,0,l),
(287,419,l),
(549,740,l),
(1110,0,l),
(1211,0,l),
(598,802,l),
(1117,1440,l),
(1032,1440,l),
(287,532,l),
(287,1440,l),
(211,1440,l)
);
}
);
width = 1282;
}
);
leftKerningGroup = _B2;
rightKerningGroup = _K;
unicode = 75;
},
{
glyphname = L;
layers = (
{
layerId = "CE4E9A76-E92C-4E6B-9275-59AAE218FE2B";
shapes = (
{
closed = 1;
nodes = (
(161,0,l),
(1118,0,l),
(1118,373,l),
(570,373,l),
(570,1440,l),
(161,1440,l)
);
}
);
width = 1148;
},
{
layerId = "549D2AD3-0DA6-49CF-9D11-873E4390D3BF";
shapes = (
{
closed = 1;
nodes = (
(192,0,l),
(1038,0,l),
(1038,191,l),
(400,191,l),
(400,1440,l),
(192,1440,l)
);
}
);
width = 1083;
},
{
layerId = "CD835F4B-8B2D-46BA-8F00-12B1EDA2331F";
shapes = (
{
closed = 1;
nodes = (
(211,0,l),
(984,0,l),
(984,70,l),
(287,70,l),
(287,1440,l),
(211,1440,l)
);
}
);
width = 1039;
}
);
leftKerningGroup = _B2;
rightKerningGroup = _L;
unicode = 76;
},
{
glyphname = M;
layers = (
{
layerId = "CE4E9A76-E92C-4E6B-9275-59AAE218FE2B";
shapes = (
{
closed = 1;
nodes = (
(161,0,l),
(536,0,l),
(528,925,l),
(457,900,l),
(848,247,l),
(1111,247,l),
(1482,900,l),
(1410,925,l),
(1403,0,l),
(1797,0,l),
(1797,1440,l),
(1405,1440,l),
(913,559,l),
(1076,561,l),
(554,1440,l),
(161,1440,l)
);
}
);
width = 1905;
},
{
layerId = "549D2AD3-0DA6-49CF-9D11-873E4390D3BF";
shapes = (
{
closed = 1;
nodes = (
(192,0,l),
(383,0,l),
(381,1159,l),
(346,1146,l),
(859,318,l),
(1015,318,l),
(1520,1146,l),
(1480,1159,l),
(1477,0,l),
(1680,0,l),
(1680,1440,l),
(1483,1440,l),
(909,474,l),
(990,474,l),
(394,1440,l),
(192,1440,l)
);
}
);
width = 1821;
},
{
layerId = "CD835F4B-8B2D-46BA-8F00-12B1EDA2331F";
shapes = (
{
closed = 1;
nodes = (
(211,0,l),
(281,0,l),
(282,1315,l),
(275,1309,l),
(866,366,l),
(951,366,l),
(1544,1309,l),
(1525,1315,l),
(1526,0,l),
(1603,0,l),
(1603,1440,l),
(1535,1440,l),
(906,418,l),
(930,417,l),
(287,1440,l),
(211,1440,l)
);
}
);
width = 1765;
}
);
leftKerningGroup = _B2;
rightKerningGroup = _H;
unicode = 77;
},
{
glyphname = N;
layers = (
{
layerId = "CE4E9A76-E92C-4E6B-9275-59AAE218FE2B";
shapes = (
{
closed = 1;
nodes = (
(161,0,l),
(556,0,l),
(556,796,l),
(1068,0,l),
(1476,0,l),
(1476,1440,l),
(1082,1440,l),
(1082,656,l),
(570,1440,l),
(161,1440,l)
);
}
);
width = 1593;
},
{
layerId = "549D2AD3-0DA6-49CF-9D11-873E4390D3BF";
shapes = (
{
closed = 1;
nodes = (
(192,0,l),
(396,0,l),
(396,1091,l),
(1149,0,l),
(1345,0,l),
(1345,1440,l),
(1142,1440,l),
(1142,361,l),
(389,1440,l),
(192,1440,l)
);
}
);
width = 1495;
},
{
layerId = "CD835F4B-8B2D-46BA-8F00-12B1EDA2331F";
shapes = (
{
closed = 1;
nodes = (
(211,0,l),
(289,0,l),
(289,1287,l),
(1203,0,l),
(1258,0,l),
(1258,1440,l),
(1182,1440,l),
(1182,165,l),
(269,1440,l),
(211,1440,l)
);
}
);
width = 1431;
}
);
leftKerningGroup = _B2;
rightKerningGroup = _H;
unicode = 78;
},
{
glyphname = O;
layers = (
{
layerId = "CE4E9A76-E92C-4E6B-9275-59AAE218FE2B";
shapes = (
{
closed = 1;
nodes = (
(1075,-31,o),
(1262,48,o),
(1403,185,cs),
(1543,322,o),
(1622,504,o),
(1622,720,cs),
(1622,932,o),
(1543,1115,o),
(1403,1252,cs),
(1262,1388,o),
(1075,1470,o),
(848,1470,cs),
(620,1470,o),
(433,1391,o),
(292,1255,cs),
(151,1119,o),
(72,936,o),
(72,720,cs),
(72,504,o),
(151,322,o),
(292,185,cs),
(433,48,o),
(620,-31,o),
(848,-31,cs)
);
},
{
closed = 1;
nodes = (
(779,351,o),
(720,365,o),
(669,396,c),
(617,427,o),
(575,469,o),
(547,525,c),
(518,580,o),
(501,644,o),
(501,720,cs),
(501,833,o),
(536,924,o),
(599,989,c),
(661,1056,o),
(746,1087,o),
(847,1087,cs),
(915,1087,o),
(977,1073,o),
(1028,1043,cs),
(1079,1013,o),
(1119,970,o),
(1149,915,cs),
(1180,860,o),
(1193,794,o),
(1193,720,cs),
(1193,606,o),
(1161,514,o),
(1097,450,cs),
(1034,388,o),
(948,351,o),
(847,351,cs)
);
}
);
width = 1649;
},
{
layerId = "549D2AD3-0DA6-49CF-9D11-873E4390D3BF";
shapes = (
{
closed = 1;
nodes = (
(1075,-31,o),
(1256,48,o),
(1395,185,cs),
(1533,322,o),
(1612,504,o),
(1612,720,cs),
(1612,932,o),
(1533,1115,o),
(1395,1252,cs),
(1256,1388,o),
(1075,1470,o),
(857,1470,cs),
(639,1470,o),
(457,1391,o),
(320,1255,cs),
(181,1119,o),
(102,936,o),
(102,720,cs),
(102,504,o),
(181,322,o),
(320,185,cs),
(457,48,o),
(639,-31,o),
(857,-31,cs)
);
},
{
closed = 1;
nodes = (
(755,166,o),
(666,189,o),
(585,236,c),
(503,281,o),
(440,344,o),
(392,428,cs),
(343,510,o),
(320,607,o),
(320,720,cs),
(320,889,o),
(377,1025,o),
(476,1122,cs),
(576,1220,o),
(704,1273,o),
(857,1273,cs),
(958,1273,o),
(1049,1249,o),
(1131,1204,cs),
(1212,1159,o),
(1274,1094,o),
(1323,1012,cs),
(1373,928,o),
(1394,832,o),
(1394,720,cs),
(1394,552,o),
(1339,414,o),
(1240,317,cs),
(1140,220,o),
(1011,166,o),
(857,166,cs)
);
}
);
width = 1668;
},
{
layerId = "CD835F4B-8B2D-46BA-8F00-12B1EDA2331F";
shapes = (
{
closed = 1;
nodes = (
(1075,-31,o),
(1252,48,o),
(1391,185,c),
(1527,322,o),
(1606,504,o),
(1606,720,cs),
(1606,932,o),
(1527,1115,o),
(1391,1252,c),
(1252,1388,o),
(1075,1470,o),
(864,1470,cs),
(651,1470,o),
(473,1391,o),
(336,1255,cs),
(200,1119,o),
(121,936,o),
(121,720,cs),
(121,504,o),
(200,322,o),
(336,185,cs),
(473,48,o),
(651,-31,o),
(864,-31,cs)
);
},
{
closed = 1;
nodes = (
(740,43,o),
(630,71,o),
(530,128,cs),
(429,183,o),
(350,263,o),
(288,363,cs),
(227,465,o),
(198,583,o),
(198,720,cs),
(198,926,o),
(269,1091,o),
(395,1210,c),
(517,1330,o),
(677,1395,o),
(864,1395,cs),
(987,1395,o),
(1097,1367,o),
(1198,1312,cs),
(1299,1256,o),
(1377,1176,o),
(1439,1075,cs),
(1502,974,o),
(1528,855,o),
(1528,720,cs),
(1528,514,o),
(1458,348,o),
(1335,230,cs),
(1211,110,o),
(1051,43,o),
(864,43,cs)
);
}
);
width = 1680;
}
);
leftKerningGroup = _C2;
rightKerningGroup = _D;
unicode = 79;
},
{
glyphname = P;
layers = (
{
layerId = "CE4E9A76-E92C-4E6B-9275-59AAE218FE2B";
shapes = (
{
closed = 1;
nodes = (
(161,0,l),
(570,0,l),
(570,448,l),
(763,448,ls),
(1012,448,o),
(1186,525,o),
(1278,677,c),
(1324,751,o),
(1345,837,o),
(1345,944,cs),
(1345,1156,o),
(1241,1304,o),
(1068,1382,cs),
(981,1421,o),
(884,1440,o),
(773,1440,cs),
(161,1440,l)
);
},
{
closed = 1;
nodes = (
(570,786,l),
(570,1092,l),
(749,1092,ls),
(804,1092,o),
(851,1082,o),
(884,1059,c),
(919,1036,o),
(937,997,o),
(937,938,cs),
(937,825,o),
(866,786,o),
(747,786,cs)
);
}
);
width = 1349;
},
{
layerId = "549D2AD3-0DA6-49CF-9D11-873E4390D3BF";
shapes = (
{
closed = 1;
nodes = (
(192,0,l),
(400,0,l),
(400,568,l),
(698,568,ls),
(922,568,o),
(1075,634,o),
(1159,767,c),
(1199,832,o),
(1218,909,o),
(1218,1003,cs),
(1218,1188,o),
(1128,1318,o),
(972,1389,c),
(893,1423,o),
(805,1440,o),
(703,1440,cs),
(192,1440,l)
);
},
{
closed = 1;
nodes = (
(400,749,l),
(400,1255,l),
(705,1255,ls),
(798,1255,o),
(872,1235,o),
(928,1190,cs),
(986,1143,o),
(1010,1081,o),
(1010,998,cs),
(1010,832,o),
(899,749,o),
(703,749,cs)
);
}
);
width = 1260;
},
{
layerId = "CD835F4B-8B2D-46BA-8F00-12B1EDA2331F";
shapes = (
{
closed = 1;
nodes = (
(211,0,l),
(287,0,l),
(287,646,l),
(654,646,ls),
(862,646,o),
(1004,707,o),
(1080,826,c),
(1115,886,o),
(1135,957,o),
(1135,1042,cs),
(1135,1209,o),
(1052,1328,o),
(907,1392,cs),
(834,1424,o),
(753,1440,o),
(654,1440,cs),
(211,1440,l)
);
},
{
closed = 1;
nodes = (
(287,724,l),
(287,1365,l),
(676,1365,ls),
(795,1365,o),
(888,1336,o),
(957,1276,c),
(1028,1213,o),
(1059,1138,o),
(1059,1038,cs),
(1059,835,o),
(920,724,o),
(674,724,cs)
);
}
);
width = 1200;
}
);
leftKerningGroup = _B2;
rightKerningGroup = _P;
unicode = 80;
},
{
glyphname = Q;
layers = (
{
layerId = "CE4E9A76-E92C-4E6B-9275-59AAE218FE2B";
shapes = (
{
closed = 1;
nodes = (
(1046,93,l),
(1130,-33,o),
(1317,-156,o),
(1514,-216,c),
(1691,126,l),
(1524,180,o),
(1364,282,o),
(1246,411,c)
);
},
{
closed = 1;
nodes = (
(1075,-31,o),
(1262,48,o),
(1403,185,cs),
(1543,322,o),
(1622,504,o),
(1622,720,cs),
(1622,932,o),
(1543,1115,o),
(1403,1252,cs),
(1262,1388,o),
(1075,1470,o),
(848,1470,cs),
(620,1470,o),
(433,1391,o),
(292,1255,cs),
(151,1119,o),
(72,936,o),
(72,720,cs),
(72,504,o),
(151,322,o),
(292,185,cs),
(433,48,o),
(620,-31,o),
(848,-31,cs)
);
},
{
closed = 1;
nodes = (
(779,351,o),
(720,365,o),
(669,396,c),
(617,427,o),
(575,469,o),
(547,525,c),
(518,580,o),
(501,644,o),
(501,720,cs),
(501,833,o),
(536,924,o),
(599,989,c),
(661,1056,o),
(746,1087,o),
(847,1087,cs),
(915,1087,o),
(977,1073,o),
(1028,1043,cs),
(1079,1013,o),
(1119,970,o),
(1149,915,cs),
(1180,860,o),
(1193,794,o),
(1193,720,cs),
(1193,606,o),
(1161,514,o),
(1097,450,cs),
(1034,388,o),
(948,351,o),
(847,351,cs)
);
}
);
width = 1649;
},
{
layerId = "549D2AD3-0DA6-49CF-9D11-873E4390D3BF";
shapes = (
{
closed = 1;
nodes = (
(1091,81,l),
(1205,-44,o),
(1356,-140,o),
(1552,-209,c),
(1645,-33,l),
(1454,31,o),
(1316,116,o),
(1207,235,c)
);
},
{
closed = 1;
nodes = (
(1075,-31,o),
(1256,48,o),
(1395,185,cs),
(1533,322,o),
(1612,504,o),
(1612,720,cs),
(1612,932,o),
(1533,1115,o),
(1395,1252,cs),
(1256,1388,o),
(1075,1470,o),
(857,1470,cs),
(639,1470,o),
(457,1391,o),
(320,1255,cs),
(181,1119,o),
(102,936,o),
(102,720,cs),
(102,504,o),
(181,322,o),
(320,185,cs),
(457,48,o),
(639,-31,o),
(857,-31,cs)
);
},
{
closed = 1;
nodes = (
(755,166,o),
(666,189,o),
(585,236,c),
(503,281,o),
(440,344,o),
(392,428,cs),
(343,510,o),
(320,607,o),
(320,720,cs),
(320,889,o),
(377,1025,o),
(476,1122,cs),
(576,1220,o),
(704,1273,o),
(857,1273,cs),
(958,1273,o),
(1049,1249,o),
(1131,1204,cs),
(1212,1159,o),
(1274,1094,o),
(1323,1012,cs),
(1373,928,o),
(1394,832,o),
(1394,720,cs),
(1394,552,o),
(1339,414,o),
(1240,317,cs),
(1140,220,o),
(1011,166,o),
(857,166,cs)
);
}
);
width = 1668;
},
{
layerId = "CD835F4B-8B2D-46BA-8F00-12B1EDA2331F";
shapes = (
{
closed = 1;
nodes = (
(1121,71,l),
(1254,-50,o),
(1381,-128,o),
(1577,-203,c),
(1614,-138,l),
(1405,-67,o),
(1282,5,o),
(1181,116,c)
);
},
{
closed = 1;
nodes = (
(1075,-31,o),
(1252,48,o),
(1391,185,c),
(1527,322,o),
(1606,504,o),
(1606,720,cs),
(1606,932,o),
(1527,1115,o),
(1391,1252,c),
(1252,1388,o),
(1075,1470,o),
(864,1470,cs),
(651,1470,o),
(473,1391,o),
(336,1255,cs),
(200,1119,o),
(121,936,o),
(121,720,cs),
(121,504,o),
(200,322,o),
(336,185,cs),
(473,48,o),
(651,-31,o),
(864,-31,cs)
);
},
{
closed = 1;
nodes = (
(740,43,o),
(630,71,o),
(530,128,cs),
(429,183,o),
(350,263,o),
(288,363,cs),
(227,465,o),
(198,583,o),
(198,720,cs),
(198,926,o),
(269,1091,o),
(395,1210,c),
(517,1330,o),
(677,1395,o),
(864,1395,cs),
(987,1395,o),
(1097,1367,o),
(1198,1312,cs),
(1299,1256,o),
(1377,1176,o),
(1439,1075,cs),
(1502,974,o),
(1528,855,o),
(1528,720,cs),
(1528,514,o),
(1458,348,o),
(1335,230,cs),
(1211,110,o),
(1051,43,o),
(864,43,cs)
);
}
);
width = 1680;
}
);
leftKerningGroup = _C2;
unicode = 81;
},
{
glyphname = R;
layers = (
{
layerId = "CE4E9A76-E92C-4E6B-9275-59AAE218FE2B";
shapes = (
{
closed = 1;
nodes = (
(161,0,l),
(570,0,l),
(570,498,l),
(654,498,l),
(928,0,l),
(1409,0,l),
(1051,589,l),
(1153,629,o),
(1240,702,o),
(1291,808,c),
(1314,862,o),
(1327,922,o),
(1327,993,cs),
(1327,1186,o),
(1232,1318,o),
(1064,1388,cs),
(979,1423,o),
(884,1440,o),
(770,1440,cs),
(161,1440,l)
);
},
{
closed = 1;
nodes = (
(570,821,l),
(570,1107,l),
(729,1107,ls),
(788,1107,o),
(833,1098,o),
(866,1076,c),
(897,1055,o),
(914,1017,o),
(914,963,cs),
(914,911,o),
(897,875,o),
(866,854,c),
(831,831,o),
(785,821,o),
(727,821,cs)
);
}
);
width = 1407;
},
{
layerId = "549D2AD3-0DA6-49CF-9D11-873E4390D3BF";
shapes = (
{
closed = 1;
nodes = (
(192,0,l),
(400,0,l),
(400,590,l),
(610,590,l),
(1023,0,l),
(1278,0,l),
(833,620,l),
(988,643,o),
(1099,716,o),
(1163,826,c),
(1193,882,o),
(1208,943,o),
(1208,1016,cs),
(1208,1193,o),
(1129,1320,o),
(986,1389,c),
(910,1423,o),
(829,1440,o),
(728,1440,cs),
(192,1440,l)
);
},
{
closed = 1;
nodes = (
(400,766,l),
(400,1260,l),
(709,1260,ls),
(807,1260,o),
(880,1240,o),
(928,1194,c),
(974,1147,o),
(999,1087,o),
(999,1007,cs),
(999,930,o),
(972,872,o),
(919,831,cs),
(863,786,o),
(789,766,o),
(691,766,cs)
);
}
);
width = 1322;
},
{
layerId = "CD835F4B-8B2D-46BA-8F00-12B1EDA2331F";
shapes = (
{
closed = 1;
nodes = (
(211,0,l),
(287,0,l),
(287,652,l),
(581,652,l),
(1086,0,l),
(1189,0,l),
(688,639,l),
(876,653,o),
(1006,725,o),
(1078,838,c),
(1112,896,o),
(1131,956,o),
(1131,1032,cs),
(1131,1196,o),
(1059,1320,o),
(930,1389,c),
(864,1423,o),
(792,1440,o),
(701,1440,cs),
(211,1440,l)
);
},
{
closed = 1;
nodes = (
(287,730,l),
(287,1362,l),
(696,1362,ls),
(819,1362,o),
(912,1335,o),
(969,1272,cs),
(1026,1208,o),
(1055,1133,o),
(1055,1036,cs),
(1055,943,o),
(1021,870,o),
(955,815,cs),
(884,758,o),
(792,730,o),
(667,730,cs)
);
}
);
width = 1265;
}
);
leftKerningGroup = _B2;
rightKerningGroup = _R;
unicode = 82;
},
{
glyphname = S;
layers = (
{
layerId = "CE4E9A76-E92C-4E6B-9275-59AAE218FE2B";
shapes = (
{
closed = 1;
nodes = (
(986,-31,o),
(1278,122,o),
(1278,450,cs),
(1278,713,o),
(1062,815,o),
(840,879,cs),
(733,910,ls),
(685,924,o),
(535,953,o),
(535,1025,cs),
(535,1106,o),
(654,1131,o),
(718,1131,cs),
(830,1131,o),
(998,1078,o),
(1072,985,c),
(1270,1279,l),
(1122,1417,o),
(903,1470,o),
(706,1470,cs),
(437,1470,o),
(141,1309,o),
(141,1008,cs),
(141,745,o),
(347,624,o),
(575,562,cs),
(683,534,l),
(746,518,o),
(880,490,o),
(880,404,cs),
(880,323,o),
(744,309,o),
(686,309,cs),
(557,309,o),
(354,369,o),
(266,473,c),
(79,171,l),
(236,32,o),
(479,-31,o),
(686,-31,cs)
);
}
);
width = 1296;
},
{
layerId = "549D2AD3-0DA6-49CF-9D11-873E4390D3BF";
shapes = (
{
closed = 1;
nodes = (
(930,-31,o),
(1183,94,o),
(1183,395,cs),
(1183,632,o),
(1009,728,o),
(804,787,cs),
(642,835,ls),
(530,869,o),
(357,917,o),
(357,1063,cs),
(357,1235,o),
(522,1290,o),
(665,1290,cs),
(781,1290,o),
(948,1248,o),
(1034,1163,c),
(1142,1319,l),
(1002,1428,o),
(854,1470,o),
(678,1470,cs),
(422,1470,o),
(160,1339,o),
(160,1051,cs),
(160,820,o),
(346,720,o),
(544,660,c),
(697,617,ls),
(821,583,o),
(984,531,o),
(984,376,cs),
(984,198,o),
(799,150,o),
(654,150,cs),
(513,150,o),
(345,197,o),
(236,291,c),
(134,130,l),
(271,17,o),
(480,-31,o),
(653,-31,cs)
);
}
);
width = 1253;
},
{
layerId = "CD835F4B-8B2D-46BA-8F00-12B1EDA2331F";
shapes = (
{
closed = 1;
nodes = (
(888,-31,o),
(1121,76,o),
(1121,357,cs),
(1121,574,o),
(973,671,o),
(782,726,c),
(582,785,ls),
(424,833,o),
(241,894,o),
(241,1087,cs),
(241,1317,o),
(433,1396,o),
(629,1396,cs),
(746,1396,o),
(917,1360,o),
(1010,1281,c),
(1058,1344,l),
(929,1431,o),
(814,1470,o),
(657,1470,cs),
(411,1470,o),
(173,1358,o),
(173,1080,cs),
(173,870,o),
(346,780,o),
(525,727,cs),
(706,673,l),
(872,626,o),
(1052,555,o),
(1052,355,cs),
(1052,118,o),
(837,45,o),
(635,45,cs),
(488,45,o),
(337,85,o),
(215,169,c),
(169,102,l),
(289,8,o),
(483,-31,o),
(632,-31,cs)
);
}
);
width = 1225;
}
);
leftKerningGroup = _S2;
rightKerningGroup = _S;
unicode = 83;
},
{
glyphname = T;
layers = (
{
layerId = "CE4E9A76-E92C-4E6B-9275-59AAE218FE2B";
shapes = (
{
closed = 1;
nodes = (
(403,0,l),
(813,0,l),
(813,1067,l),
(1186,1067,l),
(1186,1440,l),
(32,1440,l),
(32,1067,l),
(403,1067,l)
);
}
);
width = 1184;
},
{
layerId = "549D2AD3-0DA6-49CF-9D11-873E4390D3BF";
shapes = (
{
closed = 1;
nodes = (
(469,0,l),
(678,0,l),
(678,1248,l),
(1087,1248,l),
(1087,1440,l),
(59,1440,l),
(59,1248,l),
(469,1248,l)
);
}
);
width = 1115;
},
{
layerId = "CD835F4B-8B2D-46BA-8F00-12B1EDA2331F";
shapes = (
{
closed = 1;
nodes = (
(512,0,l),
(587,0,l),
(587,1369,l),
(1021,1369,l),
(1021,1440,l),
(79,1440,l),
(79,1369,l),
(512,1369,l)
);
}
);
width = 1068;
}
);
leftKerningGroup = _T2;
rightKerningGroup = _T;
unicode = 84;
},
{
glyphname = U;
layers = (
{
layerId = "CE4E9A76-E92C-4E6B-9275-59AAE218FE2B";
shapes = (
{
closed = 1;
nodes = (
(932,-31,o),
(1048,-5,o),
(1144,52,c),
(1237,106,o),
(1309,180,o),
(1357,278,cs),
(1405,377,o),
(1431,483,o),
(1431,611,cs),
(1431,1440,l),
(1020,1440,l),
(1020,589,ls),
(1020,508,o),
(1001,451,o),
(959,411,cs),
(921,373,o),
(864,351,o),
(793,351,cs),
(717,351,o),
(663,373,o),
(622,411,c),
(582,451,o),
(564,509,o),
(564,589,cs),
(564,1440,l),
(155,1440,l),
(155,611,ls),
(155,483,o),
(180,375,o),
(229,276,cs),
(277,178,o),
(346,108,o),
(442,50,c),
(538,-4,o),
(652,-31,o),
(793,-31,cs)
);
}
);
width = 1540;
},
{
layerId = "549D2AD3-0DA6-49CF-9D11-873E4390D3BF";
shapes = (
{
closed = 1;
nodes = (
(889,-31,o),
(992,-6,o),
(1077,49,c),
(1163,100,o),
(1227,170,o),
(1269,259,cs),
(1312,349,o),
(1334,445,o),
(1334,556,cs),
(1334,1440,l),
(1125,1440,l),
(1125,561,ls),
(1125,426,o),
(1092,332,o),
(1025,265,cs),
(959,198,o),
(870,166,o),
(759,166,cs),
(644,166,o),
(559,198,o),
(490,265,c),
(424,332,o),
(392,427,o),
(392,561,cs),
(392,1440,l),
(184,1440,l),
(184,556,ls),
(184,445,o),
(205,347,o),
(249,258,c),
(291,167,o),
(353,102,o),
(439,47,c),
(527,-5,o),
(629,-31,o),
(759,-31,cs)
);
}
);
width = 1473;
},
{
layerId = "CD835F4B-8B2D-46BA-8F00-12B1EDA2331F";
shapes = (
{
closed = 1;
nodes = (
(859,-31,o),
(952,-6,o),
(1033,46,c),
(1113,96,o),
(1171,162,o),
(1210,247,cs),
(1249,331,o),
(1269,420,o),
(1269,518,cs),
(1269,1440,l),
(1194,1440,l),
(1194,541,ls),
(1194,371,o),
(1154,253,o),
(1068,166,cs),
(985,83,o),
(873,43,o),
(736,43,cs),
(595,43,o),
(487,83,o),
(403,166,cs),
(319,253,o),
(278,371,o),
(278,541,cs),
(278,1440,l),
(202,1440,l),
(202,518,ls),
(202,420,o),
(222,331,o),
(261,246,cs),
(300,161,o),
(356,98,o),
(437,45,c),
(519,-6,o),
(614,-31,o),
(736,-31,cs)
);
}
);
width = 1429;
}
);
leftKerningGroup = _U;
rightKerningGroup = _J;
unicode = 85;
},
{
glyphname = V;
layers = (
{
layerId = "CE4E9A76-E92C-4E6B-9275-59AAE218FE2B";
shapes = (
{
closed = 1;
nodes = (
(500,0,l),
(975,0,l),
(1493,1440,l),
(1041,1440,l),
(742,510,l),
(443,1440,l),
(-17,1440,l)
);
}
);
width = 1436;
},
{
layerId = "549D2AD3-0DA6-49CF-9D11-873E4390D3BF";
shapes = (
{
closed = 1;
nodes = (
(574,0,l),
(790,0,l),
(1333,1440,l),
(1103,1440,l),
(686,282,l),
(250,1440,l),
(16,1440,l)
);
}
);
width = 1311;
},
{
layerId = "CD835F4B-8B2D-46BA-8F00-12B1EDA2331F";
shapes = (
{
closed = 1;
nodes = (
(623,0,l),
(668,0,l),
(1225,1440,l),
(1146,1440,l),
(646,131,l),
(122,1440,l),
(38,1440,l)
);
}
);
width = 1229;
}
);
leftKerningGroup = _V2;
rightKerningGroup = _V;
unicode = 86;
},
{
glyphname = W;
layers = (
{
layerId = "CE4E9A76-E92C-4E6B-9275-59AAE218FE2B";
shapes = (
{
closed = 1;
nodes = (
(462,0,l),
(849,0,l),
(1078,840,l),
(1308,0,l),
(1699,0,l),
(2139,1440,l),
(1729,1440,l),
(1519,623,l),
(1288,1440,l),
(884,1440,l),
(652,623,l),
(442,1440,l),
(21,1440,l)
);
}
);
width = 2102;
},
{
layerId = "549D2AD3-0DA6-49CF-9D11-873E4390D3BF";
shapes = (
{
closed = 1;
nodes = (
(485,0,l),
(710,0,l),
(1047,1125,l),
(1379,0,l),
(1605,0,l),
(2036,1440,l),
(1823,1440,l),
(1497,283,l),
(1158,1440,l),
(939,1440,l),
(597,282,l),
(272,1440,l),
(52,1440,l)
);
}
);
width = 2031;
},
{
layerId = "CD835F4B-8B2D-46BA-8F00-12B1EDA2331F";
shapes = (
{
closed = 1;
nodes = (
(500,0,l),
(618,0,l),
(1025,1316,l),
(1428,0,l),
(1542,0,l),
(1968,1440,l),
(1886,1440,l),
(1482,55,l),
(1072,1440,l),
(975,1440,l),
(562,53,l),
(157,1440,l),
(71,1440,l)
);
}
);
width = 1984;
}
);
leftKerningGroup = _V2;
rightKerningGroup = _V;
unicode = 87;
},
{
glyphname = X;
layers = (
{
layerId = "CE4E9A76-E92C-4E6B-9275-59AAE218FE2B";
shapes = (
{
closed = 1;
nodes = (
(16,0,l),
(500,0,l),
(724,420,l),
(948,0,l),
(1445,0,l),
(1019,724,l),
(1439,1440,l),
(957,1440,l),
(740,1044,l),
(524,1440,l),
(31,1440,l),
(449,730,l)
);
}
);
width = 1421;
},
{
layerId = "549D2AD3-0DA6-49CF-9D11-873E4390D3BF";
shapes = (
{
closed = 1;
nodes = (
(60,0,l),
(302,0,l),
(673,585,l),
(1059,0,l),
(1309,0,l),
(824,732,l),
(1294,1440,l),
(1054,1440,l),
(682,891,l),
(335,1440,l),
(87,1440,l),
(532,738,l)
);
}
);
width = 1332;
},
{
layerId = "CD835F4B-8B2D-46BA-8F00-12B1EDA2331F";
shapes = (
{
closed = 1;
nodes = (
(90,0,l),
(170,0,l),
(637,696,l),
(1134,0,l),
(1218,0,l),
(693,738,l),
(1197,1440,l),
(1117,1440,l),
(642,788,l),
(208,1440,l),
(124,1440,l),
(586,745,l)
);
}
);
width = 1272;
}
);
leftKerningGroup = _X2;
rightKerningGroup = _X;
unicode = 88;
},
{
glyphname = Y;
layers = (
{
layerId = "CE4E9A76-E92C-4E6B-9275-59AAE218FE2B";
shapes = (
{
closed = 1;
nodes = (
(483,0,l),
(894,0,l),
(894,585,l),
(1395,1440,l),
(952,1440,l),
(696,980,l),
(436,1440,l),
(-19,1440,l),
(483,589,l)
);
}
);
width = 1338;
},
{
layerId = "549D2AD3-0DA6-49CF-9D11-873E4390D3BF";
shapes = (
{
closed = 1;
nodes = (
(528,0,l),
(736,0,l),
(736,624,l),
(1245,1440,l),
(1012,1440,l),
(636,827,l),
(258,1440,l),
(18,1440,l),
(528,625,l)
);
}
);
width = 1229;
},
{
layerId = "CD835F4B-8B2D-46BA-8F00-12B1EDA2331F";
shapes = (
{
closed = 1;
nodes = (
(557,0,l),
(631,0,l),
(631,650,l),
(1145,1440,l),
(1052,1440,l),
(597,725,l),
(140,1440,l),
(43,1440,l),
(557,649,l)
);
}
);
width = 1156;
}
);
leftKerningGroup = _Y2;
rightKerningGroup = _Y;
unicode = 89;
},
{
glyphname = Z;
layers = (
{
layerId = "CE4E9A76-E92C-4E6B-9275-59AAE218FE2B";
shapes = (
{
closed = 1;
nodes = (
(73,0,l),
(1155,0,l),
(1155,373,l),
(572,373,l),
(1150,1102,l),
(1150,1440,l),
(98,1440,l),
(98,1067,l),
(655,1067,l),
(73,339,l)
);
}
);
width = 1189;
},
{
layerId = "549D2AD3-0DA6-49CF-9D11-873E4390D3BF";
shapes = (
{
closed = 1;
nodes = (
(98,0,l),
(1111,0,l),
(1111,191,l),
(350,191,l),
(1104,1265,l),
(1104,1440,l),
(122,1440,l),
(122,1248,l),
(854,1248,l),
(98,174,l)
);
}
);
width = 1166;
},
{
layerId = "CD835F4B-8B2D-46BA-8F00-12B1EDA2331F";
shapes = (
{
closed = 1;
nodes = (
(114,0,l),
(1083,0,l),
(1083,70,l),
(204,70,l),
(1074,1376,l),
(1074,1440,l),
(137,1440,l),
(137,1369,l),
(987,1369,l),
(114,63,l)
);
}
);
width = 1151;
}
);
leftKerningGroup = _Z2;
rightKerningGroup = _Z;
unicode = 90;
},
{
glyphname = bracketleft;
layers = (
{
layerId = "CE4E9A76-E92C-4E6B-9275-59AAE218FE2B";
shapes = (
{
closed = 1;
nodes = (
(152,-220,l),
(663,-220,l),
(663,42,l),
(463,42,l),
(463,1338,l),
(663,1338,l),
(663,1600,l),
(152,1600,l)
);
}
);
width = 730;
},
{
layerId = "549D2AD3-0DA6-49CF-9D11-873E4390D3BF";
shapes = (
{
closed = 1;
nodes = (
(202,-220,l),
(572,-220,l),
(572,-73,l),
(367,-73,l),
(367,1453,l),
(572,1453,l),
(572,1600,l),
(202,1600,l)
);
}
);
width = 686;
},
{
layerId = "CD835F4B-8B2D-46BA-8F00-12B1EDA2331F";
shapes = (
{
closed = 1;
nodes = (
(236,-220,l),
(512,-220,l),
(512,-149,l),
(303,-149,l),
(303,1529,l),
(512,1529,l),
(512,1600,l),
(236,1600,l)
);
}
);
width = 657;
}
);
leftKerningGroup = _bar2;
rightKerningGroup = _parenleft;
unicode = 91;
},
{
glyphname = backslash;
layers = (
{
layerId = "CE4E9A76-E92C-4E6B-9275-59AAE218FE2B";
shapes = (
{
closed = 1;
nodes = (
(659,-230,l),
(975,-106,l),
(288,1610,l),
(-29,1486,l)
);
}
);
width = 947;
},
{
layerId = "549D2AD3-0DA6-49CF-9D11-873E4390D3BF";
shapes = (
{
closed = 1;
nodes = (
(737,-230,l),
(904,-164,l),
(172,1610,l),
(5,1544,l)
);
}
);
width = 909;
},
{
layerId = "CD835F4B-8B2D-46BA-8F00-12B1EDA2331F";
shapes = (
{
closed = 1;
nodes = (
(790,-230,l),
(856,-203,l),
(95,1610,l),
(27,1583,l)
);
}
);
width = 884;
}
);
unicode = 92;
},
{
glyphname = bracketright;
layers = (
{
layerId = "CE4E9A76-E92C-4E6B-9275-59AAE218FE2B";
shapes = (
{
closed = 1;
nodes = (
(579,-220,l),
(579,1600,l),
(68,1600,l),
(68,1338,l),
(268,1338,l),
(268,42,l),
(68,42,l),
(68,-220,l)
);
}
);
width = 730;
},
{
layerId = "549D2AD3-0DA6-49CF-9D11-873E4390D3BF";
shapes = (
{
closed = 1;
nodes = (
(484,-220,l),
(484,1600,l),
(114,1600,l),
(114,1453,l),
(319,1453,l),
(319,-73,l),
(114,-73,l),
(114,-220,l)
);
}
);
width = 686;
},
{
layerId = "CD835F4B-8B2D-46BA-8F00-12B1EDA2331F";
shapes = (
{
closed = 1;
nodes = (
(421,-220,l),
(421,1600,l),
(145,1600,l),
(145,1529,l),
(354,1529,l),
(354,-149,l),
(145,-149,l),
(145,-220,l)
);
}
);
width = 657;
}
);
leftKerningGroup = _parenright;
rightKerningGroup = _bar;
unicode = 93;
},
{
glyphname = asciicircum;
layers = (
{
layerId = "CE4E9A76-E92C-4E6B-9275-59AAE218FE2B";
shapes = (
{
closed = 1;
nodes = (
(136,806,l),
(474,806,l),
(666,1170,l),
(859,806,l),
(1197,806,l),
(851,1440,l),
(482,1440,l)
);
}
);
width = 1296;
},
{
layerId = "549D2AD3-0DA6-49CF-9D11-873E4390D3BF";
shapes = (
{
closed = 1;
nodes = (
(198,854,l),
(392,854,l),
(666,1293,l),
(941,854,l),
(1135,854,l),
(768,1440,l),
(565,1440,l)
);
}
);
width = 1296;
},
{
layerId = "CD835F4B-8B2D-46BA-8F00-12B1EDA2331F";
shapes = (
{
closed = 1;
nodes = (
(241,885,l),
(337,885,l),
(666,1374,l),
(996,885,l),
(1092,885,l),
(714,1440,l),
(619,1440,l)
);
}
);
width = 1296;
}
);
leftKerningGroup = _plus2;
rightKerningGroup = _plus;
unicode = 94;
},
{
glyphname = underscore;
layers = (
{
layerId = "CE4E9A76-E92C-4E6B-9275-59AAE218FE2B";
shapes = (
{
closed = 1;
nodes = (
(20,-405,l),
(1118,-405,l),
(1118,-94,l),
(20,-94,l)
);
}
);
width = 1138;
},
{
layerId = "549D2AD3-0DA6-49CF-9D11-873E4390D3BF";
shapes = (
{
closed = 1;
nodes = (
(27,-320,l),
(1057,-320,l),
(1057,-161,l),
(27,-161,l)
);
}
);
width = 1084;
},
{
layerId = "CD835F4B-8B2D-46BA-8F00-12B1EDA2331F";
shapes = (
{
closed = 1;
nodes = (
(31,-263,l),
(1016,-263,l),
(1016,-205,l),
(31,-205,l)
);
}
);
width = 1048;
}
);
unicode = 95;
},
{
glyphname = a;
layers = (
{
layerId = "CE4E9A76-E92C-4E6B-9275-59AAE218FE2B";
shapes = (
{
closed = 1;
nodes = (
(573,-30,o),
(723,25,o),
(801,156,c),
(736,158,l),
(736,157,l),
(736,8,o),
(931,-28,o),
(1073,-28,cs),
(1098,-28,o),
(1119,-25,o),
(1144,-18,c),
(1171,232,l),
(1169,232,o),
(1167,232,o),
(1165,232,cs),
(1091,232,o),
(1086,290,o),
(1086,354,cs),
(1086,612,ls),
(1086,939,o),
(862,1070,o),
(570,1070,cs),
(412,1070,o),
(246,1029,o),
(107,944,c),
(205,682,l),
(286,743,o),
(393,774,o),
(502,774,cs),
(624,774,o),
(712,736,o),
(712,606,cs),
(712,401,ls),
(712,293,o),
(633,246,o),
(536,246,cs),
(462,246,o),
(415,272,o),
(415,331,cs),
(415,419,o),
(534,432,o),
(603,432,cs),
(652,432,o),
(708,425,o),
(766,412,c),
(764,647,l),
(708,652,o),
(655,654,o),
(605,654,cs),
(376,654,o),
(58,598,o),
(58,308,cs),
(58,90,o),
(223,-30,o),
(424,-30,cs)
);
}
);
width = 1202;
},
{
layerId = "549D2AD3-0DA6-49CF-9D11-873E4390D3BF";
shapes = (
{
closed = 1;
nodes = (
(621,-30,o),
(769,33,o),
(842,159,c),
(811,211,l),
(811,184,ls),
(811,35,o),
(935,-29,o),
(1075,-29,cs),
(1085,-29,o),
(1093,-29,o),
(1103,-26,c),
(1123,132,l),
(1120,132,o),
(1117,132,o),
(1115,132,cs),
(1011,132,o),
(1003,214,o),
(1003,301,cs),
(1003,663,ls),
(1003,956,o),
(812,1070,o),
(549,1070,cs),
(420,1070,o),
(277,1040,o),
(149,951,c),
(210,795,l),
(310,869,o),
(415,898,o),
(526,898,cs),
(686,898,o),
(804,828,o),
(804,661,cs),
(804,386,ls),
(804,216,o),
(651,135,o),
(502,135,cs),
(367,135,o),
(287,194,o),
(287,305,cs),
(287,457,o),
(479,489,o),
(637,489,cs),
(722,489,o),
(805,479,o),
(860,470,c),
(855,617,l),
(793,625,o),
(718,630,o),
(639,630,cs),
(395,630,o),
(93,573,o),
(93,297,cs),
(93,75,o),
(255,-30,o),
(456,-30,cs)
);
}
);
width = 1156;
},
{
layerId = "CD835F4B-8B2D-46BA-8F00-12B1EDA2331F";
shapes = (
{
closed = 1;
nodes = (
(654,-30,o),
(800,37,o),
(869,161,c),
(861,246,l),
(861,200,ls),
(861,51,o),
(937,-30,o),
(1076,-30,c),
(1076,-30,o),
(1077,-31,o),
(1076,-32,c),
(1090,65,l),
(1086,65,o),
(1083,65,o),
(1081,65,cs),
(957,65,o),
(947,163,o),
(947,265,cs),
(947,697,ls),
(947,968,o),
(778,1070,o),
(534,1070,cs),
(426,1070,o),
(298,1046,o),
(176,954,c),
(213,870,l),
(326,951,o),
(430,980,o),
(542,980,cs),
(728,980,o),
(865,889,o),
(865,697,cs),
(865,376,ls),
(865,165,o),
(663,62,o),
(479,62,cs),
(304,62,o),
(202,141,o),
(202,289,cs),
(202,482,o),
(441,527,o),
(658,527,cs),
(769,527,o),
(869,515,o),
(922,509,c),
(915,598,l),
(850,606,o),
(760,614,o),
(661,614,cs),
(407,614,o),
(115,557,o),
(115,290,cs),
(115,65,o),
(276,-30,o),
(477,-30,cs)
);
}
);
width = 1126;
}
);
leftKerningGroup = _a2;
rightKerningGroup = _a;
unicode = 97;
},
{
glyphname = b;
layers = (
{
layerId = "CE4E9A76-E92C-4E6B-9275-59AAE218FE2B";
shapes = (
{
closed = 1;
nodes = (
(948,-30,o),
(1071,22,o),
(1167,119,c),
(1259,215,o),
(1313,349,o),
(1313,520,cs),
(1313,628,o),
(1293,718,o),
(1246,803,c),
(1202,887,o),
(1142,950,o),
(1062,999,c),
(981,1046,o),
(895,1070,o),
(791,1070,cs),
(718,1070,o),
(655,1058,o),
(594,1029,c),
(533,1002,o),
(478,959,o),
(430,898,c),
(521,808,l),
(521,1440,l),
(129,1440,l),
(129,0,l),
(464,0,l),
(464,281,l),
(411,193,l),
(447,103,o),
(523,35,o),
(628,-2,c),
(679,-22,o),
(734,-30,o),
(799,-30,cs)
);
},
{
closed = 1;
nodes = (
(648,305,o),
(585,340,o),
(549,406,c),
(529,438,o),
(521,476,o),
(521,520,cs),
(521,610,o),
(559,676,o),
(621,710,cs),
(654,727,o),
(686,735,o),
(726,735,cs),
(805,735,o),
(870,702,o),
(906,635,c),
(923,605,o),
(931,564,o),
(931,520,cs),
(931,430,o),
(893,367,o),
(831,331,cs),
(801,314,o),
(766,305,o),
(726,305,cs)
);
}
);
width = 1364;
},
{
layerId = "549D2AD3-0DA6-49CF-9D11-873E4390D3BF";
shapes = (
{
closed = 1;
nodes = (
(916,-30,o),
(1044,26,o),
(1140,128,cs),
(1234,228,o),
(1285,363,o),
(1285,520,cs),
(1285,625,o),
(1265,713,o),
(1219,799,cs),
(1175,882,o),
(1114,948,o),
(1035,999,c),
(953,1047,o),
(867,1070,o),
(759,1070,cs),
(659,1070,o),
(579,1052,o),
(506,1010,cs),
(435,968,o),
(378,915,o),
(330,845,c),
(372,799,l),
(372,1440,l),
(167,1440,l),
(167,0,l),
(354,0,l),
(354,256,l),
(324,211,l),
(379,117,o),
(460,42,o),
(574,0,c),
(629,-22,o),
(691,-30,o),
(762,-30,cs)
);
},
{
closed = 1;
nodes = (
(587,153,o),
(481,212,o),
(419,326,c),
(387,381,o),
(372,443,o),
(372,520,cs),
(372,673,o),
(435,785,o),
(542,843,cs),
(597,873,o),
(655,886,o),
(725,886,cs),
(863,886,o),
(971,830,o),
(1034,716,cs),
(1064,662,o),
(1077,597,o),
(1077,520,cs),
(1077,367,o),
(1016,260,o),
(906,198,c),
(855,168,o),
(794,153,o),
(725,153,cs)
);
}
);
width = 1360;
},
{
layerId = "CD835F4B-8B2D-46BA-8F00-12B1EDA2331F";
shapes = (
{
closed = 1;
nodes = (
(895,-30,o),
(1026,29,o),
(1122,134,c),
(1218,236,o),
(1266,371,o),
(1266,520,cs),
(1266,623,o),
(1246,710,o),
(1200,796,cs),
(1156,879,o),
(1095,946,o),
(1017,999,c),
(934,1048,o),
(848,1070,o),
(738,1070,cs),
(619,1070,o),
(528,1049,o),
(447,997,c),
(371,945,o),
(311,886,o),
(264,809,c),
(271,793,l),
(271,1440,l),
(192,1440,l),
(192,0,l),
(281,0,l),
(281,240,l),
(267,223,l),
(332,125,o),
(418,45,o),
(536,2,c),
(594,-22,o),
(663,-30,o),
(737,-30,cs)
);
},
{
closed = 1;
nodes = (
(545,52,o),
(411,128,o),
(332,272,c),
(291,342,o),
(271,422,o),
(271,520,cs),
(271,715,o),
(353,857,o),
(489,931,cs),
(559,971,o),
(634,987,o),
(724,987,cs),
(902,987,o),
(1038,914,o),
(1118,770,cs),
(1158,700,o),
(1175,618,o),
(1175,520,cs),
(1175,325,o),
(1097,188,o),
(957,110,c),
(891,70,o),
(813,52,o),
(724,52,cs)
);
}
);
width = 1357;
}
);
leftKerningGroup = _b2;
rightKerningGroup = _b;
unicode = 98;
},
{
glyphname = c;
layers = (
{
layerId = "CE4E9A76-E92C-4E6B-9275-59AAE218FE2B";
shapes = (
{
closed = 1;
nodes = (
(712,-30,o),
(790,-18,o),
(869,10,c),
(949,34,o),
(1016,69,o),
(1076,114,c),
(926,411,l),
(887,376,o),
(849,350,o),
(806,331,c),
(763,315,o),
(721,305,o),
(673,305,cs),
(600,305,o),
(543,324,o),
(502,362,c),
(458,400,o),
(439,453,o),
(439,520,cs),
(439,611,o),
(476,676,o),
(546,712,c),
(583,727,o),
(623,735,o),
(672,735,cs),
(756,735,o),
(832,707,o),
(900,644,c),
(1068,933,l),
(955,1025,o),
(814,1070,o),
(644,1070,cs),
(474,1070,o),
(331,1013,o),
(223,913,cs),
(114,813,o),
(51,677,o),
(51,520,cs),
(51,416,o),
(77,324,o),
(129,240,c),
(180,155,o),
(248,90,o),
(335,43,cs),
(423,-5,o),
(519,-30,o),
(632,-30,cs)
);
}
);
width = 1105;
},
{
layerId = "549D2AD3-0DA6-49CF-9D11-873E4390D3BF";
shapes = (
{
closed = 1;
nodes = (
(713,-30,o),
(780,-22,o),
(846,5,c),
(912,28,o),
(970,59,o),
(1026,101,c),
(923,256,l),
(892,227,o),
(856,202,o),
(807,182,cs),
(760,163,o),
(711,153,o),
(657,153,cs),
(542,153,o),
(453,185,o),
(387,251,c),
(318,316,o),
(285,407,o),
(285,521,cs),
(285,678,o),
(348,786,o),
(459,847,c),
(516,873,o),
(580,886,o),
(658,886,cs),
(753,886,o),
(840,860,o),
(904,804,c),
(1007,962,l),
(909,1039,o),
(796,1070,o),
(656,1070,cs),
(488,1070,o),
(347,1017,o),
(242,917,cs),
(135,817,o),
(76,680,o),
(76,520,cs),
(76,416,o),
(100,321,o),
(150,238,c),
(198,152,o),
(264,89,o),
(349,42,c),
(434,-7,o),
(530,-30,o),
(640,-30,cs)
);
}
);
width = 1084;
},
{
layerId = "CD835F4B-8B2D-46BA-8F00-12B1EDA2331F";
shapes = (
{
closed = 1;
nodes = (
(713,-30,o),
(773,-24,o),
(830,2,c),
(888,24,o),
(940,53,o),
(991,92,c),
(920,154,l),
(895,128,o),
(860,103,o),
(808,81,c),
(758,62,o),
(704,52,o),
(647,52,cs),
(503,52,o),
(393,92,o),
(310,176,cs),
(224,260,o),
(183,377,o),
(183,522,cs),
(183,722,o),
(262,859,o),
(402,935,c),
(472,969,o),
(552,987,o),
(649,987,cs),
(751,987,o),
(846,961,o),
(907,911,c),
(965,981,l),
(877,1048,o),
(784,1070,o),
(663,1070,cs),
(498,1070,o),
(357,1019,o),
(254,920,cs),
(150,820,o),
(92,682,o),
(92,520,cs),
(92,415,o),
(115,319,o),
(163,236,c),
(210,150,o),
(274,88,o),
(357,41,c),
(440,-8,o),
(536,-30,o),
(644,-30,cs)
);
}
);
width = 1069;
}
);
leftKerningGroup = _c2;
rightKerningGroup = _c;
unicode = 99;
},
{
glyphname = d;
layers = (
{
layerId = "CE4E9A76-E92C-4E6B-9275-59AAE218FE2B";
shapes = (
{
closed = 1;
nodes = (
(659,-30,o),
(740,-9,o),
(812,31,c),
(880,72,o),
(928,124,o),
(953,192,c),
(900,281,l),
(900,0,l),
(1235,0,l),
(1235,1440,l),
(841,1440,l),
(841,808,l),
(933,898,l),
(885,960,o),
(832,1002,o),
(772,1029,cs),
(711,1058,o),
(646,1070,o),
(573,1070,cs),
(420,1070,o),
(294,1014,o),
(198,914,c),
(106,814,o),
(51,680,o),
(51,520,cs),
(51,407,o),
(73,311,o),
(120,227,c),
(164,143,o),
(223,82,o),
(303,38,c),
(383,-9,o),
(468,-30,o),
(565,-30,cs)
);
},
{
closed = 1;
nodes = (
(560,305,o),
(497,340,o),
(461,406,c),
(441,438,o),
(433,476,o),
(433,520,cs),
(433,610,o),
(471,676,o),
(533,710,cs),
(566,727,o),
(598,735,o),
(638,735,cs),
(717,735,o),
(782,702,o),
(817,635,c),
(835,605,o),
(843,564,o),
(843,520,cs),
(843,430,o),
(805,367,o),
(743,331,cs),
(713,314,o),
(678,305,o),
(638,305,cs)
);
}
);
width = 1364;
},
{
layerId = "549D2AD3-0DA6-49CF-9D11-873E4390D3BF";
shapes = (
{
closed = 1;
nodes = (
(709,-30,o),
(801,-9,o),
(872,35,cs),
(941,78,o),
(997,132,o),
(1035,199,c),
(1006,246,l),
(1006,0,l),
(1193,0,l),
(1193,1440,l),
(988,1440,l),
(988,805,l),
(1029,851,l),
(983,920,o),
(925,972,o),
(856,1013,cs),
(785,1054,o),
(701,1070,o),
(601,1070,cs),
(445,1070,o),
(318,1015,o),
(222,912,c),
(130,809,o),
(76,675,o),
(76,520,cs),
(76,416,o),
(97,322,o),
(144,239,c),
(187,156,o),
(248,91,o),
(327,42,cs),
(409,-9,o),
(496,-30,o),
(599,-30,cs)
);
},
{
closed = 1;
nodes = (
(498,153,o),
(393,212,o),
(330,326,c),
(298,381,o),
(284,443,o),
(284,520,cs),
(284,673,o),
(346,785,o),
(453,843,cs),
(509,873,o),
(566,886,o),
(636,886,cs),
(775,886,o),
(883,830,o),
(945,716,cs),
(975,662,o),
(989,597,o),
(989,520,cs),
(989,367,o),
(927,260,o),
(818,198,cs),
(767,168,o),
(706,153,o),
(636,153,cs)
);
}
);
width = 1360;
},
{
layerId = "CD835F4B-8B2D-46BA-8F00-12B1EDA2331F";
shapes = (
{
closed = 1;
nodes = (
(743,-30,o),
(842,-9,o),
(912,37,cs),
(981,81,o),
(1044,138,o),
(1090,202,c),
(1076,223,l),
(1076,0,l),
(1165,0,l),
(1165,1440,l),
(1086,1440,l),
(1086,803,l),
(1093,819,l),
(1048,895,o),
(986,953,o),
(912,1001,cs),
(835,1051,o),
(739,1070,o),
(619,1070,cs),
(461,1070,o),
(333,1015,o),
(238,910,c),
(146,806,o),
(92,672,o),
(92,520,cs),
(92,422,o),
(112,329,o),
(159,246,c),
(202,164,o),
(264,97,o),
(343,45,cs),
(425,-8,o),
(514,-30,o),
(620,-30,cs)
);
},
{
closed = 1;
nodes = (
(456,52,o),
(323,128,o),
(243,272,cs),
(202,342,o),
(183,422,o),
(183,520,cs),
(183,715,o),
(264,857,o),
(400,931,cs),
(470,971,o),
(545,987,o),
(634,987,cs),
(814,987,o),
(949,914,o),
(1029,770,cs),
(1068,700,o),
(1085,618,o),
(1085,520,cs),
(1085,325,o),
(1008,188,o),
(868,110,c),
(802,70,o),
(724,52,o),
(634,52,cs)
);
}
);
width = 1357;
}
);
leftKerningGroup = _c2;
rightKerningGroup = _d;
unicode = 100;
},
{
glyphname = e;
layers = (
{
layerId = "CE4E9A76-E92C-4E6B-9275-59AAE218FE2B";
shapes = (
{
closed = 1;
nodes = (
(740,-30,o),
(865,-5,o),
(970,34,c),
(1025,53,o),
(1064,77,o),
(1095,98,c),
(980,358,l),
(927,327,o),
(874,304,o),
(818,289,cs),
(762,274,o),
(704,266,o),
(640,266,cs),
(550,266,o),
(479,293,o),
(439,335,cs),
(419,357,o),
(407,384,o),
(404,410,c),
(1157,410,l),
(1195,603,o),
(1158,759,o),
(1061,883,cs),
(966,1003,o),
(820,1070,o),
(628,1070,cs),
(456,1070,o),
(319,1015,o),
(214,918,c),
(110,818,o),
(51,683,o),
(51,522,cs),
(51,299,o),
(149,132,o),
(328,40,c),
(416,-8,o),
(515,-30,o),
(632,-30,cs)
);
},
{
closed = 1;
nodes = (
(429,667,l),
(432,706,o),
(451,735,o),
(488,760,cs),
(522,784,o),
(564,794,o),
(616,794,cs),
(669,794,o),
(710,784,o),
(739,760,c),
(772,735,o),
(787,706,o),
(787,667,c)
);
}
);
width = 1222;
},
{
layerId = "549D2AD3-0DA6-49CF-9D11-873E4390D3BF";
shapes = (
{
closed = 1;
nodes = (
(733,-30,o),
(838,-12,o),
(930,27,c),
(980,47,o),
(1018,72,o),
(1052,98,c),
(967,248,l),
(925,214,o),
(876,187,o),
(821,168,cs),
(766,149,o),
(709,141,o),
(650,141,cs),
(493,141,o),
(379,200,o),
(318,301,c),
(291,353,o),
(276,412,o),
(277,478,c),
(1120,478,l),
(1142,651,o),
(1104,792,o),
(1014,903,cs),
(927,1011,o),
(795,1070,o),
(622,1070,cs),
(464,1070,o),
(333,1015,o),
(231,916,c),
(134,813,o),
(76,679,o),
(76,518,cs),
(76,297,o),
(173,130,o),
(345,39,c),
(430,-9,o),
(526,-30,o),
(637,-30,cs)
);
},
{
closed = 1;
nodes = (
(288,634,l),
(297,721,o),
(330,785,o),
(393,835,c),
(452,885,o),
(527,904,o),
(619,904,cs),
(713,904,o),
(784,885,o),
(835,835,cs),
(888,785,o),
(914,721,o),
(916,634,c)
);
}
);
width = 1202;
},
{
layerId = "CD835F4B-8B2D-46BA-8F00-12B1EDA2331F";
shapes = (
{
closed = 1;
nodes = (
(729,-30,o),
(819,-16,o),
(905,23,cs),
(950,43,o),
(988,69,o),
(1024,97,c),
(959,175,l),
(923,139,o),
(877,109,o),
(823,89,c),
(768,67,o),
(712,59,o),
(656,59,cs),
(455,59,o),
(313,138,o),
(239,279,c),
(206,350,o),
(189,430,o),
(193,522,c),
(1095,522,l),
(1107,683,o),
(1068,813,o),
(982,915,c),
(902,1017,o),
(779,1070,o),
(619,1070,cs),
(468,1070,o),
(342,1015,o),
(243,914,c),
(149,810,o),
(92,676,o),
(92,515,cs),
(92,295,o),
(189,128,o),
(357,38,c),
(440,-10,o),
(533,-30,o),
(640,-30,cs)
);
},
{
closed = 1;
nodes = (
(193,613,l),
(208,731,o),
(251,819,o),
(330,886,cs),
(405,951,o),
(502,977,o),
(621,977,cs),
(742,977,o),
(834,951,o),
(898,886,cs),
(964,819,o),
(997,731,o),
(1001,613,c)
);
}
);
width = 1189;
}
);
leftKerningGroup = _c2;
rightKerningGroup = _b;
unicode = 101;
},
{
glyphname = f;
layers = (
{
layerId = "CE4E9A76-E92C-4E6B-9275-59AAE218FE2B";
shapes = (
{
closed = 1;
nodes = (
(206,0,l),
(599,0,l),
(599,733,l),
(842,733,l),
(842,1040,l),
(599,1040,l),
(599,1067,ls),
(599,1093,o),
(607,1113,o),
(627,1128,c),
(645,1143,o),
(669,1149,o),
(702,1149,cs),
(734,1149,o),
(769,1144,o),
(806,1121,c),
(860,1416,l),
(777,1457,o),
(698,1470,o),
(614,1470,cs),
(480,1470,o),
(383,1437,o),
(311,1366,cs),
(240,1294,o),
(206,1205,o),
(206,1089,cs)
);
},
{
closed = 1;
nodes = (
(40,733,l),
(238,733,l),
(238,1040,l),
(40,1040,l)
);
}
);
width = 880;
},
{
layerId = "549D2AD3-0DA6-49CF-9D11-873E4390D3BF";
shapes = (
{
closed = 1;
nodes = (
(257,0,l),
(454,0,l),
(454,874,l),
(716,874,l),
(716,1040,l),
(454,1040,l),
(454,1152,ls),
(454,1205,o),
(467,1242,o),
(496,1264,cs),
(523,1286,o),
(554,1297,o),
(597,1297,cs),
(631,1297,o),
(668,1290,o),
(706,1269,c),
(745,1427,l),
(698,1454,o),
(641,1470,o),
(568,1470,cs),
(471,1470,o),
(397,1444,o),
(341,1387,cs),
(286,1332,o),
(257,1257,o),
(257,1160,cs)
);
},
{
closed = 1;
nodes = (
(54,874,l),
(285,874,l),
(285,1040,l),
(54,1040,l)
);
}
);
width = 765;
},
{
layerId = "569D7504-F8AD-45DF-A259-5E25FBF02AE5";
associatedMasterId = "CD835F4B-8B2D-46BA-8F00-12B1EDA2331F";
name = 1;
shapes = (
{
closed = 1;
nodes = (
(291,0,l),
(360,0,l),
(360,966,l),
(634,966,l),
(634,1040,l),
(360,1040,l),
(360,1208,ls),
(360,1279,o),
(375,1327,o),
(409,1354,cs),
(442,1380,o),
(479,1393,o),
(528,1393,cs),
(563,1393,o),
(600,1384,o),
(641,1365,c),
(670,1434,l),
(646,1452,o),
(604,1470,o),
(538,1470,cs),
(465,1470,o),
(406,1447,o),
(360,1402,c),
(316,1356,o),
(291,1291,o),
(291,1207,cs)
);
},
{
closed = 1;
nodes = (
(63,966,l),
(316,966,l),
(316,1040,l),
(63,1040,l)
);
}
);
width = 690;
},
{
layerId = "CD835F4B-8B2D-46BA-8F00-12B1EDA2331F";
shapes = (
{
closed = 1;
nodes = (
(289,0,l),
(368,0,l),
(368,958,l),
(641,958,l),
(641,1040,l),
(368,1040,l),
(368,1204,ls),
(368,1273,o),
(383,1320,o),
(416,1347,c),
(449,1372,o),
(485,1385,o),
(533,1385,cs),
(568,1385,o),
(605,1376,o),
(646,1357,c),
(676,1433,l),
(650,1452,o),
(606,1470,o),
(541,1470,cs),
(466,1470,o),
(405,1447,o),
(358,1401,c),
(313,1354,o),
(289,1289,o),
(289,1204,cs)
);
},
{
closed = 1;
nodes = (
(62,958,l),
(313,958,l),
(313,1040,l),
(62,1040,l)
);
}
);
width = 696;
}
);
leftKerningGroup = _f2;
rightKerningGroup = _f;
unicode = 102;
},
{
glyphname = g;
layers = (
{
layerId = "CE4E9A76-E92C-4E6B-9275-59AAE218FE2B";
shapes = (
{
closed = 1;
nodes = (
(726,-450,o),
(881,-412,o),
(993,-344,cs),
(1106,-275,o),
(1167,-181,o),
(1167,-73,cs),
(1167,56,o),
(1093,133,o),
(964,174,c),
(900,197,o),
(829,210,o),
(741,217,c),
(563,233,ls),
(516,237,o),
(488,244,o),
(472,252,c),
(457,263,o),
(450,272,o),
(450,282,cs),
(450,302,o),
(467,317,o),
(508,326,c),
(530,327,o),
(557,332,o),
(592,329,c),
(527,469,l),
(418,474,o),
(324,445,o),
(252,397,cs),
(180,350,o),
(138,289,o),
(138,220,cs),
(138,149,o),
(172,92,o),
(249,45,c),
(156,25,o),
(87,-18,o),
(50,-78,cs),
(31,-109,o),
(22,-138,o),
(22,-172,cs),
(22,-257,o),
(73,-326,o),
(160,-375,c),
(252,-424,o),
(374,-450,o),
(531,-450,cs)
);
},
{
closed = 1;
nodes = (
(496,-211,o),
(424,-196,o),
(384,-170,c),
(365,-156,o),
(355,-140,o),
(355,-122,cs),
(355,-96,o),
(373,-74,o),
(411,-59,cs),
(429,-52,o),
(451,-47,o),
(476,-44,c),
(678,-60,ls),
(778,-68,o),
(814,-84,o),
(814,-126,cs),
(814,-154,o),
(791,-176,o),
(747,-191,cs),
(709,-204,o),
(659,-211,o),
(594,-211,cs)
);
},
{
closed = 1;
nodes = (
(766,321,o),
(908,393,o),
(988,509,c),
(1028,564,o),
(1047,627,o),
(1047,696,cs),
(1047,837,o),
(964,953,o),
(819,1021,cs),
(748,1054,o),
(670,1070,o),
(574,1070,cs),
(387,1070,o),
(241,999,o),
(161,886,cs),
(118,826,o),
(99,765,o),
(99,696,cs),
(99,552,o),
(180,439,o),
(325,371,c),
(398,338,o),
(478,321,o),
(574,321,cs)
);
},
{
closed = 1;
nodes = (
(530,577,o),
(495,590,o),
(466,611,cs),
(437,633,o),
(420,660,o),
(420,696,cs),
(420,745,o),
(451,781,o),
(497,800,c),
(519,811,o),
(545,815,o),
(574,815,cs),
(618,815,o),
(654,804,o),
(683,783,c),
(714,761,o),
(728,732,o),
(728,696,cs),
(728,651,o),
(697,613,o),
(651,593,c),
(629,581,o),
(603,577,o),
(574,577,cs)
);
},
{
closed = 1;
nodes = (
(1187,733,l),
(1227,1040,l),
(577,1040,l),
(678,832,l),
(801,797,o),
(901,772,o),
(985,757,cs),
(1067,741,o),
(1133,733,o),
(1186,733,cs)
);
}
);
width = 1249;
},
{
layerId = "549D2AD3-0DA6-49CF-9D11-873E4390D3BF";
shapes = (
{
closed = 1;
nodes = (
(733,-450,o),
(872,-413,o),
(972,-351,c),
(1072,-286,o),
(1127,-198,o),
(1127,-100,cs),
(1127,19,o),
(1062,94,o),
(940,136,c),
(880,158,o),
(808,170,o),
(719,177,cs),
(544,192,ls),
(494,196,o),
(456,205,o),
(427,214,c),
(398,226,o),
(383,244,o),
(383,268,cs),
(383,307,o),
(420,334,o),
(482,350,c),
(516,356,o),
(551,361,o),
(596,360,c),
(548,453,l),
(446,447,o),
(362,419,o),
(299,379,cs),
(238,339,o),
(203,290,o),
(203,231,cs),
(203,165,o),
(243,114,o),
(324,73,c),
(214,51,o),
(138,6,o),
(98,-57,c),
(79,-90,o),
(69,-121,o),
(69,-158,cs),
(69,-247,o),
(116,-319,o),
(202,-370,cs),
(289,-422,o),
(409,-450,o),
(564,-450,cs)
);
},
{
closed = 1;
nodes = (
(449,-306,o),
(354,-276,o),
(301,-224,c),
(276,-198,o),
(262,-168,o),
(262,-135,cs),
(262,-76,o),
(297,-31,o),
(368,-4,cs),
(402,9,o),
(439,18,o),
(488,21,c),
(675,8,ls),
(849,-4,o),
(929,-47,o),
(929,-128,cs),
(929,-181,o),
(898,-223,o),
(835,-256,cs),
(773,-289,o),
(690,-306,o),
(581,-306,cs)
);
},
{
closed = 1;
nodes = (
(746,342,o),
(882,413,o),
(962,524,c),
(1002,577,o),
(1020,639,o),
(1020,707,cs),
(1020,844,o),
(937,957,o),
(801,1022,c),
(735,1055,o),
(661,1070,o),
(575,1070,cs),
(407,1070,o),
(270,1003,o),
(190,892,cs),
(149,835,o),
(130,775,o),
(130,707,cs),
(130,568,o),
(212,457,o),
(348,392,cs),
(418,359,o),
(490,342,o),
(575,342,cs)
);
},
{
closed = 1;
nodes = (
(500,500,o),
(439,522,o),
(393,558,cs),
(345,596,o),
(320,645,o),
(320,707,cs),
(320,789,o),
(367,852,o),
(443,887,cs),
(480,904,o),
(525,913,o),
(575,913,cs),
(653,913,o),
(713,894,o),
(759,856,c),
(808,819,o),
(830,768,o),
(830,707,cs),
(830,625,o),
(785,561,o),
(708,526,cs),
(671,509,o),
(628,500,o),
(575,500,cs)
);
},
{
closed = 1;
nodes = (
(1166,869,l),
(1194,1039,l),
(661,1039,l),
(706,935,l),
(800,912,o),
(876,895,o),
(943,885,cs),
(1009,874,o),
(1066,869,o),
(1122,869,cs)
);
}
);
width = 1230;
},
{
layerId = "CD835F4B-8B2D-46BA-8F00-12B1EDA2331F";
shapes = (
{
closed = 1;
nodes = (
(736,-450,o),
(866,-413,o),
(957,-354,c),
(1049,-292,o),
(1102,-208,o),
(1102,-118,cs),
(1102,-6,o),
(1041,69,o),
(924,111,cs),
(865,133,o),
(793,145,o),
(704,152,c),
(531,164,ls),
(479,168,o),
(435,180,o),
(397,189,c),
(358,202,o),
(339,225,o),
(339,258,cs),
(339,310,o),
(388,344,o),
(466,366,c),
(506,375,o),
(548,380,o),
(598,379,c),
(561,441,l),
(464,428,o),
(387,403,o),
(331,367,cs),
(277,332,o),
(245,291,o),
(245,238,cs),
(245,175,o),
(290,129,o),
(375,92,c),
(252,67,o),
(173,22,o),
(131,-42,c),
(111,-77,o),
(101,-109,o),
(101,-149,cs),
(101,-240,o),
(144,-313,o),
(229,-367,cs),
(313,-420,o),
(432,-450,o),
(585,-450,cs)
);
},
{
closed = 1;
nodes = (
(416,-368,o),
(307,-329,o),
(245,-259,cs),
(216,-226,o),
(200,-187,o),
(200,-143,cs),
(200,-63,o),
(246,-3,o),
(339,34,cs),
(383,51,o),
(431,62,o),
(495,65,c),
(672,53,ls),
(896,38,o),
(1004,-23,o),
(1004,-129,cs),
(1004,-197,o),
(968,-255,o),
(892,-300,cs),
(815,-346,o),
(709,-368,o),
(573,-368,cs)
);
},
{
closed = 1;
nodes = (
(733,357,o),
(864,425,o),
(944,534,c),
(986,585,o),
(1002,646,o),
(1002,713,cs),
(1002,848,o),
(919,959,o),
(789,1023,cs),
(726,1055,o),
(655,1070,o),
(576,1070,cs),
(419,1070,o),
(289,1005,o),
(209,895,c),
(168,841,o),
(149,781,o),
(149,713,cs),
(149,578,o),
(233,469,o),
(363,405,cs),
(430,372,o),
(497,357,o),
(576,357,cs)
);
},
{
closed = 1;
nodes = (
(479,449,o),
(401,477,o),
(343,523,cs),
(284,572,o),
(254,635,o),
(254,713,cs),
(254,818,o),
(311,900,o),
(407,944,cs),
(455,965,o),
(510,978,o),
(576,978,cs),
(675,978,o),
(752,954,o),
(810,904,c),
(870,858,o),
(897,791,o),
(897,713,cs),
(897,609,o),
(842,526,o),
(746,482,cs),
(699,461,o),
(644,449,o),
(576,449,cs)
);
},
{
closed = 1;
nodes = (
(1151,958,l),
(1172,1038,l),
(717,1038,l),
(725,1004,l),
(799,988,o),
(860,977,o),
(915,969,c),
(970,962,o),
(1022,958,o),
(1078,958,cs)
);
}
);
width = 1217;
}
);
leftKerningGroup = _g2;
rightKerningGroup = _g;
unicode = 103;
},
{
glyphname = h;
layers = (
{
layerId = "CE4E9A76-E92C-4E6B-9275-59AAE218FE2B";
shapes = (
{
closed = 1;
nodes = (
(129,0,l),
(523,0,l),
(523,537,ls),
(523,615,o),
(548,669,o),
(594,696,c),
(619,712,o),
(648,720,o),
(685,717,c),
(739,717,o),
(779,700,o),
(809,667,c),
(836,635,o),
(851,591,o),
(851,538,cs),
(851,0,l),
(1244,0,l),
(1244,648,ls),
(1244,724,o),
(1229,795,o),
(1196,858,c),
(1161,922,o),
(1113,976,o),
(1048,1013,cs),
(980,1053,o),
(900,1071,o),
(801,1071,cs),
(725,1071,o),
(658,1057,o),
(598,1022,c),
(536,990,o),
(484,949,o),
(440,896,c),
(523,796,l),
(523,1440,l),
(129,1440,l)
);
}
);
width = 1363;
},
{
layerId = "549D2AD3-0DA6-49CF-9D11-873E4390D3BF";
shapes = (
{
closed = 1;
nodes = (
(167,0,l),
(372,0,l),
(372,623,ls),
(372,743,o),
(424,831,o),
(510,876,c),
(553,902,o),
(601,914,o),
(655,913,c),
(739,913,o),
(800,889,o),
(852,841,c),
(899,794,o),
(923,732,o),
(923,654,cs),
(923,0,l),
(1129,0,l),
(1129,714,ls),
(1129,779,o),
(1114,841,o),
(1082,900,cs),
(1049,959,o),
(1003,1010,o),
(941,1045,c),
(878,1084,o),
(799,1102,o),
(706,1102,cs),
(634,1102,o),
(567,1089,o),
(500,1055,c),
(433,1024,o),
(377,976,o),
(331,907,c),
(372,864,l),
(372,1440,l),
(167,1440,l)
);
}
);
width = 1285;
},
{
layerId = "CD835F4B-8B2D-46BA-8F00-12B1EDA2331F";
shapes = (
{
closed = 1;
nodes = (
(192,0,l),
(271,0,l),
(271,680,ls),
(271,827,o),
(342,938,o),
(454,995,c),
(509,1028,o),
(569,1043,o),
(634,1042,c),
(738,1043,o),
(815,1015,o),
(880,956,c),
(941,899,o),
(971,826,o),
(971,731,cs),
(971,0,l),
(1052,0,l),
(1052,758,ls),
(1052,817,o),
(1038,872,o),
(1007,927,c),
(974,983,o),
(930,1031,o),
(869,1066,c),
(809,1105,o),
(732,1123,o),
(642,1123,cs),
(573,1123,o),
(506,1110,o),
(436,1076,c),
(364,1046,o),
(305,992,o),
(258,914,c),
(271,908,l),
(271,1440,l),
(192,1440,l)
);
}
);
width = 1232;
}
);
leftKerningGroup = _b2;
rightKerningGroup = _a;
unicode = 104;
},
{
glyphname = k;
layers = (
{
layerId = "CE4E9A76-E92C-4E6B-9275-59AAE218FE2B";
shapes = (
{
closed = 1;
nodes = (
(129,0,l),
(523,0,l),
(523,279,l),
(586,350,l),
(791,0,l),
(1253,0,l),
(871,607,l),
(1234,1040,l),
(781,1040,l),
(523,739,l),
(523,1440,l),
(129,1440,l)
);
}
);
width = 1268;
},
{
layerId = "549D2AD3-0DA6-49CF-9D11-873E4390D3BF";
shapes = (
{
closed = 1;
nodes = (
(167,0,l),
(372,0,l),
(372,353,l),
(533,514,l),
(863,0,l),
(1110,0,l),
(682,648,l),
(1050,1040,l),
(806,1040,l),
(372,598,l),
(372,1440,l),
(167,1440,l)
);
}
);
width = 1160;
},
{
layerId = "CD835F4B-8B2D-46BA-8F00-12B1EDA2331F";
shapes = (
{
closed = 1;
nodes = (
(192,0,l),
(271,0,l),
(271,403,l),
(497,623,l),
(911,0,l),
(1014,0,l),
(556,673,l),
(927,1040,l),
(822,1040,l),
(271,503,l),
(271,1440,l),
(192,1440,l)
);
}
);
width = 1087;
}
);
leftKerningGroup = _b2;
rightKerningGroup = _k;
unicode = 107;
},
{
glyphname = l;
layers = (
{
layerId = "CE4E9A76-E92C-4E6B-9275-59AAE218FE2B";
shapes = (
{
closed = 1;
nodes = (
(579,-30,o),
(658,-15,o),
(734,6,c),
(686,315,l),
(659,308,o),
(632,299,o),
(604,299,cs),
(529,299,o),
(513,358,o),
(513,420,cs),
(513,1440,l),
(119,1440,l),
(119,378,ls),
(119,127,o),
(240,-30,o),
(500,-30,cs)
);
}
);
width = 767;
},
{
layerId = "549D2AD3-0DA6-49CF-9D11-873E4390D3BF";
shapes = (
{
closed = 1;
nodes = (
(497,-30,o),
(561,-15,o),
(620,6,c),
(582,176,l),
(550,165,o),
(512,152,o),
(478,152,cs),
(373,152,o),
(362,235,o),
(362,321,cs),
(362,1440,l),
(157,1440,l),
(157,251,ls),
(157,73,o),
(255,-30,o),
(434,-30,cs)
);
}
);
width = 676;
},
{
layerId = "CD835F4B-8B2D-46BA-8F00-12B1EDA2331F";
shapes = (
{
closed = 1;
nodes = (
(442,-30,o),
(497,-14,o),
(545,6,c),
(512,83,l),
(476,68,o),
(435,54,o),
(395,54,cs),
(268,54,o),
(261,154,o),
(261,255,cs),
(261,1440,l),
(181,1440,l),
(181,167,ls),
(181,36,o),
(264,-30,o),
(390,-30,cs)
);
}
);
width = 616;
}
);
leftKerningGroup = _b2;
rightKerningGroup = _d;
tags = (asc,lc);
unicode = 108;
},
{
glyphname = m;
layers = (
{
layerId = "CE4E9A76-E92C-4E6B-9275-59AAE218FE2B";
shapes = (
{
closed = 1;
nodes = (
(129,0,l),
(523,0,l),
(523,587,ls),
(523,634,o),
(548,674,o),
(593,698,cs),
(617,710,o),
(643,716,o),
(671,716,cs),
(720,716,o),
(755,702,o),
(783,672,c),
(807,642,o),
(821,603,o),
(821,551,cs),
(821,0,l),
(1214,0,l),
(1214,587,ls),
(1214,634,o),
(1239,674,o),
(1284,698,cs),
(1308,710,o),
(1334,716,o),
(1363,716,cs),
(1412,716,o),
(1447,702,o),
(1474,672,c),
(1499,642,o),
(1512,603,o),
(1512,551,cs),
(1512,0,l),
(1905,0,l),
(1905,663,ls),
(1905,736,o),
(1892,800,o),
(1871,861,c),
(1846,925,o),
(1807,975,o),
(1747,1012,c),
(1687,1052,o),
(1609,1070,o),
(1506,1070,cs),
(1425,1070,o),
(1349,1053,o),
(1280,1024,c),
(1211,991,o),
(1161,947,o),
(1125,885,c),
(1106,945,o),
(1072,990,o),
(1016,1022,cs),
(960,1054,o),
(899,1070,o),
(826,1070,cs),
(750,1070,o),
(672,1046,o),
(607,1003,c),
(574,979,o),
(547,951,o),
(523,919,c),
(523,1040,l),
(129,1040,l)
);
}
);
width = 2025;
},
{
layerId = "549D2AD3-0DA6-49CF-9D11-873E4390D3BF";
shapes = (
{
closed = 1;
nodes = (
(167,0,l),
(372,0,l),
(372,608,ls),
(372,719,o),
(423,802,o),
(509,847,cs),
(553,871,o),
(600,880,o),
(651,880,cs),
(733,880,o),
(791,861,o),
(835,813,c),
(876,765,o),
(896,705,o),
(896,629,cs),
(896,0,l),
(1101,0,l),
(1101,608,ls),
(1101,719,o),
(1152,802,o),
(1238,847,cs),
(1282,871,o),
(1328,880,o),
(1380,880,cs),
(1461,880,o),
(1520,861,o),
(1563,813,c),
(1604,765,o),
(1625,705,o),
(1625,629,cs),
(1625,0,l),
(1830,0,l),
(1830,689,ls),
(1830,753,o),
(1817,813,o),
(1793,870,c),
(1765,932,o),
(1726,979,o),
(1667,1015,c),
(1609,1054,o),
(1534,1070,o),
(1438,1070,cs),
(1372,1070,o),
(1303,1057,o),
(1234,1032,c),
(1165,1001,o),
(1106,951,o),
(1050,871,c),
(1026,929,o),
(988,978,o),
(931,1015,cs),
(873,1053,o),
(802,1070,o),
(713,1070,cs),
(629,1070,o),
(547,1047,o),
(473,997,c),
(436,969,o),
(403,935,o),
(372,893,c),
(372,1040,l),
(167,1040,l)
);
}
);
width = 1986;
},
{
layerId = "CD835F4B-8B2D-46BA-8F00-12B1EDA2331F";
shapes = (
{
closed = 1;
nodes = (
(192,0,l),
(271,0,l),
(271,621,ls),
(271,775,o),
(341,886,o),
(453,946,c),
(509,978,o),
(572,989,o),
(636,989,cs),
(741,989,o),
(814,966,o),
(870,907,c),
(921,847,o),
(946,774,o),
(946,680,cs),
(946,0,l),
(1026,0,l),
(1026,621,ls),
(1026,775,o),
(1095,886,o),
(1208,946,c),
(1264,978,o),
(1325,989,o),
(1390,989,cs),
(1494,989,o),
(1568,966,o),
(1623,907,c),
(1674,847,o),
(1700,774,o),
(1700,680,cs),
(1700,0,l),
(1779,0,l),
(1779,705,ls),
(1779,763,o),
(1766,821,o),
(1740,876,cs),
(1711,936,o),
(1671,981,o),
(1613,1017,c),
(1556,1055,o),
(1483,1070,o),
(1393,1070,cs),
(1336,1070,o),
(1273,1060,o),
(1202,1036,c),
(1133,1007,o),
(1068,953,o),
(999,861,c),
(972,919,o),
(931,970,o),
(874,1011,cs),
(816,1052,o),
(738,1070,o),
(638,1070,cs),
(548,1070,o),
(464,1048,o),
(384,993,c),
(343,962,o),
(307,925,o),
(271,877,c),
(271,1040,l),
(192,1040,l)
);
}
);
width = 1961;
}
);
leftKerningGroup = _m;
rightKerningGroup = _a;
unicode = 109;
},
{
glyphname = n;
layers = (
{
layerId = "CE4E9A76-E92C-4E6B-9275-59AAE218FE2B";
shapes = (
{
closed = 1;
nodes = (
(129,0,l),
(523,0,l),
(523,538,ls),
(523,609,o),
(551,663,o),
(599,694,c),
(625,708,o),
(655,716,o),
(689,716,cs),
(746,716,o),
(785,703,o),
(812,670,cs),
(837,640,o),
(851,596,o),
(851,539,cs),
(851,0,l),
(1244,0,l),
(1244,663,ls),
(1244,736,o),
(1231,800,o),
(1200,861,cs),
(1168,925,o),
(1123,975,o),
(1058,1012,c),
(994,1052,o),
(913,1070,o),
(812,1070,cs),
(756,1070,o),
(704,1060,o),
(653,1040,cs),
(601,1019,o),
(559,986,o),
(523,943,c),
(523,1040,l),
(129,1040,l)
);
}
);
width = 1363;
},
{
layerId = "549D2AD3-0DA6-49CF-9D11-873E4390D3BF";
shapes = (
{
closed = 1;
nodes = (
(167,0,l),
(372,0,l),
(372,593,ls),
(372,711,o),
(427,798,o),
(511,847,c),
(555,870,o),
(604,880,o),
(656,880,cs),
(740,880,o),
(805,861,o),
(853,812,cs),
(899,766,o),
(923,703,o),
(923,625,cs),
(923,0,l),
(1129,0,l),
(1129,689,ls),
(1129,753,o),
(1115,813,o),
(1084,870,cs),
(1051,932,o),
(1009,979,o),
(944,1015,c),
(882,1054,o),
(806,1070,o),
(709,1070,cs),
(647,1070,o),
(588,1059,o),
(528,1033,cs),
(467,1006,o),
(417,963,o),
(372,902,c),
(372,1040,l),
(167,1040,l)
);
}
);
width = 1285;
},
{
layerId = "CD835F4B-8B2D-46BA-8F00-12B1EDA2331F";
shapes = (
{
closed = 1;
nodes = (
(192,0,l),
(271,0,l),
(271,629,ls),
(271,778,o),
(345,886,o),
(452,948,c),
(508,977,o),
(569,989,o),
(634,989,cs),
(737,989,o),
(818,966,o),
(880,906,cs),
(941,848,o),
(971,773,o),
(971,682,cs),
(971,0,l),
(1052,0,l),
(1052,705,ls),
(1052,763,o),
(1038,821,o),
(1007,876,cs),
(973,936,o),
(933,981,o),
(868,1017,c),
(807,1055,o),
(734,1070,o),
(640,1070,cs),
(574,1070,o),
(511,1058,o),
(445,1027,c),
(378,997,o),
(321,947,o),
(271,875,c),
(271,1040,l),
(192,1040,l)
);
}
);
width = 1232;
}
);
leftKerningGroup = _m;
rightKerningGroup = _a;
unicode = 110;
},
{
glyphname = o;
layers = (
{
layerId = "CE4E9A76-E92C-4E6B-9275-59AAE218FE2B";
shapes = (
{
closed = 1;
nodes = (
(816,-30,o),
(958,33,o),
(1063,137,cs),
(1167,242,o),
(1225,375,o),
(1225,520,cs),
(1225,621,o),
(1200,711,o),
(1151,795,cs),
(1102,880,o),
(1033,946,o),
(945,995,cs),
(853,1047,o),
(758,1070,o),
(638,1070,cs),
(462,1070,o),
(320,1008,o),
(216,904,cs),
(111,799,o),
(51,665,o),
(51,520,cs),
(51,420,o),
(75,330,o),
(127,245,c),
(176,161,o),
(242,95,o),
(334,46,c),
(421,-6,o),
(521,-30,o),
(638,-30,cs)
);
},
{
closed = 1;
nodes = (
(560,305,o),
(497,340,o),
(461,406,c),
(441,438,o),
(433,476,o),
(433,520,cs),
(433,610,o),
(471,676,o),
(533,710,cs),
(566,727,o),
(598,735,o),
(638,735,cs),
(717,735,o),
(782,702,o),
(817,635,c),
(835,605,o),
(843,564,o),
(843,520,cs),
(843,430,o),
(805,367,o),
(743,331,cs),
(713,314,o),
(678,305,o),
(638,305,cs)
);
}
);
width = 1276;
},
{
layerId = "549D2AD3-0DA6-49CF-9D11-873E4390D3BF";
shapes = (
{
closed = 1;
nodes = (
(802,-30,o),
(938,31,o),
(1039,133,cs),
(1140,237,o),
(1196,369,o),
(1196,520,cs),
(1196,623,o),
(1172,713,o),
(1124,796,c),
(1076,882,o),
(1010,948,o),
(926,997,cs),
(838,1049,o),
(748,1070,o),
(636,1070,cs),
(473,1070,o),
(337,1011,o),
(236,909,cs),
(135,805,o),
(76,671,o),
(76,520,cs),
(76,420,o),
(99,330,o),
(149,245,cs),
(197,161,o),
(261,94,o),
(348,45,c),
(433,-7,o),
(528,-30,o),
(636,-30,cs)
);
},
{
closed = 1;
nodes = (
(498,153,o),
(393,212,o),
(330,326,c),
(298,381,o),
(284,443,o),
(284,520,cs),
(284,673,o),
(346,785,o),
(453,843,cs),
(509,873,o),
(566,886,o),
(636,886,cs),
(775,886,o),
(883,830,o),
(945,716,cs),
(975,662,o),
(989,597,o),
(989,520,cs),
(989,367,o),
(927,260,o),
(818,198,cs),
(767,168,o),
(706,153,o),
(636,153,cs)
);
}
);
width = 1272;
},
{
layerId = "CD835F4B-8B2D-46BA-8F00-12B1EDA2331F";
shapes = (
{
closed = 1;
nodes = (
(792,-30,o),
(923,29,o),
(1023,130,c),
(1122,234,o),
(1177,366,o),
(1177,520,cs),
(1177,624,o),
(1153,714,o),
(1105,796,c),
(1060,883,o),
(995,949,o),
(914,998,cs),
(828,1050,o),
(741,1070,o),
(634,1070,cs),
(480,1070,o),
(347,1013,o),
(249,912,cs),
(150,808,o),
(92,674,o),
(92,520,cs),
(92,420,o),
(115,330,o),
(164,244,cs),
(212,161,o),
(273,93,o),
(358,44,c),
(440,-8,o),
(532,-30,o),
(634,-30,cs)
);
},
{
closed = 1;
nodes = (
(456,52,o),
(323,128,o),
(243,272,cs),
(202,342,o),
(183,422,o),
(183,520,cs),
(183,715,o),
(264,857,o),
(400,931,cs),
(470,971,o),
(545,987,o),
(634,987,cs),
(814,987,o),
(949,914,o),
(1029,770,cs),
(1068,700,o),
(1085,618,o),
(1085,520,cs),
(1085,325,o),
(1008,188,o),
(868,110,c),
(802,70,o),
(724,52,o),
(634,52,cs)
);
}
);
width = 1269;
}
);
leftKerningGroup = _c2;
rightKerningGroup = _b;
unicode = 111;
},
{
glyphname = p;
layers = (
{
layerId = "CE4E9A76-E92C-4E6B-9275-59AAE218FE2B";
shapes = (
{
closed = 1;
nodes = (
(129,-400,l),
(521,-400,l),
(521,55,l),
(561,27,o),
(603,5,o),
(649,-8,c),
(694,-22,o),
(743,-30,o),
(791,-30,cs),
(944,-30,o),
(1071,29,o),
(1167,129,c),
(1259,229,o),
(1313,363,o),
(1313,520,cs),
(1313,636,o),
(1293,730,o),
(1246,815,c),
(1202,899,o),
(1142,958,o),
(1062,1005,c),
(982,1049,o),
(896,1070,o),
(799,1070,cs),
(726,1070,o),
(663,1059,o),
(607,1036,cs),
(547,1011,o),
(501,980,o),
(464,936,c),
(464,1040,l),
(129,1040,l)
);
},
{
closed = 1;
nodes = (
(648,305,o),
(583,340,o),
(547,406,cs),
(530,438,o),
(521,476,o),
(521,520,cs),
(521,610,o),
(561,676,o),
(623,710,c),
(653,727,o),
(689,735,o),
(726,735,cs),
(805,735,o),
(868,702,o),
(906,635,cs),
(923,605,o),
(931,564,o),
(931,520,cs),
(931,430,o),
(894,367,o),
(833,331,c),
(800,314,o),
(766,305,o),
(726,305,cs)
);
}
);
width = 1364;
},
{
layerId = "549D2AD3-0DA6-49CF-9D11-873E4390D3BF";
shapes = (
{
closed = 1;
nodes = (
(167,-400,l),
(372,-400,l),
(372,143,l),
(416,92,o),
(469,47,o),
(534,17,cs),
(599,-14,o),
(675,-30,o),
(759,-30,cs),
(915,-30,o),
(1044,29,o),
(1140,131,c),
(1233,234,o),
(1285,367,o),
(1285,520,cs),
(1285,628,o),
(1265,717,o),
(1219,802,cs),
(1175,886,o),
(1115,951,o),
(1035,1001,c),
(953,1050,o),
(864,1070,o),
(762,1070,cs),
(662,1070,o),
(583,1056,o),
(518,1022,c),
(451,985,o),
(399,943,o),
(354,886,c),
(354,1040,l),
(167,1040,l)
);
},
{
closed = 1;
nodes = (
(587,153,o),
(479,212,o),
(418,326,cs),
(388,381,o),
(372,443,o),
(372,520,cs),
(372,673,o),
(436,785,o),
(543,843,c),
(596,873,o),
(656,886,o),
(725,886,cs),
(863,886,o),
(970,830,o),
(1034,716,cs),
(1064,662,o),
(1077,597,o),
(1077,520,cs),
(1077,367,o),
(1015,260,o),
(908,198,c),
(853,168,o),
(794,153,o),
(725,153,cs)
);
}
);
width = 1360;
},
{
layerId = "CD835F4B-8B2D-46BA-8F00-12B1EDA2331F";
shapes = (
{
closed = 1;
nodes = (
(192,-400,l),
(271,-400,l),
(271,202,l),
(320,134,o),
(380,75,o),
(458,33,cs),
(536,-8,o),
(630,-30,o),
(738,-30,cs),
(896,-30,o),
(1025,28,o),
(1121,132,cs),
(1217,237,o),
(1266,369,o),
(1266,520,cs),
(1266,622,o),
(1246,708,o),
(1200,794,cs),
(1156,878,o),
(1096,945,o),
(1017,998,c),
(934,1050,o),
(843,1070,o),
(737,1070,cs),
(618,1070,o),
(529,1053,o),
(458,1012,c),
(387,967,o),
(330,918,o),
(281,852,c),
(281,1040,l),
(192,1040,l)
);
},
{
closed = 1;
nodes = (
(545,52,o),
(410,128,o),
(332,272,cs),
(292,342,o),
(271,422,o),
(271,520,cs),
(271,715,o),
(354,857,o),
(490,931,c),
(557,971,o),
(634,987,o),
(724,987,cs),
(902,987,o),
(1039,914,o),
(1118,770,cs),
(1158,700,o),
(1175,618,o),
(1175,520,cs),
(1175,325,o),
(1094,188,o),
(958,110,cs),
(888,70,o),
(812,52,o),
(724,52,cs)
);
}
);
width = 1357;
}
);
leftKerningGroup = _m;
rightKerningGroup = _b;
unicode = 112;
},
{
glyphname = q;
layers = (
{
layerId = "CE4E9A76-E92C-4E6B-9275-59AAE218FE2B";
shapes = (
{
closed = 1;
nodes = (
(843,-400,l),
(1235,-400,l),
(1235,1040,l),
(900,1040,l),
(900,759,l),
(953,848,l),
(919,937,o),
(843,1005,o),
(738,1044,cs),
(685,1063,o),
(630,1070,o),
(565,1070,cs),
(420,1070,o),
(292,1020,o),
(200,924,c),
(104,827,o),
(51,693,o),
(51,520,cs),
(51,416,o),
(74,324,o),
(118,239,c),
(165,155,o),
(223,91,o),
(303,42,c),
(384,-5,o),
(473,-30,o),
(573,-30,cs),
(646,-30,o),
(711,-16,o),
(772,12,cs),
(832,40,o),
(885,81,o),
(933,142,c),
(843,232,l)
);
},
{
closed = 1;
nodes = (
(560,305,o),
(495,340,o),
(459,406,cs),
(442,438,o),
(433,476,o),
(433,520,cs),
(433,610,o),
(473,676,o),
(535,710,c),
(565,727,o),
(601,735,o),
(638,735,cs),
(717,735,o),
(780,702,o),
(817,635,c),
(835,605,o),
(843,564,o),
(843,520,cs),
(843,430,o),
(806,367,o),
(745,331,c),
(712,314,o),
(678,305,o),
(638,305,cs)
);
}
);
width = 1364;
},
{
layerId = "549D2AD3-0DA6-49CF-9D11-873E4390D3BF";
shapes = (
{
closed = 1;
nodes = (
(989,-400,l),
(1193,-400,l),
(1193,1040,l),
(1006,1040,l),
(1006,794,l),
(1035,841,l),
(983,930,o),
(906,1002,o),
(793,1044,c),
(736,1064,o),
(673,1070,o),
(599,1070,cs),
(445,1070,o),
(318,1014,o),
(224,915,cs),
(128,813,o),
(76,679,o),
(76,520,cs),
(76,419,o),
(98,328,o),
(142,243,c),
(189,159,o),
(249,94,o),
(327,43,c),
(409,-5,o),
(498,-30,o),
(601,-30,cs),
(701,-30,o),
(785,-13,o),
(856,29,cs),
(925,69,o),
(983,122,o),
(1029,189,c),
(989,235,l)
);
},
{
closed = 1;
nodes = (
(498,153,o),
(391,212,o),
(329,326,cs),
(299,381,o),
(284,443,o),
(284,520,cs),
(284,673,o),
(348,785,o),
(455,843,c),
(507,873,o),
(567,886,o),
(636,886,cs),
(775,886,o),
(882,830,o),
(945,716,cs),
(975,662,o),
(989,597,o),
(989,520,cs),
(989,367,o),
(926,260,o),
(820,198,c),
(765,168,o),
(705,153,o),
(636,153,cs)
);
}
);
width = 1360;
},
{
layerId = "CD835F4B-8B2D-46BA-8F00-12B1EDA2331F";
shapes = (
{
closed = 1;
nodes = (
(1085,-400,l),
(1165,-400,l),
(1165,1040,l),
(1076,1040,l),
(1076,817,l),
(1090,837,l),
(1025,924,o),
(948,999,o),
(829,1043,cs),
(771,1064,o),
(701,1070,o),
(620,1070,cs),
(461,1070,o),
(334,1011,o),
(239,909,c),
(144,804,o),
(92,670,o),
(92,520,cs),
(92,421,o),
(114,331,o),
(158,245,c),
(204,162,o),
(265,96,o),
(343,43,c),
(425,-5,o),
(514,-30,o),
(619,-30,cs),
(739,-30,o),
(835,-10,o),
(912,39,c),
(986,88,o),
(1048,149,o),
(1093,221,c),
(1085,237,l)
);
},
{
closed = 1;
nodes = (
(456,52,o),
(321,128,o),
(242,272,cs),
(203,342,o),
(183,422,o),
(183,520,cs),
(183,715,o),
(265,857,o),
(401,931,c),
(468,971,o),
(545,987,o),
(634,987,cs),
(814,987,o),
(949,914,o),
(1029,770,cs),
(1068,700,o),
(1085,618,o),
(1085,520,cs),
(1085,325,o),
(1005,188,o),
(870,110,c),
(800,70,o),
(723,52,o),
(634,52,cs)
);
}
);
width = 1357;
}
);
leftKerningGroup = _c2;
unicode = 113;
},
{
glyphname = r;
layers = (
{
layerId = "CE4E9A76-E92C-4E6B-9275-59AAE218FE2B";
shapes = (
{
closed = 1;
nodes = (
(129,0,l),
(523,0,l),
(523,508,ls),
(523,569,o),
(541,615,o),
(575,643,cs),
(611,672,o),
(653,684,o),
(707,684,cs),
(762,684,o),
(821,676,o),
(869,655,c),
(915,1058,l),
(879,1066,o),
(846,1070,o),
(799,1070,cs),
(737,1070,o),
(687,1060,o),
(636,1039,c),
(588,1015,o),
(551,978,o),
(523,931,c),
(523,1040,l),
(129,1040,l)
);
}
);
width = 933;
},
{
layerId = "549D2AD3-0DA6-49CF-9D11-873E4390D3BF";
shapes = (
{
closed = 1;
nodes = (
(167,0,l),
(372,0,l),
(372,575,ls),
(372,665,o),
(400,737,o),
(455,787,c),
(512,841,o),
(580,865,o),
(666,865,cs),
(707,865,o),
(750,862,o),
(789,848,c),
(820,1061,l),
(782,1070,o),
(744,1070,o),
(704,1070,cs),
(636,1070,o),
(579,1059,o),
(520,1033,c),
(463,1005,o),
(415,959,o),
(372,891,c),
(372,1040,l),
(167,1040,l)
);
}
);
width = 854;
},
{
layerId = "CD835F4B-8B2D-46BA-8F00-12B1EDA2331F";
shapes = (
{
closed = 1;
nodes = (
(192,0,l),
(271,0,l),
(271,619,ls),
(271,729,o),
(305,816,o),
(376,883,c),
(446,954,o),
(532,985,o),
(639,985,cs),
(669,985,o),
(702,985,o),
(736,977,c),
(756,1063,l),
(718,1072,o),
(675,1070,o),
(641,1070,cs),
(569,1070,o),
(506,1058,o),
(443,1030,c),
(380,999,o),
(324,947,o),
(271,864,c),
(271,1040,l),
(192,1040,l)
);
}
);
width = 801;
}
);
leftKerningGroup = _m;
rightKerningGroup = _r;
unicode = 114;
},
{
glyphname = s;
layers = (
{
layerId = "CE4E9A76-E92C-4E6B-9275-59AAE218FE2B";
shapes = (
{
closed = 1;
nodes = (
(729,-30,o),
(871,34,o),
(951,141,cs),
(990,193,o),
(1010,257,o),
(1010,328,cs),
(1010,423,o),
(979,494,o),
(915,545,c),
(847,595,o),
(742,638,o),
(587,667,c),
(522,682,o),
(478,691,o),
(462,699,c),
(442,706,o),
(433,718,o),
(433,733,cs),
(433,749,o),
(446,763,o),
(467,771,cs),
(492,780,o),
(520,784,o),
(559,784,cs),
(632,784,o),
(710,766,o),
(785,735,cs),
(821,720,o),
(855,704,o),
(884,681,c),
(994,943,l),
(938,982,o),
(873,1015,o),
(794,1037,cs),
(714,1059,o),
(633,1070,o),
(545,1070,cs),
(365,1070,o),
(228,1009,o),
(148,906,cs),
(109,854,o),
(89,793,o),
(89,722,cs),
(89,623,o),
(120,545,o),
(192,489,c),
(258,431,o),
(365,393,o),
(508,372,c),
(573,363,o),
(614,355,o),
(637,347,c),
(659,342,o),
(667,328,o),
(667,313,cs),
(667,276,o),
(626,256,o),
(535,256,cs),
(480,256,o),
(420,266,o),
(353,287,c),
(285,310,o),
(222,334,o),
(161,369,c),
(47,107,l),
(111,62,o),
(181,30,o),
(263,7,cs),
(348,-17,o),
(436,-30,o),
(539,-30,cs)
);
}
);
width = 1086;
},
{
layerId = "549D2AD3-0DA6-49CF-9D11-873E4390D3BF";
shapes = (
{
closed = 1;
nodes = (
(672,-30,o),
(797,29,o),
(866,123,cs),
(900,170,o),
(917,227,o),
(917,292,cs),
(917,377,o),
(890,445,o),
(834,491,cs),
(775,539,o),
(684,578,o),
(553,606,c),
(465,628,o),
(403,648,o),
(368,669,c),
(330,690,o),
(311,721,o),
(311,767,cs),
(311,810,o),
(332,846,o),
(368,869,cs),
(408,894,o),
(455,906,o),
(518,906,cs),
(597,906,o),
(672,887,o),
(739,852,c),
(772,836,o),
(802,816,o),
(825,792,c),
(902,946,l),
(852,987,o),
(800,1017,o),
(730,1039,c),
(665,1058,o),
(594,1070,o),
(516,1070,cs),
(362,1070,o),
(242,1014,o),
(174,920,cs),
(139,873,o),
(124,821,o),
(124,759,cs),
(124,672,o),
(152,607,o),
(210,559,c),
(267,508,o),
(358,470,o),
(486,443,c),
(580,422,o),
(642,399,o),
(679,378,c),
(712,357,o),
(729,324,o),
(729,281,cs),
(729,190,o),
(647,135,o),
(503,135,cs),
(445,135,o),
(387,145,o),
(328,167,cs),
(269,189,o),
(215,218,o),
(169,256,c),
(88,104,l),
(138,62,o),
(197,32,o),
(271,8,cs),
(345,-17,o),
(420,-30,o),
(503,-30,cs)
);
}
);
width = 1033;
},
{
layerId = "CD835F4B-8B2D-46BA-8F00-12B1EDA2331F";
shapes = (
{
closed = 1;
nodes = (
(633,-30,o),
(747,23,o),
(809,111,cs),
(840,154,o),
(854,208,o),
(854,267,cs),
(854,347,o),
(830,412,o),
(780,453,c),
(725,500,o),
(645,538,o),
(531,565,c),
(427,592,o),
(352,620,o),
(304,648,cs),
(255,678,o),
(229,723,o),
(229,789,cs),
(229,851,o),
(256,901,o),
(302,933,cs),
(352,969,o),
(413,987,o),
(490,987,cs),
(574,987,o),
(647,966,o),
(709,929,cs),
(737,912,o),
(764,891,o),
(786,865,c),
(841,948,l),
(795,990,o),
(749,1019,o),
(688,1040,c),
(630,1058,o),
(569,1070,o),
(497,1070,cs),
(360,1070,o),
(252,1017,o),
(190,930,c),
(160,885,o),
(146,839,o),
(146,783,cs),
(146,705,o),
(171,647,o),
(222,604,c),
(273,559,o),
(354,521,o),
(471,490,cs),
(586,460,o),
(661,427,o),
(706,397,c),
(748,367,o),
(770,321,o),
(770,260,cs),
(770,133,o),
(660,53,o),
(482,53,cs),
(422,53,o),
(365,66,o),
(312,88,cs),
(257,111,o),
(209,141,o),
(175,180,c),
(115,101,l),
(154,62,o),
(207,33,o),
(275,8,cs),
(342,-17,o),
(410,-30,o),
(479,-30,cs)
);
}
);
width = 998;
}
);
leftKerningGroup = _s2;
rightKerningGroup = _s;
unicode = 115;
},
{
glyphname = t;
layers = (
{
layerId = "CE4E9A76-E92C-4E6B-9275-59AAE218FE2B";
shapes = (
{
closed = 1;
nodes = (
(710,-30,o),
(811,4,o),
(876,39,c),
(832,344,l),
(797,326,o),
(754,315,o),
(716,315,cs),
(685,315,o),
(658,324,o),
(635,343,cs),
(611,363,o),
(600,393,o),
(600,438,cs),
(600,733,l),
(819,733,l),
(819,1040,l),
(600,1040,l),
(600,1384,l),
(206,1284,l),
(206,376,ls),
(206,243,o),
(242,142,o),
(311,73,cs),
(380,5,o),
(474,-30,o),
(598,-30,cs)
);
},
{
closed = 1;
nodes = (
(21,733,l),
(238,733,l),
(238,1040,l),
(21,1040,l)
);
}
);
width = 929;
},
{
layerId = "549D2AD3-0DA6-49CF-9D11-873E4390D3BF";
shapes = (
{
closed = 1;
nodes = (
(679,-30,o),
(755,-10,o),
(814,20,c),
(773,187,l),
(740,170,o),
(693,159,o),
(645,159,cs),
(590,159,o),
(551,173,o),
(522,205,cs),
(492,238,o),
(479,291,o),
(479,367,cs),
(479,868,l),
(778,868,l),
(778,1040,l),
(479,1040,l),
(479,1360,l),
(274,1308,l),
(274,318,ls),
(274,200,o),
(305,111,o),
(365,54,cs),
(424,-3,o),
(501,-30,o),
(599,-30,cs)
);
},
{
closed = 1;
nodes = (
(38,868,l),
(303,868,l),
(303,1040,l),
(38,1040,l)
);
}
);
width = 901;
},
{
layerId = "CD835F4B-8B2D-46BA-8F00-12B1EDA2331F";
shapes = (
{
closed = 1;
nodes = (
(658,-30,o),
(717,-18,o),
(772,7,c),
(733,82,l),
(701,66,o),
(652,54,o),
(597,54,cs),
(527,54,o),
(479,72,o),
(447,114,c),
(413,155,o),
(398,222,o),
(398,320,cs),
(398,956,l),
(751,956,l),
(751,1040,l),
(398,1040,l),
(398,1344,l),
(318,1324,l),
(318,279,ls),
(318,171,o),
(347,90,o),
(400,41,cs),
(452,-7,o),
(519,-30,o),
(600,-30,cs)
);
},
{
closed = 1;
nodes = (
(48,956,l),
(345,956,l),
(345,1040,l),
(48,1040,l)
);
}
);
width = 882;
}
);
leftKerningGroup = _t2;
rightKerningGroup = _t;
unicode = 116;
},
{
glyphname = u;
layers = (
{
layerId = "CE4E9A76-E92C-4E6B-9275-59AAE218FE2B";
shapes = (
{
closed = 1;
nodes = (
(629,-30,o),
(696,-15,o),
(744,14,cs),
(792,43,o),
(830,73,o),
(860,103,c),
(860,0,l),
(1195,0,l),
(1195,1040,l),
(801,1040,l),
(801,481,ls),
(801,419,o),
(777,371,o),
(735,346,cs),
(711,332,o),
(687,324,o),
(655,324,cs),
(608,324,o),
(573,338,o),
(548,366,c),
(526,394,o),
(513,431,o),
(513,480,cs),
(513,1040,l),
(119,1040,l),
(119,426,ls),
(119,331,o),
(134,251,o),
(166,184,c),
(195,115,o),
(240,62,o),
(304,25,cs),
(368,-11,o),
(445,-30,o),
(541,-30,cs)
);
}
);
width = 1324;
},
{
layerId = "549D2AD3-0DA6-49CF-9D11-873E4390D3BF";
shapes = (
{
closed = 1;
nodes = (
(640,-30,o),
(704,-17,o),
(761,10,cs),
(818,37,o),
(867,75,o),
(910,126,c),
(910,0,l),
(1097,0,l),
(1097,1040,l),
(892,1040,l),
(892,440,ls),
(892,328,o),
(840,241,o),
(758,195,cs),
(715,171,o),
(670,159,o),
(617,159,cs),
(537,159,o),
(476,182,o),
(430,228,c),
(386,275,o),
(362,333,o),
(362,409,cs),
(362,1040,l),
(157,1040,l),
(157,366,ls),
(157,298,o),
(172,232,o),
(203,173,c),
(230,112,o),
(275,63,o),
(338,25,cs),
(400,-12,o),
(474,-30,o),
(567,-30,cs)
);
}
);
width = 1264;
},
{
layerId = "CD835F4B-8B2D-46BA-8F00-12B1EDA2331F";
shapes = (
{
closed = 1;
nodes = (
(647,-30,o),
(708,-18,o),
(771,7,cs),
(834,33,o),
(891,76,o),
(944,141,c),
(944,0,l),
(1031,0,l),
(1031,1040,l),
(952,1040,l),
(952,413,ls),
(952,267,o),
(882,154,o),
(773,94,cs),
(717,63,o),
(658,49,o),
(592,49,cs),
(489,49,o),
(412,77,o),
(351,137,c),
(292,196,o),
(261,269,o),
(261,361,cs),
(261,1040,l),
(181,1040,l),
(181,326,ls),
(181,276,o),
(196,220,o),
(227,166,c),
(253,109,o),
(298,63,o),
(359,25,cs),
(421,-13,o),
(493,-30,o),
(583,-30,cs)
);
}
);
width = 1223;
}
);
leftKerningGroup = _u2;
rightKerningGroup = _u;
unicode = 117;
},
{
glyphname = v;
layers = (
{
layerId = "CE4E9A76-E92C-4E6B-9275-59AAE218FE2B";
shapes = (
{
closed = 1;
nodes = (
(366,0,l),
(826,0,l),
(1164,1040,l),
(755,1040,l),
(576,340,l),
(614,340,l),
(430,1040,l),
(11,1040,l)
);
}
);
width = 1175;
},
{
layerId = "549D2AD3-0DA6-49CF-9D11-873E4390D3BF";
shapes = (
{
closed = 1;
nodes = (
(429,0,l),
(662,0,l),
(1051,1040,l),
(830,1040,l),
(531,175,l),
(566,175,l),
(261,1040,l),
(35,1040,l)
);
}
);
width = 1086;
},
{
layerId = "CD835F4B-8B2D-46BA-8F00-12B1EDA2331F";
shapes = (
{
closed = 1;
nodes = (
(471,0,l),
(552,0,l),
(976,1040,l),
(881,1040,l),
(501,65,l),
(533,65,l),
(148,1040,l),
(50,1040,l)
);
}
);
width = 1026;
}
);
leftKerningGroup = _v2;
rightKerningGroup = _v;
unicode = 118;
},
{
glyphname = w;
layers = (
{
layerId = "CE4E9A76-E92C-4E6B-9275-59AAE218FE2B";
shapes = (
{
closed = 1;
nodes = (
(314,0,l),
(700,0,l),
(861,565,l),
(1014,0,l),
(1400,0,l),
(1703,1040,l),
(1339,1040,l),
(1207,451,l),
(1044,1040,l),
(690,1040,l),
(524,451,l),
(387,1040,l),
(11,1040,l)
);
}
);
width = 1714;
},
{
layerId = "549D2AD3-0DA6-49CF-9D11-873E4390D3BF";
shapes = (
{
closed = 1;
nodes = (
(365,0,l),
(579,0,l),
(831,776,l),
(1071,0,l),
(1286,0,l),
(1616,1040,l),
(1420,1040,l),
(1179,238,l),
(940,1040,l),
(734,1040,l),
(478,238,l),
(242,1040,l),
(35,1040,l)
);
}
);
width = 1651;
},
{
layerId = "CD835F4B-8B2D-46BA-8F00-12B1EDA2331F";
shapes = (
{
closed = 1;
nodes = (
(400,0,l),
(500,0,l),
(810,915,l),
(1109,0,l),
(1210,0,l),
(1557,1040,l),
(1474,1040,l),
(1160,96,l),
(870,1040,l),
(763,1040,l),
(446,96,l),
(146,1040,l),
(50,1040,l)
);
}
);
width = 1609;
}
);
leftKerningGroup = _v2;
rightKerningGroup = _v;
unicode = 119;
},
{
glyphname = x;
layers = (
{
layerId = "CE4E9A76-E92C-4E6B-9275-59AAE218FE2B";
shapes = (
{
closed = 1;
nodes = (
(21,-4,l),
(504,4,l),
(656,253,l),
(808,0,l),
(1311,0,l),
(943,513,l),
(1289,1040,l),
(801,1040,l),
(670,773,l),
(534,1040,l),
(39,1040,l),
(393,507,l)
);
}
);
width = 1332;
},
{
layerId = "549D2AD3-0DA6-49CF-9D11-873E4390D3BF";
shapes = (
{
closed = 1;
nodes = (
(35,-1,l),
(285,1,l),
(544,384,l),
(798,0,l),
(1061,0,l),
(686,531,l),
(1029,1040,l),
(779,1040,l),
(551,674,l),
(316,1040,l),
(57,1040,l),
(412,525,l)
);
}
);
width = 1095;
},
{
layerId = "CD835F4B-8B2D-46BA-8F00-12B1EDA2331F";
shapes = (
{
closed = 1;
nodes = (
(44,1,l),
(140,-1,l),
(469,471,l),
(791,0,l),
(893,0,l),
(515,543,l),
(856,1040,l),
(764,1040,l),
(472,608,l),
(171,1040,l),
(69,1040,l),
(424,537,l)
);
}
);
width = 937;
}
);
leftKerningGroup = _x2;
rightKerningGroup = _x;
unicode = 120;
},
{
glyphname = y;
layers = (
{
layerId = "CE4E9A76-E92C-4E6B-9275-59AAE218FE2B";
shapes = (
{
closed = 1;
nodes = (
(454,-446,o),
(578,-400,o),
(681,-293,c),
(729,-237,o),
(773,-168,o),
(810,-76,c),
(1231,1040,l),
(816,1040,l),
(624,380,l),
(426,1040,l),
(1,1040,l),
(402,3,l),
(397,-15,l),
(390,-44,o),
(373,-66,o),
(348,-77,c),
(323,-87,o),
(296,-94,o),
(263,-94,cs),
(214,-94,o),
(156,-79,o),
(111,-58,c),
(31,-384,l),
(111,-424,o),
(215,-446,o),
(322,-446,cs)
);
}
);
width = 1231;
},
{
layerId = "549D2AD3-0DA6-49CF-9D11-873E4390D3BF";
shapes = (
{
closed = 1;
nodes = (
(361,-446,o),
(451,-414,o),
(532,-324,c),
(568,-279,o),
(604,-215,o),
(635,-133,cs),
(1078,1040,l),
(860,1040,l),
(565,210,l),
(264,1040,l),
(38,1040,l),
(449,-20,l),
(421,-105,ls),
(405,-154,o),
(381,-195,o),
(352,-220,cs),
(324,-243,o),
(283,-257,o),
(231,-257,cs),
(191,-257,o),
(136,-242,o),
(91,-214,c),
(45,-391,l),
(115,-431,o),
(181,-446,o),
(251,-446,cs)
);
}
);
width = 1102;
},
{
layerId = "CD835F4B-8B2D-46BA-8F00-12B1EDA2331F";
shapes = (
{
closed = 1;
nodes = (
(299,-446,o),
(367,-422,o),
(431,-343,c),
(460,-306,o),
(490,-247,o),
(518,-171,c),
(976,1040,l),
(889,1040,l),
(525,96,l),
(155,1040,l),
(62,1040,l),
(481,-35,l),
(436,-165,ls),
(415,-227,o),
(387,-280,o),
(355,-316,c),
(324,-348,o),
(275,-365,o),
(210,-365,cs),
(176,-365,o),
(123,-351,o),
(78,-319,c),
(54,-395,l),
(117,-434,o),
(159,-446,o),
(203,-446,cs)
);
}
);
width = 1016;
}
);
leftKerningGroup = _y;
rightKerningGroup = _v;
unicode = 121;
},
{
glyphname = z;
layers = (
{
layerId = "CE4E9A76-E92C-4E6B-9275-59AAE218FE2B";
shapes = (
{
closed = 1;
nodes = (
(81,0,l),
(988,0,l),
(988,344,l),
(598,344,l),
(980,784,l),
(980,1040,l),
(98,1040,l),
(98,696,l),
(492,696,l),
(81,256,l)
);
}
);
width = 1068;
},
{
layerId = "549D2AD3-0DA6-49CF-9D11-873E4390D3BF";
shapes = (
{
closed = 1;
nodes = (
(100,0,l),
(920,0,l),
(920,184,l),
(361,184,l),
(912,889,l),
(912,1040,l),
(110,1040,l),
(110,856,l),
(660,856,l),
(100,151,l)
);
}
);
width = 1021;
},
{
layerId = "CD835F4B-8B2D-46BA-8F00-12B1EDA2331F";
shapes = (
{
closed = 1;
nodes = (
(112,0,l),
(875,0,l),
(875,77,l),
(203,77,l),
(867,959,l),
(867,1040,l),
(117,1040,l),
(117,963,l),
(771,963,l),
(112,81,l)
);
}
);
width = 988;
}
);
leftKerningGroup = _z2;
rightKerningGroup = _z;
unicode = 122;
},
{
glyphname = braceleft;
layers = (
{
layerId = "CE4E9A76-E92C-4E6B-9275-59AAE218FE2B";
shapes = (
{
closed = 1;
nodes = (
(663,36,l),
(599,35,o),
(558,42,o),
(533,63,cs),
(508,84,o),
(499,116,o),
(508,160,cs),
(562,442,ls),
(574,507,o),
(566,562,o),
(538,606,c),
(509,649,o),
(460,677,o),
(391,690,c),
(391,692,l),
(523,715,o),
(582,809,o),
(558,938,c),
(508,1220,l),
(493,1316,o),
(539,1353,o),
(663,1344,c),
(663,1606,l),
(477,1622,o),
(351,1594,o),
(272,1527,cs),
(192,1460,o),
(169,1352,o),
(197,1193,cs),
(242,947,l),
(254,886,o),
(240,851,o),
(184,835,c),
(157,826,o),
(119,822,o),
(68,822,c),
(68,560,l),
(169,560,o),
(221,546,o),
(238,509,cs),
(247,490,o),
(249,466,o),
(242,435,c),
(197,185,l),
(171,30,o),
(194,-79,o),
(274,-146,c),
(350,-213,o),
(477,-239,o),
(663,-226,c)
);
}
);
width = 730;
},
{
layerId = "549D2AD3-0DA6-49CF-9D11-873E4390D3BF";
shapes = (
{
closed = 1;
nodes = (
(572,-78,l),
(502,-81,o),
(457,-76,o),
(432,-55,c),
(407,-32,o),
(395,3,o),
(403,53,c),
(457,456,ls),
(467,526,o),
(463,580,o),
(441,618,cs),
(419,654,o),
(379,678,o),
(318,690,c),
(318,692,l),
(435,713,o),
(476,787,o),
(456,925,c),
(403,1327,l),
(391,1431,o),
(435,1472,o),
(572,1458,c),
(572,1605,l),
(445,1622,o),
(355,1603,o),
(295,1554,cs),
(235,1505,o),
(213,1430,o),
(230,1322,c),
(285,917,l),
(298,835,o),
(287,795,o),
(234,779,c),
(207,769,o),
(168,765,o),
(114,765,c),
(114,618,l),
(223,618,o),
(271,606,o),
(285,560,cs),
(292,538,o),
(293,507,o),
(285,465,c),
(228,54,ls),
(214,-49,o),
(235,-125,o),
(295,-174,c),
(352,-223,o),
(443,-239,o),
(572,-225,c)
);
}
);
width = 686;
},
{
layerId = "CD835F4B-8B2D-46BA-8F00-12B1EDA2331F";
shapes = (
{
closed = 1;
nodes = (
(512,-153,l),
(438,-158,o),
(388,-154,o),
(363,-133,c),
(338,-109,o),
(326,-72,o),
(333,-17,c),
(387,465,ls),
(395,538,o),
(394,592,o),
(377,625,c),
(359,657,o),
(325,679,o),
(270,690,c),
(270,692,l),
(375,711,o),
(406,772,o),
(387,917,c),
(333,1397,l),
(322,1507,o),
(366,1550,o),
(512,1533,c),
(512,1604,l),
(424,1621,o),
(357,1609,o),
(310,1572,cs),
(263,1534,o),
(242,1481,o),
(251,1408,cs),
(313,898,l),
(326,800,o),
(319,757,o),
(268,741,c),
(241,730,o),
(201,727,o),
(145,727,c),
(145,657,l),
(258,657,o),
(305,646,o),
(316,595,cs),
(321,570,o),
(321,534,o),
(313,484,c),
(249,-33,l),
(242,-102,o),
(262,-156,o),
(308,-192,cs),
(353,-229,o),
(421,-239,o),
(512,-224,c)
);
}
);
width = 657;
}
);
rightKerningGroup = _parenleft;
unicode = 123;
},
{
glyphname = bar;
layers = (
{
layerId = "CE4E9A76-E92C-4E6B-9275-59AAE218FE2B";
shapes = (
{
closed = 1;
nodes = (
(200,-220,l),
(515,-220,l),
(515,1600,l),
(200,1600,l)
);
}
);
width = 715;
},
{
layerId = "549D2AD3-0DA6-49CF-9D11-873E4390D3BF";
shapes = (
{
closed = 1;
nodes = (
(200,-220,l),
(366,-220,l),
(366,1600,l),
(200,1600,l)
);
}
);
width = 566;
},
{
layerId = "CD835F4B-8B2D-46BA-8F00-12B1EDA2331F";
shapes = (
{
closed = 1;
nodes = (
(200,-220,l),
(267,-220,l),
(267,1600,l),
(200,1600,l)
);
}
);
width = 467;
}
);
leftKerningGroup = _bar2;
rightKerningGroup = _bar;
unicode = 124;
},
{
glyphname = braceright;
layers = (
{
layerId = "CE4E9A76-E92C-4E6B-9275-59AAE218FE2B";
shapes = (
{
closed = 1;
nodes = (
(68,-226,l),
(254,-239,o),
(380,-213,o),
(460,-146,c),
(536,-79,o),
(562,30,o),
(533,185,c),
(489,435,l),
(480,500,o),
(495,533,o),
(548,548,cs),
(575,556,o),
(612,560,o),
(663,560,c),
(663,822,l),
(563,822,o),
(512,838,o),
(495,873,cs),
(486,893,o),
(485,918,o),
(489,947,c),
(533,1193,ls),
(562,1352,o),
(539,1460,o),
(460,1527,cs),
(380,1594,o),
(254,1622,o),
(68,1606,c),
(68,1344,l),
(193,1353,o),
(239,1316,o),
(222,1220,cs),
(172,938,ls),
(149,809,o),
(210,715,o),
(339,692,c),
(339,690,l),
(271,677,o),
(224,649,o),
(195,606,cs),
(166,562,o),
(156,507,o),
(168,442,cs),
(222,160,ls),
(231,116,o),
(225,84,o),
(200,63,cs),
(175,42,o),
(132,35,o),
(68,36,c)
);
}
);
width = 730;
},
{
layerId = "549D2AD3-0DA6-49CF-9D11-873E4390D3BF";
shapes = (
{
closed = 1;
nodes = (
(114,-225,l),
(243,-239,o),
(334,-223,o),
(394,-174,cs),
(452,-125,o),
(475,-49,o),
(458,54,c),
(401,465,l),
(391,549,o),
(401,591,o),
(453,606,cs),
(480,614,o),
(518,618,o),
(572,618,c),
(572,765,l),
(467,765,o),
(417,780,o),
(404,823,c),
(396,846,o),
(397,878,o),
(401,917,c),
(456,1322,l),
(473,1430,o),
(452,1505,o),
(392,1554,cs),
(333,1603,o),
(241,1622,o),
(114,1605,c),
(114,1458,l),
(253,1472,o),
(297,1431,o),
(283,1327,cs),
(230,925,ls),
(212,787,o),
(253,713,o),
(367,692,c),
(367,690,l),
(308,678,o),
(271,654,o),
(249,618,cs),
(227,580,o),
(219,526,o),
(229,456,cs),
(283,53,l),
(291,3,o),
(283,-32,o),
(258,-55,c),
(233,-76,o),
(184,-81,o),
(114,-78,c)
);
}
);
width = 686;
},
{
layerId = "CD835F4B-8B2D-46BA-8F00-12B1EDA2331F";
shapes = (
{
closed = 1;
nodes = (
(145,-224,l),
(236,-239,o),
(302,-229,o),
(350,-192,c),
(395,-156,o),
(416,-102,o),
(407,-33,cs),
(342,484,l),
(331,582,o),
(338,629,o),
(390,645,cs),
(417,653,o),
(455,657,o),
(512,657,c),
(512,727,l),
(403,727,o),
(354,741,o),
(343,789,c),
(336,814,o),
(337,851,o),
(342,898,c),
(405,1408,l),
(413,1481,o),
(393,1534,o),
(347,1572,c),
(300,1609,o),
(232,1621,o),
(145,1604,c),
(145,1533,l),
(293,1550,o),
(336,1507,o),
(324,1397,cs),
(269,917,l),
(254,772,o),
(281,711,o),
(386,692,c),
(386,690,l),
(332,679,o),
(302,657,o),
(284,625,c),
(267,592,o),
(261,538,o),
(270,465,c),
(324,-17,l),
(331,-72,o),
(321,-109,o),
(296,-133,c),
(271,-154,o),
(219,-158,o),
(145,-153,c)
);
}
);
width = 657;
}
);
leftKerningGroup = _parenright;
unicode = 125;
},
{
glyphname = asciitilde;
layers = (
{
layerId = "CE4E9A76-E92C-4E6B-9275-59AAE218FE2B";
shapes = (
{
closed = 1;
nodes = (
(1021,462,o),
(1142,528,o),
(1233,657,c),
(1099,872,l),
(1036,776,o),
(959,730,o),
(874,730,cs),
(818,730,o),
(748,765,o),
(664,804,cs),
(580,843,o),
(494,878,o),
(410,878,cs),
(278,878,o),
(158,815,o),
(63,683,c),
(197,468,l),
(260,564,o),
(338,610,o),
(422,610,cs),
(479,610,o),
(549,575,o),
(633,536,cs),
(718,497,o),
(802,462,o),
(886,462,cs)
);
}
);
width = 1296;
},
{
layerId = "549D2AD3-0DA6-49CF-9D11-873E4390D3BF";
shapes = (
{
closed = 1;
nodes = (
(981,516,o),
(1082,569,o),
(1160,683,c),
(1080,803,l),
(1025,712,o),
(948,665,o),
(871,665,cs),
(812,665,o),
(743,700,o),
(665,739,cs),
(587,778,o),
(503,813,o),
(421,813,cs),
(314,813,o),
(213,761,o),
(134,645,c),
(216,532,l),
(274,617,o),
(349,664,o),
(425,664,cs),
(485,664,o),
(555,629,o),
(633,590,c),
(715,551,o),
(794,516,o),
(875,516,cs)
);
}
);
width = 1296;
},
{
layerId = "CD835F4B-8B2D-46BA-8F00-12B1EDA2331F";
shapes = (
{
closed = 1;
nodes = (
(954,552,o),
(1042,594,o),
(1112,699,c),
(1068,756,l),
(1018,670,o),
(941,621,o),
(869,621,cs),
(809,621,o),
(740,656,o),
(665,695,cs),
(590,734,o),
(509,769,o),
(428,769,cs),
(337,769,o),
(251,723,o),
(182,620,c),
(228,574,l),
(283,652,o),
(356,700,o),
(427,700,cs),
(488,700,o),
(558,665,o),
(633,626,c),
(712,587,o),
(788,552,o),
(868,552,cs)
);
}
);
width = 1296;
}
);
leftKerningGroup = _plus2;
rightKerningGroup = _plus;
unicode = 126;
},
{
glyphname = exclamdown;
layers = (
{
layerId = "CE4E9A76-E92C-4E6B-9275-59AAE218FE2B";
shapes = (
{
closed = 1;
nodes = (
(117,-400,l),
(601,-400,l),
(538,506,l),
(180,506,l)
);
},
{
closed = 1;
nodes = (
(492,630,o),
(590,719,o),
(590,851,cs),
(590,986,o),
(490,1070,o),
(359,1070,cs),
(229,1070,o),
(128,982,o),
(128,851,cs),
(128,719,o),
(230,630,o),
(359,630,cs)
);
}
);
width = 718;
},
{
layerId = "549D2AD3-0DA6-49CF-9D11-873E4390D3BF";
shapes = (
{
closed = 1;
nodes = (
(203,-400,l),
(447,-400,l),
(414,571,l),
(236,571,l)
);
},
{
closed = 1;
nodes = (
(408,791,o),
(472,848,o),
(472,931,cs),
(472,1017,o),
(409,1070,o),
(325,1070,cs),
(243,1070,o),
(178,1012,o),
(178,931,cs),
(178,848,o),
(245,791,o),
(325,791,cs)
);
}
);
width = 664;
},
{
layerId = "CD835F4B-8B2D-46BA-8F00-12B1EDA2331F";
shapes = (
{
closed = 1;
nodes = (
(260,-400,l),
(345,-400,l),
(332,615,l),
(274,615,l)
);
},
{
closed = 1;
nodes = (
(352,898,o),
(394,933,o),
(394,984,cs),
(394,1038,o),
(355,1070,o),
(303,1070,cs),
(253,1070,o),
(212,1033,o),
(212,984,cs),
(212,934,o),
(255,898,o),
(303,898,cs)
);
}
);
width = 628;
}
);
leftKerningGroup = _colon2;
rightKerningGroup = _colon;
unicode = 161;
},
{
glyphname = cent;
layers = (
{
layerId = "CE4E9A76-E92C-4E6B-9275-59AAE218FE2B";
shapes = (
{
closed = 1;
nodes = (
(532,-160,l),
(781,-160,l),
(781,10,l),
(776,10,l),
(869,26,o),
(946,51,o),
(1010,100,c),
(925,383,l),
(872,350,o),
(825,334,o),
(776,326,c),
(776,716,l),
(814,712,o),
(859,696,o),
(898,670,c),
(1021,923,l),
(956,982,o),
(859,1019,o),
(776,1030,c),
(781,1030,l),
(781,1200,l),
(532,1200,l),
(532,1028,l),
(538,1028,l),
(303,983,o),
(146,776,o),
(146,520,cs),
(146,261,o),
(305,54,o),
(538,12,c),
(532,12,l)
);
},
{
closed = 1;
nodes = (
(538,337,l),
(463,358,o),
(431,442,o),
(431,520,cs),
(431,592,o),
(460,697,o),
(538,706,c)
);
}
);
width = 1200;
},
{
layerId = "549D2AD3-0DA6-49CF-9D11-873E4390D3BF";
shapes = (
{
closed = 1;
nodes = (
(574,-169,l),
(730,-169,l),
(730,4,l),
(724,4,l),
(835,17,o),
(920,55,o),
(1000,124,c),
(918,265,l),
(872,220,o),
(803,186,o),
(729,176,c),
(729,867,l),
(791,862,o),
(852,836,o),
(901,798,c),
(991,932,l),
(913,999,o),
(822,1033,o),
(723,1037,c),
(730,1037,l),
(730,1209,l),
(574,1209,l),
(574,1032,l),
(580,1032,l),
(333,993,o),
(163,790,o),
(163,520,cs),
(163,245,o),
(335,42,o),
(580,6,c),
(574,6,l)
);
},
{
closed = 1;
nodes = (
(576,181,l),
(410,215,o),
(332,343,o),
(332,521,cs),
(332,703,o),
(411,833,o),
(576,862,c)
);
}
);
width = 1200;
},
{
layerId = "CD835F4B-8B2D-46BA-8F00-12B1EDA2331F";
shapes = (
{
closed = 1;
nodes = (
(602,-175,l),
(695,-175,l),
(695,1,l),
(689,1,l),
(812,11,o),
(904,57,o),
(994,139,c),
(912,186,l),
(871,133,o),
(788,88,o),
(696,75,c),
(696,968,l),
(776,961,o),
(848,929,o),
(903,882,c),
(970,938,l),
(885,1009,o),
(798,1041,o),
(688,1041,c),
(695,1041,l),
(695,1215,l),
(602,1215,l),
(602,1034,l),
(608,1034,l),
(352,999,o),
(175,799,o),
(175,520,cs),
(175,233,o),
(354,34,o),
(608,3,c),
(602,3,l)
);
},
{
closed = 1;
nodes = (
(601,77,l),
(375,119,o),
(266,277,o),
(266,522,cs),
(266,776,o),
(377,925,o),
(601,966,c)
);
}
);
width = 1200;
}
);
unicode = 162;
},
{
glyphname = sterling;
layers = (
{
layerId = "CE4E9A76-E92C-4E6B-9275-59AAE218FE2B";
shapes = (
{
closed = 1;
nodes = (
(113,0,l),
(1170,0,l),
(1170,301,l),
(596,301,l),
(640,367,o),
(662,436,o),
(662,518,cs),
(662,584,o),
(639,668,o),
(622,758,cs),
(608,833,o),
(584,905,o),
(584,983,cs),
(584,1041,o),
(598,1088,o),
(629,1122,cs),
(653,1148,o),
(691,1165,o),
(739,1165,cs),
(824,1165,o),
(910,1136,o),
(1011,1035,c),
(1145,1292,l),
(1066,1403,o),
(867,1470,o),
(732,1470,cs),
(532,1470,o),
(376,1390,o),
(291,1252,cs),
(248,1181,o),
(225,1106,o),
(225,1022,cs),
(225,967,o),
(241,913,o),
(254,862,c),
(266,811,o),
(282,760,o),
(297,711,cs),
(314,653,o),
(344,575,o),
(344,513,cs),
(344,408,o),
(315,354,o),
(250,325,c),
(215,311,o),
(168,296,o),
(113,289,c)
);
},
{
closed = 1;
nodes = (
(95,578,l),
(972,578,l),
(972,831,l),
(95,831,l)
);
}
);
width = 1200;
},
{
layerId = "549D2AD3-0DA6-49CF-9D11-873E4390D3BF";
shapes = (
{
closed = 1;
nodes = (
(165,0,l),
(1123,0,l),
(1123,166,l),
(452,166,l),
(547,242,o),
(597,325,o),
(597,455,cs),
(597,547,o),
(569,648,o),
(537,755,cs),
(507,854,o),
(478,952,o),
(478,1048,cs),
(478,1125,o),
(497,1183,o),
(540,1232,cs),
(580,1278,o),
(640,1300,o),
(722,1300,cs),
(825,1300,o),
(917,1269,o),
(1008,1183,c),
(1089,1328,l),
(999,1422,o),
(851,1470,o),
(722,1470,cs),
(549,1470,o),
(413,1403,o),
(340,1280,cs),
(302,1217,o),
(282,1149,o),
(282,1070,cs),
(282,981,o),
(313,874,o),
(345,791,c),
(361,738,o),
(381,685,o),
(395,635,cs),
(411,581,o),
(425,519,o),
(425,461,cs),
(425,358,o),
(393,293,o),
(337,249,c),
(293,210,o),
(234,183,o),
(165,161,c)
);
},
{
closed = 1;
nodes = (
(145,632,l),
(973,632,l),
(973,781,l),
(145,781,l)
);
}
);
width = 1200;
},
{
layerId = "CD835F4B-8B2D-46BA-8F00-12B1EDA2331F";
shapes = (
{
closed = 1;
nodes = (
(200,0,l),
(1090,0,l),
(1090,78,l),
(355,78,l),
(484,157,o),
(554,251,o),
(554,413,cs),
(554,523,o),
(520,636,o),
(479,752,c),
(442,868,o),
(407,985,o),
(407,1091,cs),
(407,1179,o),
(430,1244,o),
(481,1305,cs),
(531,1363,o),
(605,1390,o),
(709,1390,cs),
(825,1390,o),
(921,1357,o),
(1005,1282,c),
(1050,1351,l),
(953,1434,o),
(841,1470,o),
(716,1470,cs),
(559,1470,o),
(438,1410,o),
(373,1298,cs),
(338,1240,o),
(321,1178,o),
(321,1102,cs),
(321,989,o),
(361,848,o),
(406,743,c),
(425,690,o),
(445,633,o),
(459,583,cs),
(475,532,o),
(477,480,o),
(477,426,cs),
(477,325,o),
(445,252,o),
(396,197,c),
(345,145,o),
(277,108,o),
(200,78,c)
);
},
{
closed = 1;
nodes = (
(179,668,l),
(974,668,l),
(974,747,l),
(179,747,l)
);
}
);
width = 1200;
}
);
unicode = 163;
},
{
glyphname = currency;
layers = (
{
layerId = "CE4E9A76-E92C-4E6B-9275-59AAE218FE2B";
shapes = (
{
closed = 1;
nodes = (
(270,63,l),
(411,219,l),
(469,189,o),
(535,171,o),
(600,171,cs),
(669,171,o),
(732,187,o),
(789,219,c),
(931,63,l),
(1116,263,l),
(974,413,l),
(1008,479,o),
(1025,553,o),
(1025,620,cs),
(1025,691,o),
(1008,765,o),
(974,827,c),
(1116,981,l),
(931,1181,l),
(789,1025,l),
(732,1057,o),
(665,1073,o),
(600,1073,cs),
(535,1073,o),
(469,1059,o),
(411,1025,c),
(270,1181,l),
(84,981,l),
(225,827,l),
(196,765,o),
(175,691,o),
(175,620,cs),
(175,553,o),
(195,478,o),
(225,413,c),
(84,263,l)
);
},
{
closed = 1;
nodes = (
(509,453,o),
(453,532,o),
(452,616,cs),
(451,712,o),
(508,781,o),
(594,782,c),
(684,786,o),
(739,720,o),
(743,627,c),
(751,539,o),
(699,453,o),
(600,453,cs)
);
}
);
width = 1200;
},
{
layerId = "549D2AD3-0DA6-49CF-9D11-873E4390D3BF";
shapes = (
{
closed = 1;
nodes = (
(250,124,l),
(391,278,l),
(454,231,o),
(522,209,o),
(600,209,cs),
(676,209,o),
(746,229,o),
(809,278,c),
(951,124,l),
(1059,240,l),
(919,393,l),
(965,463,o),
(988,542,o),
(988,620,cs),
(988,702,o),
(965,782,o),
(919,850,c),
(1059,1001,l),
(951,1119,l),
(809,965,l),
(749,1013,o),
(678,1033,o),
(600,1033,cs),
(526,1033,o),
(454,1017,o),
(391,965,c),
(250,1119,l),
(142,1001,l),
(282,850,l),
(239,782,o),
(214,702,o),
(214,620,cs),
(214,542,o),
(236,464,o),
(282,393,c),
(142,240,l)
);
},
{
closed = 1;
nodes = (
(502,365,o),
(427,428,o),
(395,516,c),
(377,575,o),
(387,630,o),
(414,670,c),
(442,790,o),
(535,856,o),
(644,827,c),
(894,800,o),
(875,365,o),
(600,365,cs)
);
}
);
width = 1200;
},
{
layerId = "CD835F4B-8B2D-46BA-8F00-12B1EDA2331F";
shapes = (
{
closed = 1;
nodes = (
(237,165,l),
(378,317,l),
(444,259,o),
(514,234,o),
(600,234,cs),
(679,234,o),
(756,257,o),
(822,317,c),
(963,165,l),
(1020,225,l),
(881,380,l),
(937,451,o),
(963,535,o),
(963,620,cs),
(963,709,o),
(937,792,o),
(881,865,c),
(1020,1014,l),
(963,1077,l),
(822,924,l),
(761,984,o),
(686,1008,o),
(600,1008,cs),
(520,1008,o),
(444,989,o),
(378,924,c),
(237,1077,l),
(180,1014,l),
(320,865,l),
(267,794,o),
(239,709,o),
(239,620,cs),
(239,535,o),
(263,454,o),
(320,380,c),
(180,225,l)
);
},
{
closed = 1;
nodes = (
(498,306,o),
(409,359,o),
(357,449,c),
(327,484,o),
(308,529,o),
(294,595,c),
(280,792,o),
(399,945,o),
(578,960,c),
(989,974,o),
(992,306,o),
(600,306,cs)
);
}
);
width = 1200;
}
);
unicode = 164;
},
{
glyphname = yen;
layers = (
{
layerId = "CE4E9A76-E92C-4E6B-9275-59AAE218FE2B";
shapes = (
{
closed = 1;
nodes = (
(432,0,l),
(787,0,l),
(787,255,l),
(1128,255,l),
(1128,484,l),
(787,484,l),
(787,602,l),
(1128,602,l),
(1128,831,l),
(879,831,l),
(1246,1440,l),
(872,1440,l),
(615,963,l),
(375,1440,l),
(-11,1440,l),
(343,831,l),
(95,831,l),
(95,602,l),
(432,602,l),
(432,484,l),
(95,484,l),
(95,255,l),
(432,255,l)
);
}
);
width = 1200;
},
{
layerId = "549D2AD3-0DA6-49CF-9D11-873E4390D3BF";
shapes = (
{
closed = 1;
nodes = (
(519,0,l),
(712,0,l),
(712,304,l),
(1073,304,l),
(1073,446,l),
(712,446,l),
(712,630,l),
(1073,630,l),
(1073,772,l),
(785,772,l),
(1172,1440,l),
(970,1440,l),
(615,822,l),
(273,1440,l),
(61,1440,l),
(447,772,l),
(157,772,l),
(157,630,l),
(519,630,l),
(519,446,l),
(157,446,l),
(157,304,l),
(519,304,l)
);
}
);
width = 1200;
},
{
layerId = "CD835F4B-8B2D-46BA-8F00-12B1EDA2331F";
shapes = (
{
closed = 1;
nodes = (
(577,0,l),
(659,0,l),
(659,338,l),
(1038,338,l),
(1038,422,l),
(659,422,l),
(659,650,l),
(1038,650,l),
(1038,733,l),
(723,733,l),
(1123,1440,l),
(1035,1440,l),
(615,726,l),
(204,1440,l),
(111,1440,l),
(515,733,l),
(199,733,l),
(199,650,l),
(577,650,l),
(577,422,l),
(199,422,l),
(199,338,l),
(577,338,l)
);
}
);
width = 1200;
}
);
unicode = 165;
},
{
glyphname = brokenbar;
layers = (
{
layerId = "CE4E9A76-E92C-4E6B-9275-59AAE218FE2B";
shapes = (
{
closed = 1;
nodes = (
(200,810,l),
(515,810,l),
(515,1480,l),
(200,1480,l)
);
},
{
closed = 1;
nodes = (
(200,-100,l),
(515,-100,l),
(515,570,l),
(200,570,l)
);
}
);
width = 715;
},
{
layerId = "549D2AD3-0DA6-49CF-9D11-873E4390D3BF";
shapes = (
{
closed = 1;
nodes = (
(200,810,l),
(366,810,l),
(366,1480,l),
(200,1480,l)
);
},
{
closed = 1;
nodes = (
(200,-100,l),
(366,-100,l),
(366,570,l),
(200,570,l)
);
}
);
width = 566;
},
{
layerId = "CD835F4B-8B2D-46BA-8F00-12B1EDA2331F";
shapes = (
{
closed = 1;
nodes = (
(200,810,l),
(267,810,l),
(267,1480,l),
(200,1480,l)
);
},
{
closed = 1;
nodes = (
(200,-100,l),
(267,-100,l),
(267,570,l),
(200,570,l)
);
}
);
width = 467;
}
);
leftKerningGroup = _bar2;
rightKerningGroup = _bar;
unicode = 166;
},
{
glyphname = section;
layers = (
{
layerId = "CE4E9A76-E92C-4E6B-9275-59AAE218FE2B";
shapes = (
{
closed = 1;
nodes = (
(871,-462,o),
(1034,-394,o),
(1130,-271,c),
(1175,-207,o),
(1199,-135,o),
(1199,-52,cs),
(1199,65,o),
(1165,152,o),
(1089,214,c),
(1016,281,o),
(901,325,o),
(736,357,c),
(637,378,o),
(569,399,o),
(520,425,cs),
(473,449,o),
(447,483,o),
(447,529,cs),
(447,600,o),
(492,647,o),
(568,671,c),
(603,681,o),
(640,688,o),
(684,687,c),
(682,897,l),
(513,901,o),
(373,860,o),
(266,789,c),
(160,716,o),
(99,618,o),
(99,502,cs),
(99,345,o),
(176,249,o),
(343,182,cs),
(426,149,o),
(529,121,o),
(656,94,c),
(769,72,o),
(829,48,o),
(850,16,c),
(864,-1,o),
(870,-20,o),
(870,-43,cs),
(870,-73,o),
(850,-103,o),
(814,-120,c),
(777,-142,o),
(730,-151,o),
(672,-151,cs),
(600,-151,o),
(527,-139,o),
(452,-114,cs),
(375,-89,o),
(312,-55,o),
(255,-13,c),
(131,-300,l),
(193,-346,o),
(271,-388,o),
(364,-416,c),
(459,-448,o),
(552,-462,o),
(658,-462,cs)
);
},
{
closed = 1;
nodes = (
(694,116,l),
(803,116,o),
(901,133,o),
(991,165,cs),
(1081,199,o),
(1148,244,o),
(1199,305,cs),
(1253,366,o),
(1279,436,o),
(1279,518,cs),
(1279,630,o),
(1232,714,o),
(1143,775,c),
(1052,834,o),
(916,883,o),
(728,920,c),
(607,945,o),
(549,967,o),
(527,997,cs),
(514,1014,o),
(507,1032,o),
(507,1054,cs),
(507,1085,o),
(527,1110,o),
(559,1131,c),
(596,1149,o),
(637,1159,o),
(696,1159,cs),
(779,1159,o),
(878,1136,o),
(969,1093,c),
(1015,1074,o),
(1056,1049,o),
(1091,1021,c),
(1215,1308,l),
(1146,1361,o),
(1071,1403,o),
(982,1429,cs),
(890,1457,o),
(798,1470,o),
(704,1470,cs),
(495,1470,o),
(338,1402,o),
(248,1280,cs),
(202,1217,o),
(181,1149,o),
(181,1067,cs),
(181,950,o),
(214,865,o),
(288,799,c),
(358,734,o),
(475,687,o),
(635,656,c),
(772,631,o),
(857,606,o),
(898,567,cs),
(919,546,o),
(931,520,o),
(931,492,cs),
(931,413,o),
(882,364,o),
(807,340,c),
(771,331,o),
(731,323,o),
(690,323,c)
);
}
);
width = 1318;
},
{
layerId = "549D2AD3-0DA6-49CF-9D11-873E4390D3BF";
shapes = (
{
closed = 1;
nodes = (
(815,-462,o),
(959,-398,o),
(1040,-285,c),
(1078,-227,o),
(1099,-162,o),
(1099,-87,cs),
(1099,19,o),
(1068,98,o),
(999,152,c),
(931,209,o),
(832,252,o),
(689,285,cs),
(576,311,o),
(496,343,o),
(436,379,cs),
(380,412,o),
(349,463,o),
(349,535,cs),
(349,625,o),
(404,694,o),
(498,731,c),
(544,747,o),
(593,757,o),
(649,755,c),
(655,883,l),
(518,887,o),
(400,850,o),
(309,786,c),
(219,720,o),
(168,632,o),
(168,525,cs),
(168,385,o),
(229,292,o),
(364,223,cs),
(431,189,o),
(513,160,o),
(619,132,cs),
(773,91,o),
(857,55,o),
(892,4,c),
(912,-22,o),
(920,-54,o),
(920,-93,cs),
(920,-154,o),
(894,-205,o),
(841,-240,cs),
(786,-277,o),
(720,-293,o),
(633,-293,cs),
(566,-293,o),
(498,-281,o),
(430,-256,cs),
(359,-231,o),
(301,-194,o),
(252,-146,c),
(163,-303,l),
(213,-346,o),
(280,-387,o),
(362,-416,c),
(446,-448,o),
(532,-462,o),
(626,-462,cs)
);
},
{
closed = 1;
nodes = (
(659,131,l),
(756,131,o),
(840,147,o),
(917,180,cs),
(993,213,o),
(1051,258,o),
(1095,316,cs),
(1141,377,o),
(1163,444,o),
(1163,525,cs),
(1163,627,o),
(1124,700,o),
(1046,759,c),
(971,814,o),
(862,860,o),
(715,893,c),
(569,931,o),
(479,960,o),
(437,1012,cs),
(414,1039,o),
(404,1074,o),
(404,1116,cs),
(404,1174,o),
(428,1218,o),
(475,1253,c),
(527,1285,o),
(586,1302,o),
(662,1302,cs),
(752,1302,o),
(843,1281,o),
(923,1236,c),
(963,1217,o),
(1000,1191,o),
(1031,1160,c),
(1113,1319,l),
(1056,1369,o),
(993,1407,o),
(917,1432,cs),
(841,1458,o),
(762,1470,o),
(677,1470,cs),
(497,1470,o),
(363,1406,o),
(288,1297,cs),
(248,1240,o),
(231,1182,o),
(231,1111,cs),
(231,1014,o),
(260,937,o),
(325,881,cs),
(388,825,o),
(490,777,o),
(635,741,cs),
(799,700,o),
(896,666,o),
(940,612,cs),
(963,586,o),
(975,551,o),
(975,509,cs),
(975,403,o),
(916,329,o),
(822,288,c),
(773,269,o),
(718,257,o),
(659,257,c)
);
}
);
width = 1254;
},
{
layerId = "CD835F4B-8B2D-46BA-8F00-12B1EDA2331F";
shapes = (
{
closed = 1;
nodes = (
(776,-462,o),
(907,-401,o),
(980,-295,c),
(1015,-239,o),
(1034,-181,o),
(1034,-108,cs),
(1034,-12,o),
(1003,61,o),
(938,110,c),
(875,161,o),
(783,202,o),
(655,237,c),
(534,268,o),
(448,304,o),
(381,346,cs),
(316,388,o),
(284,450,o),
(284,538,cs),
(284,640,o),
(345,724,o),
(452,770,cs),
(503,790,o),
(560,803,o),
(627,800,c),
(639,873,l),
(521,877,o),
(416,844,o),
(338,783,cs),
(260,723,o),
(213,640,o),
(213,540,cs),
(213,410,o),
(263,320,o),
(379,249,c),
(434,214,o),
(503,185,o),
(593,156,c),
(776,103,o),
(877,58,o),
(920,-4,cs),
(943,-38,o),
(953,-77,o),
(953,-127,cs),
(953,-208,o),
(923,-274,o),
(857,-317,c),
(792,-365,o),
(713,-388,o),
(607,-388,cs),
(543,-388,o),
(479,-376,o),
(414,-350,cs),
(349,-325,o),
(294,-286,o),
(249,-235,c),
(185,-305,l),
(227,-346,o),
(286,-386,o),
(360,-415,c),
(437,-448,o),
(516,-462,o),
(604,-462,cs)
);
},
{
closed = 1;
nodes = (
(637,141,l),
(724,141,o),
(798,157,o),
(868,189,c),
(934,222,o),
(987,266,o),
(1027,324,c),
(1066,383,o),
(1085,450,o),
(1085,528,cs),
(1085,624,o),
(1051,692,o),
(983,749,c),
(915,800,o),
(825,844,o),
(705,877,cs),
(543,921,o),
(431,955,o),
(377,1022,c),
(346,1056,o),
(333,1101,o),
(333,1158,cs),
(333,1232,o),
(361,1289,o),
(419,1333,c),
(478,1374,o),
(550,1396,o),
(641,1396,cs),
(734,1396,o),
(821,1377,o),
(893,1332,c),
(928,1312,o),
(961,1286,o),
(990,1250,c),
(1045,1326,l),
(994,1375,o),
(940,1409,o),
(874,1434,c),
(806,1458,o),
(737,1470,o),
(656,1470,cs),
(498,1470,o),
(381,1408,o),
(313,1308,cs),
(278,1256,o),
(263,1204,o),
(263,1140,cs),
(263,1054,o),
(289,986,o),
(348,935,cs),
(406,885,o),
(500,838,o),
(634,797,c),
(816,745,o),
(921,705,o),
(968,642,c),
(992,611,o),
(1003,571,o),
(1003,523,cs),
(1003,396,o),
(937,305,o),
(830,252,c),
(774,229,o),
(709,213,o),
(640,213,c)
);
}
);
width = 1210;
}
);
unicode = 167;
},
{
glyphname = copyright;
layers = (
{
layerId = "CE4E9A76-E92C-4E6B-9275-59AAE218FE2B";
shapes = (
{
closed = 1;
nodes = (
(1070,-49,o),
(1252,30,o),
(1391,165,cs),
(1530,301,o),
(1609,483,o),
(1609,696,cs),
(1609,907,o),
(1530,1089,o),
(1391,1225,cs),
(1252,1361,o),
(1071,1441,o),
(855,1441,cs),
(640,1441,o),
(459,1364,o),
(320,1228,cs),
(180,1092,o),
(102,912,o),
(102,696,cs),
(102,484,o),
(181,302,o),
(321,166,cs),
(460,31,o),
(641,-49,o),
(856,-49,cs)
);
},
{
closed = 1;
nodes = (
(695,113,o),
(556,170,o),
(450,274,c),
(342,376,o),
(282,518,o),
(282,696,cs),
(282,877,o),
(343,1017,o),
(450,1121,c),
(557,1223,o),
(696,1278,o),
(856,1278,cs),
(1017,1278,o),
(1155,1223,o),
(1262,1121,c),
(1369,1017,o),
(1429,877,o),
(1429,696,cs),
(1429,518,o),
(1370,376,o),
(1262,274,c),
(1156,170,o),
(1016,113,o),
(855,113,cs)
);
},
{
closed = 1;
nodes = (
(1028,280,o),
(1130,321,o),
(1204,374,c),
(1112,545,l),
(1045,500,o),
(972,478,o),
(898,478,cs),
(823,478,o),
(766,496,o),
(723,538,c),
(678,576,o),
(657,630,o),
(657,696,cs),
(657,767,o),
(678,817,o),
(722,857,cs),
(764,896,o),
(822,916,o),
(896,916,cs),
(979,916,o),
(1040,893,o),
(1084,848,c),
(1185,1016,l),
(1110,1080,o),
(1021,1113,o),
(882,1113,cs),
(710,1113,o),
(578,1040,o),
(500,913,c),
(463,847,o),
(443,776,o),
(443,694,cs),
(443,523,o),
(522,399,o),
(653,332,c),
(719,296,o),
(794,280,o),
(880,280,cs)
);
}
);
width = 1676;
},
{
layerId = "549D2AD3-0DA6-49CF-9D11-873E4390D3BF";
shapes = (
{
closed = 1;
nodes = (
(1074,-36,o),
(1254,43,o),
(1393,179,c),
(1530,314,o),
(1609,496,o),
(1609,709,cs),
(1609,922,o),
(1530,1103,o),
(1393,1239,c),
(1254,1375,o),
(1074,1455,o),
(855,1455,cs),
(639,1455,o),
(455,1378,o),
(318,1242,cs),
(181,1107,o),
(102,926,o),
(102,709,cs),
(102,498,o),
(182,316,o),
(318,181,cs),
(455,45,o),
(639,-36,o),
(856,-36,cs)
);
},
{
closed = 1;
nodes = (
(685,75,o),
(533,136,o),
(415,250,c),
(294,361,o),
(224,516,o),
(224,709,cs),
(224,905,o),
(296,1057,o),
(414,1171,c),
(535,1282,o),
(686,1343,o),
(856,1343,cs),
(1028,1343,o),
(1178,1282,o),
(1298,1171,c),
(1417,1057,o),
(1487,905,o),
(1487,709,cs),
(1487,516,o),
(1419,361,o),
(1297,250,c),
(1180,136,o),
(1027,75,o),
(855,75,cs)
);
},
{
closed = 1;
nodes = (
(1014,293,o),
(1110,327,o),
(1189,385,c),
(1126,500,l),
(1056,446,o),
(976,424,o),
(897,424,cs),
(803,424,o),
(731,448,o),
(676,501,c),
(619,550,o),
(592,621,o),
(592,709,cs),
(592,799,o),
(619,866,o),
(675,920,cs),
(728,971,o),
(800,994,o),
(890,994,cs),
(976,994,o),
(1045,973,o),
(1095,925,c),
(1166,1037,l),
(1098,1094,o),
(1009,1126,o),
(881,1126,cs),
(711,1126,o),
(581,1052,o),
(506,925,c),
(471,860,o),
(450,790,o),
(450,708,cs),
(450,537,o),
(526,413,o),
(654,346,c),
(720,309,o),
(794,293,o),
(880,293,cs)
);
}
);
width = 1676;
},
{
layerId = "CD835F4B-8B2D-46BA-8F00-12B1EDA2331F";
shapes = (
{
closed = 1;
nodes = (
(1076,-28,o),
(1255,51,o),
(1394,187,c),
(1530,323,o),
(1609,504,o),
(1609,718,cs),
(1609,930,o),
(1530,1112,o),
(1394,1247,c),
(1255,1383,o),
(1076,1463,o),
(855,1463,cs),
(638,1463,o),
(452,1386,o),
(317,1250,cs),
(182,1115,o),
(102,934,o),
(102,718,cs),
(102,506,o),
(182,325,o),
(316,189,cs),
(452,53,o),
(637,-28,o),
(855,-28,cs)
);
},
{
closed = 1;
nodes = (
(678,49,o),
(518,112,o),
(392,234,c),
(261,351,o),
(185,513,o),
(185,718,cs),
(185,924,o),
(263,1082,o),
(391,1205,c),
(520,1322,o),
(679,1386,o),
(855,1386,cs),
(1034,1386,o),
(1193,1322,o),
(1322,1205,c),
(1450,1082,o),
(1526,924,o),
(1526,718,cs),
(1526,513,o),
(1452,351,o),
(1321,234,c),
(1195,112,o),
(1033,49,o),
(855,49,cs)
);
},
{
closed = 1;
nodes = (
(1003,301,o),
(1096,330,o),
(1179,392,c),
(1136,471,l),
(1062,410,o),
(979,388,o),
(896,388,cs),
(790,388,o),
(708,415,o),
(643,477,c),
(579,534,o),
(549,615,o),
(549,718,cs),
(549,821,o),
(579,899,o),
(642,961,cs),
(704,1020,o),
(785,1046,o),
(887,1046,cs),
(974,1046,o),
(1048,1027,o),
(1102,977,c),
(1154,1052,l),
(1091,1103,o),
(1000,1134,o),
(880,1134,cs),
(713,1134,o),
(583,1060,o),
(509,932,c),
(474,867,o),
(454,799,o),
(454,718,cs),
(454,547,o),
(529,424,o),
(655,354,cs),
(721,317,o),
(794,301,o),
(880,301,cs)
);
}
);
width = 1676;
}
);
rightKerningGroup = _at;
unicode = 169;
},
{
glyphname = ordfeminine;
layers = (
{
layerId = "CE4E9A76-E92C-4E6B-9275-59AAE218FE2B";
shapes = (
{
closed = 1;
nodes = (
(419,717,o),
(524,755,o),
(571,823,c),
(612,762,o),
(681,717,o),
(777,717,cs),
(791,717,o),
(803,718,o),
(832,721,c),
(853,918,l),
(845,915,o),
(832,914,o),
(825,914,cs),
(786,914,o),
(774,943,o),
(774,984,cs),
(774,1169,ls),
(774,1383,o),
(615,1470,o),
(414,1470,cs),
(294,1470,o),
(177,1438,o),
(79,1372,c),
(153,1204,l),
(210,1228,o),
(288,1241,o),
(360,1241,cs),
(398,1241,o),
(517,1237,o),
(517,1185,cs),
(517,1180,l),
(547,1185,l),
(508,1190,o),
(474,1190,o),
(472,1190,cs),
(273,1190,o),
(40,1152,o),
(40,947,cs),
(40,800,o),
(159,717,o),
(312,717,cs)
);
},
{
closed = 1;
nodes = (
(347,929,o),
(314,941,o),
(314,969,cs),
(314,1012,o),
(398,1019,o),
(448,1019,cs),
(477,1019,o),
(512,1016,o),
(550,1009,c),
(519,1019,l),
(519,1003,ls),
(519,951,o),
(464,929,o),
(398,929,cs)
);
}
);
width = 832;
},
{
layerId = "549D2AD3-0DA6-49CF-9D11-873E4390D3BF";
shapes = (
{
closed = 1;
nodes = (
(435,717,o),
(535,758,o),
(585,835,c),
(605,779,o),
(653,717,o),
(738,717,cs),
(751,717,o),
(773,719,o),
(790,722,c),
(804,839,l),
(797,836,o),
(784,834,o),
(776,834,cs),
(731,834,o),
(711,879,o),
(711,917,cs),
(711,1197,ls),
(711,1393,o),
(577,1470,o),
(395,1470,cs),
(299,1470,o),
(197,1449,o),
(107,1385,c),
(154,1277,l),
(225,1320,o),
(297,1337,o),
(370,1337,cs),
(469,1337,o),
(568,1298,o),
(568,1199,cs),
(568,1150,l),
(600,1163,l),
(545,1170,o),
(494,1173,o),
(457,1173,cs),
(293,1173,o),
(63,1138,o),
(63,933,cs),
(63,787,o),
(180,717,o),
(324,717,cs)
);
},
{
closed = 1;
nodes = (
(269,844,o),
(213,880,o),
(213,943,cs),
(213,1049,o),
(367,1064,o),
(452,1064,cs),
(494,1064,o),
(545,1060,o),
(602,1051,c),
(569,1078,l),
(569,997,ls),
(569,890,o),
(458,844,o),
(357,844,cs)
);
}
);
width = 795;
},
{
layerId = "CD835F4B-8B2D-46BA-8F00-12B1EDA2331F";
shapes = (
{
closed = 1;
nodes = (
(445,717,o),
(542,760,o),
(595,842,c),
(599,791,o),
(635,717,o),
(713,717,cs),
(726,717,o),
(751,719,o),
(763,723,c),
(772,786,l),
(765,781,o),
(751,779,o),
(742,779,cs),
(694,779,o),
(669,836,o),
(669,872,cs),
(669,1216,ls),
(669,1400,o),
(551,1470,o),
(383,1470,cs),
(302,1470,o),
(210,1455,o),
(126,1393,c),
(154,1326,l),
(233,1381,o),
(303,1400,o),
(377,1400,cs),
(514,1400,o),
(601,1338,o),
(601,1209,cs),
(601,1131,l),
(636,1147,l),
(568,1157,o),
(506,1161,o),
(447,1161,cs),
(305,1161,o),
(80,1128,o),
(80,924,cs),
(80,779,o),
(193,717,o),
(331,717,cs)
);
},
{
closed = 1;
nodes = (
(216,786,o),
(146,839,o),
(146,927,cs),
(146,1074,o),
(348,1092,o),
(454,1092,cs),
(504,1092,o),
(567,1088,o),
(637,1079,c),
(601,1119,l),
(601,993,ls),
(601,849,o),
(455,786,o),
(332,786,cs)
);
}
);
width = 770;
}
);
leftKerningGroup = _degree2;
rightKerningGroup = _degree;
unicode = 170;
},
{
glyphname = guillemotleft;
layers = (
{
layerId = "CE4E9A76-E92C-4E6B-9275-59AAE218FE2B";
shapes = (
{
closed = 1;
nodes = (
(842,61,l),
(1106,220,l),
(919,527,l),
(1106,837,l),
(842,995,l),
(557,527,l)
);
},
{
closed = 1;
nodes = (
(325,61,l),
(589,220,l),
(403,527,l),
(589,837,l),
(325,995,l),
(40,527,l)
);
}
);
width = 1223;
},
{
layerId = "549D2AD3-0DA6-49CF-9D11-873E4390D3BF";
shapes = (
{
closed = 1;
nodes = (
(800,96,l),
(928,185,l),
(673,507,l),
(927,830,l),
(800,920,l),
(476,507,l)
);
},
{
closed = 1;
nodes = (
(378,96,l),
(506,185,l),
(251,507,l),
(505,830,l),
(378,920,l),
(54,507,l)
);
}
);
width = 1038;
},
{
layerId = "CD835F4B-8B2D-46BA-8F00-12B1EDA2331F";
shapes = (
{
closed = 1;
nodes = (
(772,118,l),
(809,162,l),
(509,494,l),
(808,826,l),
(772,869,l),
(422,494,l)
);
},
{
closed = 1;
nodes = (
(413,118,l),
(450,162,l),
(150,494,l),
(449,826,l),
(413,869,l),
(63,494,l)
);
}
);
width = 915;
}
);
unicode = 171;
},
{
glyphname = logicalnot;
layers = (
{
layerId = "CE4E9A76-E92C-4E6B-9275-59AAE218FE2B";
shapes = (
{
closed = 1;
nodes = (
(946,294,l),
(1225,294,l),
(1225,1046,l),
(71,1046,l),
(71,782,l),
(946,782,l)
);
}
);
width = 1296;
},
{
layerId = "549D2AD3-0DA6-49CF-9D11-873E4390D3BF";
shapes = (
{
closed = 1;
nodes = (
(994,408,l),
(1150,408,l),
(1150,924,l),
(146,924,l),
(146,776,l),
(994,776,l)
);
}
);
width = 1296;
},
{
layerId = "CD835F4B-8B2D-46BA-8F00-12B1EDA2331F";
shapes = (
{
closed = 1;
nodes = (
(1027,483,l),
(1099,483,l),
(1099,843,l),
(197,843,l),
(197,773,l),
(1027,773,l)
);
}
);
width = 1296;
}
);
leftKerningGroup = _plus2;
rightKerningGroup = _plus;
unicode = 172;
},
{
glyphname = softhyphen;
layers = (
{
layerId = "CE4E9A76-E92C-4E6B-9275-59AAE218FE2B";
shapes = (
{
closed = 1;
nodes = (
(91,395,l),
(708,395,l),
(708,739,l),
(91,739,l)
);
}
);
width = 799;
},
{
layerId = "549D2AD3-0DA6-49CF-9D11-873E4390D3BF";
shapes = (
{
closed = 1;
nodes = (
(122,476,l),
(653,476,l),
(653,648,l),
(122,648,l)
);
}
);
width = 775;
},
{
layerId = "CD835F4B-8B2D-46BA-8F00-12B1EDA2331F";
shapes = (
{
closed = 1;
nodes = (
(143,530,l),
(615,530,l),
(615,588,l),
(143,588,l)
);
}
);
width = 759;
}
);
leftKerningGroup = _hyphen2;
rightKerningGroup = _hyphen;
unicode = 173;
},
{
glyphname = registered;
layers = (
{
layerId = "CE4E9A76-E92C-4E6B-9275-59AAE218FE2B";
shapes = (
{
closed = 1;
nodes = (
(706,470,o),
(792,493,o),
(872,538,cs),
(952,583,o),
(1014,644,o),
(1061,721,cs),
(1108,798,o),
(1130,885,o),
(1130,982,cs),
(1130,1078,o),
(1108,1163,o),
(1061,1240,cs),
(1014,1317,o),
(952,1377,o),
(872,1424,c),
(792,1469,o),
(706,1492,o),
(606,1492,cs),
(506,1492,o),
(421,1470,o),
(341,1425,cs),
(261,1380,o),
(200,1320,o),
(153,1244,cs),
(106,1167,o),
(82,1079,o),
(82,982,cs),
(82,885,o),
(107,798,o),
(152,721,c),
(199,644,o),
(260,583,o),
(340,538,cs),
(420,493,o),
(506,470,o),
(606,470,cs)
);
},
{
closed = 1;
nodes = (
(530,565,o),
(462,583,o),
(398,618,cs),
(334,653,o),
(284,700,o),
(247,765,cs),
(209,829,o),
(189,898,o),
(189,982,cs),
(189,1066,o),
(207,1135,o),
(248,1200,cs),
(287,1264,o),
(335,1309,o),
(399,1344,cs),
(463,1379,o),
(531,1395,o),
(607,1395,cs),
(683,1395,o),
(750,1379,o),
(816,1344,cs),
(880,1309,o),
(929,1264,o),
(966,1200,c),
(1005,1135,o),
(1023,1066,o),
(1023,982,cs),
(1023,898,o),
(1005,829,o),
(968,765,c),
(928,700,o),
(880,653,o),
(815,618,cs),
(751,583,o),
(682,565,o),
(606,565,cs)
);
},
{
closed = 1;
nodes = (
(411,706,l),
(532,706,l),
(532,913,l),
(592,913,l),
(731,706,l),
(876,706,l),
(715,936,l),
(792,956,o),
(846,1008,o),
(846,1088,cs),
(846,1141,o),
(827,1184,o),
(790,1213,c),
(750,1242,o),
(702,1256,o),
(638,1256,cs),
(411,1256,l)
);
},
{
closed = 1;
nodes = (
(532,1010,l),
(532,1157,l),
(628,1157,ls),
(690,1157,o),
(723,1132,o),
(723,1082,cs),
(723,1035,o),
(687,1010,o),
(622,1010,cs)
);
}
);
width = 1212;
},
{
layerId = "549D2AD3-0DA6-49CF-9D11-873E4390D3BF";
shapes = (
{
closed = 1;
nodes = (
(712,476,o),
(799,499,o),
(879,544,cs),
(959,589,o),
(1020,650,o),
(1067,727,cs),
(1114,804,o),
(1136,889,o),
(1136,986,cs),
(1136,1082,o),
(1114,1167,o),
(1067,1246,cs),
(1020,1323,o),
(958,1383,o),
(878,1430,cs),
(800,1475,o),
(713,1498,o),
(612,1498,cs),
(512,1498,o),
(426,1476,o),
(346,1431,cs),
(266,1386,o),
(205,1326,o),
(158,1249,cs),
(111,1172,o),
(88,1083,o),
(88,986,cs),
(88,889,o),
(112,804,o),
(156,727,c),
(203,650,o),
(264,589,o),
(344,544,cs),
(424,499,o),
(512,476,o),
(612,476,cs)
);
},
{
closed = 1;
nodes = (
(533,551,o),
(462,569,o),
(394,605,cs),
(327,642,o),
(274,691,o),
(233,759,cs),
(193,826,o),
(172,899,o),
(172,986,cs),
(172,1074,o),
(191,1149,o),
(234,1217,cs),
(276,1284,o),
(328,1332,o),
(395,1368,cs),
(463,1405,o),
(533,1422,o),
(612,1422,cs),
(691,1422,o),
(762,1405,o),
(830,1368,cs),
(897,1332,o),
(950,1284,o),
(990,1216,c),
(1033,1149,o),
(1051,1074,o),
(1051,986,cs),
(1051,899,o),
(1033,826,o),
(992,759,cs),
(949,691,o),
(897,642,o),
(829,605,cs),
(762,569,o),
(691,551,o),
(612,551,cs)
);
},
{
closed = 1;
nodes = (
(425,712,l),
(518,712,l),
(518,930,l),
(596,930,l),
(755,712,l),
(868,712,l),
(695,946,l),
(782,963,o),
(840,1016,o),
(840,1096,cs),
(840,1148,o),
(823,1189,o),
(787,1218,cs),
(751,1247,o),
(703,1260,o),
(644,1260,cs),
(425,1260,l)
);
},
{
closed = 1;
nodes = (
(518,1007,l),
(518,1183,l),
(635,1183,ls),
(710,1183,o),
(744,1151,o),
(744,1093,cs),
(744,1040,o),
(703,1007,o),
(628,1007,cs)
);
}
);
width = 1223;
},
{
layerId = "CD835F4B-8B2D-46BA-8F00-12B1EDA2331F";
shapes = (
{
closed = 1;
nodes = (
(715,479,o),
(803,502,o),
(883,547,cs),
(963,592,o),
(1023,653,o),
(1070,730,cs),
(1117,807,o),
(1139,892,o),
(1139,989,cs),
(1139,1085,o),
(1117,1169,o),
(1070,1249,c),
(1023,1326,o),
(961,1386,o),
(881,1433,cs),
(804,1478,o),
(716,1501,o),
(615,1501,cs),
(515,1501,o),
(429,1479,o),
(349,1434,cs),
(269,1389,o),
(208,1329,o),
(161,1252,cs),
(114,1175,o),
(91,1086,o),
(91,989,cs),
(91,892,o),
(115,807,o),
(159,730,c),
(206,653,o),
(267,592,o),
(347,547,cs),
(427,502,o),
(515,479,o),
(615,479,cs)
);
},
{
closed = 1;
nodes = (
(535,541,o),
(461,560,o),
(391,597,c),
(323,635,o),
(268,685,o),
(224,755,c),
(183,823,o),
(160,899,o),
(160,989,cs),
(160,1078,o),
(179,1158,o),
(224,1227,cs),
(269,1296,o),
(322,1347,o),
(392,1384,cs),
(462,1421,o),
(534,1440,o),
(615,1440,cs),
(697,1440,o),
(769,1421,o),
(839,1384,cs),
(909,1347,o),
(965,1296,o),
(1006,1226,c),
(1051,1158,o),
(1070,1078,o),
(1070,989,cs),
(1070,899,o),
(1051,823,o),
(1007,755,cs),
(962,685,o),
(907,635,o),
(838,597,cs),
(769,560,o),
(697,541,o),
(615,541,cs)
);
},
{
closed = 1;
nodes = (
(435,715,l),
(509,715,l),
(509,942,l),
(599,942,l),
(771,715,l),
(862,715,l),
(682,952,l),
(776,966,o),
(837,1022,o),
(837,1102,cs),
(837,1152,o),
(820,1192,o),
(785,1221,cs),
(751,1250,o),
(703,1263,o),
(647,1263,cs),
(435,1263,l)
);
},
{
closed = 1;
nodes = (
(509,1005,l),
(509,1199,l),
(639,1199,ls),
(723,1199,o),
(759,1163,o),
(759,1100,cs),
(759,1043,o),
(713,1005,o),
(631,1005,cs)
);
}
);
width = 1230;
}
);
leftKerningGroup = _degree2;
rightKerningGroup = _degree;
unicode = 174;
},
{
glyphname = degree;
layers = (
{
layerId = "CE4E9A76-E92C-4E6B-9275-59AAE218FE2B";
shapes = (
{
closed = 1;
nodes = (
(620,626,o),
(752,702,o),
(827,834,c),
(867,895,o),
(883,966,o),
(883,1043,cs),
(883,1122,o),
(867,1193,o),
(827,1255,c),
(789,1317,o),
(741,1367,o),
(676,1404,cs),
(609,1442,o),
(541,1460,o),
(458,1460,cs),
(378,1460,o),
(309,1442,o),
(244,1404,c),
(178,1368,o),
(130,1317,o),
(91,1255,cs),
(53,1193,o),
(33,1122,o),
(33,1043,cs),
(33,966,o),
(53,897,o),
(91,832,cs),
(128,766,o),
(178,719,o),
(244,681,cs),
(309,644,o),
(378,626,o),
(458,626,cs)
);
},
{
closed = 1;
nodes = (
(410,875,o),
(373,889,o),
(342,922,c),
(309,953,o),
(294,995,o),
(294,1043,cs),
(294,1110,o),
(324,1162,o),
(375,1190,cs),
(399,1205,o),
(427,1211,o),
(458,1211,cs),
(507,1211,o),
(546,1196,o),
(578,1165,cs),
(608,1133,o),
(624,1092,o),
(624,1043,cs),
(624,980,o),
(595,927,o),
(545,898,cs),
(518,883,o),
(491,875,o),
(458,875,cs)
);
}
);
width = 891;
},
{
layerId = "549D2AD3-0DA6-49CF-9D11-873E4390D3BF";
shapes = (
{
closed = 1;
nodes = (
(616,698,o),
(738,771,o),
(806,889,c),
(845,944,o),
(860,1010,o),
(860,1079,cs),
(860,1150,o),
(845,1215,o),
(806,1272,c),
(773,1328,o),
(728,1375,o),
(668,1408,c),
(608,1443,o),
(545,1460,o),
(472,1460,cs),
(398,1460,o),
(337,1443,o),
(277,1408,c),
(216,1375,o),
(171,1328,o),
(135,1272,c),
(101,1215,o),
(82,1150,o),
(82,1080,cs),
(82,1011,o),
(101,947,o),
(135,888,cs),
(169,829,o),
(216,784,o),
(277,750,cs),
(337,716,o),
(398,698,o),
(472,698,cs)
);
},
{
closed = 1;
nodes = (
(400,843,o),
(344,865,o),
(301,909,cs),
(256,953,o),
(233,1011,o),
(233,1079,cs),
(233,1173,o),
(277,1245,o),
(348,1286,c),
(385,1306,o),
(425,1315,o),
(472,1315,cs),
(544,1315,o),
(600,1295,o),
(644,1252,cs),
(686,1209,o),
(708,1152,o),
(708,1079,cs),
(708,987,o),
(669,913,o),
(597,875,c),
(560,853,o),
(519,843,o),
(472,843,cs)
);
}
);
width = 915;
},
{
layerId = "CD835F4B-8B2D-46BA-8F00-12B1EDA2331F";
shapes = (
{
closed = 1;
nodes = (
(612,746,o),
(729,816,o),
(794,925,c),
(830,979,o),
(844,1038,o),
(844,1102,cs),
(844,1169,o),
(830,1228,o),
(794,1282,c),
(763,1335,o),
(720,1379,o),
(664,1411,c),
(607,1444,o),
(548,1460,o),
(480,1460,cs),
(411,1460,o),
(353,1444,o),
(298,1411,c),
(242,1379,o),
(199,1335,o),
(163,1282,c),
(133,1228,o),
(114,1169,o),
(114,1103,cs),
(114,1039,o),
(133,982,o),
(163,925,c),
(195,870,o),
(242,828,o),
(298,795,cs),
(353,764,o),
(411,746,o),
(480,746,cs)
);
},
{
closed = 1;
nodes = (
(393,822,o),
(326,848,o),
(274,900,cs),
(219,953,o),
(191,1021,o),
(191,1102,cs),
(191,1214,o),
(244,1302,o),
(332,1348,cs),
(375,1372,o),
(423,1383,o),
(480,1383,cs),
(567,1383,o),
(636,1360,o),
(690,1310,c),
(738,1258,o),
(765,1191,o),
(765,1102,cs),
(765,990,o),
(719,902,o),
(632,858,c),
(588,834,o),
(536,822,o),
(480,822,cs)
);
}
);
width = 931;
}
);
leftKerningGroup = _degree2;
rightKerningGroup = _degree;
unicode = 176;
},
{
glyphname = twosuperior;
layers = (
{
layerId = "CE4E9A76-E92C-4E6B-9275-59AAE218FE2B";
shapes = (
{
closed = 1;
nodes = (
(476,1445,o),
(511,1417,o),
(511,1348,cs),
(511,1228,o),
(170,985,o),
(67,918,c),
(67,721,l),
(755,721,l),
(755,937,l),
(452,937,l),
(590,1016,o),
(763,1176,o),
(763,1345,cs),
(763,1551,o),
(603,1656,o),
(409,1656,cs),
(236,1656,o),
(76,1538,o),
(28,1370,c),
(233,1270,l),
(259,1338,o),
(327,1445,o),
(409,1445,cs)
);
}
);
width = 854;
},
{
layerId = "549D2AD3-0DA6-49CF-9D11-873E4390D3BF";
shapes = (
{
closed = 1;
nodes = (
(523,1516,o),
(572,1475,o),
(572,1378,cs),
(572,1191,o),
(245,938,o),
(99,833,c),
(99,711,l),
(721,711,l),
(721,849,l),
(343,849,l),
(495,954,o),
(727,1176,o),
(727,1371,cs),
(727,1550,o),
(605,1646,o),
(416,1646,cs),
(267,1646,o),
(127,1547,o),
(84,1403,c),
(217,1342,l),
(244,1427,o),
(321,1516,o),
(416,1516,cs)
);
}
);
width = 855;
},
{
layerId = "CD835F4B-8B2D-46BA-8F00-12B1EDA2331F";
shapes = (
{
closed = 1;
nodes = (
(555,1563,o),
(613,1513,o),
(613,1397,cs),
(613,1166,o),
(295,905,o),
(120,776,c),
(120,705,l),
(698,705,l),
(698,789,l),
(270,789,l),
(431,912,o),
(703,1176,o),
(703,1387,cs),
(703,1549,o),
(606,1640,o),
(419,1640,cs),
(286,1640,o),
(162,1553,o),
(122,1424,c),
(205,1390,l),
(234,1486,o),
(317,1563,o),
(419,1563,cs)
);
}
);
width = 856;
}
);
unicode = 178;
},
{
glyphname = threesuperior;
layers = (
{
layerId = "CE4E9A76-E92C-4E6B-9275-59AAE218FE2B";
shapes = (
{
closed = 1;
nodes = (
(520,702,o),
(629,756,o),
(692,844,c),
(721,889,o),
(737,938,o),
(737,994,cs),
(737,1103,o),
(686,1176,o),
(612,1221,c),
(575,1242,o),
(539,1255,o),
(498,1260,c),
(697,1443,l),
(697,1632,l),
(74,1632,l),
(74,1425,l),
(411,1425,l),
(190,1258,l),
(258,1098,l),
(302,1111,o),
(338,1114,o),
(366,1114,cs),
(406,1114,o),
(437,1105,o),
(465,1088,c),
(489,1071,o),
(500,1045,o),
(500,1013,cs),
(500,985,o),
(487,961,o),
(460,945,c),
(433,925,o),
(399,917,o),
(358,917,cs),
(315,917,o),
(275,926,o),
(234,943,cs),
(191,960,o),
(159,983,o),
(136,1011,c),
(62,810,l),
(89,779,o),
(131,757,o),
(190,734,c),
(250,714,o),
(311,702,o),
(376,702,cs)
);
}
);
width = 826;
},
{
layerId = "549D2AD3-0DA6-49CF-9D11-873E4390D3BF";
shapes = (
{
closed = 1;
nodes = (
(510,702,o),
(615,754,o),
(674,840,c),
(702,884,o),
(717,934,o),
(717,990,cs),
(717,1112,o),
(652,1188,o),
(554,1229,cs),
(504,1249,o),
(455,1256,o),
(397,1256,c),
(676,1516,l),
(676,1632,l),
(84,1632,l),
(84,1505,l),
(495,1505,l),
(203,1245,l),
(247,1146,l),
(288,1157,o),
(326,1160,o),
(358,1160,cs),
(423,1160,o),
(473,1146,o),
(514,1118,cs),
(553,1090,o),
(571,1050,o),
(571,999,cs),
(571,948,o),
(552,908,o),
(514,881,c),
(476,850,o),
(426,835,o),
(364,835,cs),
(321,835,o),
(279,842,o),
(236,858,c),
(191,873,o),
(155,894,o),
(126,919,c),
(77,796,l),
(106,769,o),
(147,750,o),
(201,730,c),
(256,713,o),
(312,702,o),
(373,702,cs)
);
}
);
width = 819;
},
{
layerId = "CD835F4B-8B2D-46BA-8F00-12B1EDA2331F";
shapes = (
{
closed = 1;
nodes = (
(503,702,o),
(606,752,o),
(662,837,cs),
(690,881,o),
(704,931,o),
(704,987,cs),
(704,1118,o),
(630,1195,o),
(515,1233,cs),
(456,1252,o),
(398,1257,o),
(330,1253,c),
(661,1564,l),
(661,1632,l),
(90,1632,l),
(90,1558,l),
(551,1558,l),
(211,1237,l),
(240,1179,l),
(279,1188,o),
(318,1191,o),
(352,1191,cs),
(433,1191,o),
(496,1173,o),
(547,1137,cs),
(595,1102,o),
(618,1053,o),
(618,989,cs),
(618,924,o),
(596,873,o),
(550,837,c),
(504,799,o),
(444,780,o),
(367,780,cs),
(324,780,o),
(282,786,o),
(237,801,cs),
(190,816,o),
(152,834,o),
(120,858,c),
(87,787,l),
(116,763,o),
(157,746,o),
(208,727,c),
(259,712,o),
(312,702,o),
(371,702,cs)
);
}
);
width = 815;
}
);
leftKerningGroup = _degree2;
rightKerningGroup = _degree;
unicode = 179;
},
{
glyphname = mu;
layers = (
{
layerId = "CE4E9A76-E92C-4E6B-9275-59AAE218FE2B";
shapes = (
{
closed = 1;
nodes = (
(129,-400,l),
(491,-400,l),
(491,-1,l),
(539,-19,o),
(587,-30,o),
(633,-30,cs),
(726,-30,o),
(813,10,o),
(874,103,c),
(874,0,l),
(1209,0,l),
(1209,1040,l),
(815,1040,l),
(815,481,ls),
(815,419,o),
(793,371,o),
(748,346,c),
(726,332,o),
(702,324,o),
(669,324,cs),
(624,324,o),
(588,337,o),
(563,369,c),
(535,398,o),
(523,435,o),
(523,480,cs),
(523,1040,l),
(129,1040,l)
);
}
);
width = 1336;
},
{
layerId = "549D2AD3-0DA6-49CF-9D11-873E4390D3BF";
shapes = (
{
closed = 1;
nodes = (
(167,-400,l),
(363,-400,l),
(363,73,l),
(422,-3,o),
(513,-30,o),
(618,-30,cs),
(737,-30,o),
(844,20,o),
(929,126,c),
(929,0,l),
(1116,0,l),
(1116,1040,l),
(911,1040,l),
(911,440,ls),
(911,328,o),
(859,241,o),
(776,195,c),
(735,171,o),
(692,159,o),
(642,159,cs),
(565,159,o),
(501,180,o),
(451,228,c),
(397,274,o),
(372,340,o),
(372,426,cs),
(372,1040,l),
(167,1040,l)
);
}
);
width = 1225;
},
{
layerId = "CD835F4B-8B2D-46BA-8F00-12B1EDA2331F";
shapes = (
{
closed = 1;
nodes = (
(192,-400,l),
(277,-400,l),
(277,123,l),
(344,9,o),
(463,-30,o),
(608,-30,cs),
(744,-30,o),
(865,26,o),
(965,141,c),
(965,0,l),
(1054,0,l),
(1054,1040,l),
(974,1040,l),
(974,413,ls),
(974,267,o),
(903,154,o),
(794,94,c),
(741,63,o),
(685,49,o),
(624,49,cs),
(525,49,o),
(444,75,o),
(376,134,c),
(306,192,o),
(271,276,o),
(271,388,cs),
(271,1040,l),
(192,1040,l)
);
}
);
width = 1152;
}
);
unicode = (181,956);
},
{
glyphname = paragraph;
layers = (
{
layerId = "CE4E9A76-E92C-4E6B-9275-59AAE218FE2B";
shapes = (
{
closed = 1;
nodes = (
(572,-412,l),
(836,-412,l),
(836,1222,l),
(973,1222,l),
(973,-412,l),
(1237,-412,l),
(1237,1222,l),
(1447,1222,l),
(1447,1440,l),
(625,1440,ls),
(393,1440,o),
(213,1361,o),
(116,1214,c),
(67,1145,o),
(42,1060,o),
(42,961,cs),
(42,765,o),
(142,621,o),
(322,542,c),
(409,501,o),
(509,482,o),
(625,482,c),
(572,530,l)
);
}
);
width = 1438;
},
{
layerId = "549D2AD3-0DA6-49CF-9D11-873E4390D3BF";
shapes = (
{
closed = 1;
nodes = (
(525,-412,l),
(680,-412,l),
(680,1302,l),
(869,1302,l),
(869,-412,l),
(1024,-412,l),
(1024,1302,l),
(1246,1302,l),
(1246,1440,l),
(557,1440,ls),
(358,1440,o),
(214,1371,o),
(136,1248,c),
(97,1190,o),
(78,1120,o),
(78,1041,cs),
(78,883,o),
(156,762,o),
(303,692,cs),
(376,658,o),
(459,641,o),
(557,641,c),
(525,683,l)
);
}
);
width = 1270;
},
{
layerId = "CD835F4B-8B2D-46BA-8F00-12B1EDA2331F";
shapes = (
{
closed = 1;
nodes = (
(492,-412,l),
(576,-412,l),
(576,1354,l),
(800,1354,l),
(800,-412,l),
(882,-412,l),
(882,1354,l),
(1113,1354,l),
(1113,1440,l),
(511,1440,ls),
(337,1440,o),
(214,1377,o),
(148,1270,cs),
(116,1218,o),
(100,1160,o),
(100,1093,cs),
(100,960,o),
(165,857,o),
(291,793,c),
(353,762,o),
(424,747,o),
(511,747,c),
(492,784,l)
);
}
);
width = 1159;
}
);
unicode = 182;
},
{
glyphname = onesuperior;
layers = (
{
layerId = "CE4E9A76-E92C-4E6B-9275-59AAE218FE2B";
shapes = (
{
closed = 1;
nodes = (
(301,722,l),
(538,722,l),
(538,1632,l),
(454,1632,l),
(36,1487,l),
(103,1286,l),
(301,1348,l)
);
}
);
width = 665;
},
{
layerId = "549D2AD3-0DA6-49CF-9D11-873E4390D3BF";
shapes = (
{
closed = 1;
nodes = (
(327,722,l),
(467,722,l),
(467,1632,l),
(401,1632,l),
(44,1504,l),
(84,1387,l),
(327,1471,l)
);
}
);
width = 631;
},
{
layerId = "CD835F4B-8B2D-46BA-8F00-12B1EDA2331F";
shapes = (
{
closed = 1;
nodes = (
(343,722,l),
(420,722,l),
(420,1632,l),
(365,1632,l),
(50,1516,l),
(72,1454,l),
(343,1553,l)
);
}
);
width = 609;
}
);
leftKerningGroup = _degree2;
rightKerningGroup = _degree;
unicode = 185;
},
{
glyphname = ordmasculine;
layers = (
{
hints = (
{
place = (35,294);
type = Stem;
},
{
place = (610,294);
type = Stem;
}
);
layerId = "CE4E9A76-E92C-4E6B-9275-59AAE218FE2B";
shapes = (
{
closed = 1;
nodes = (
(692,717,o),
(904,860,o),
(904,1092,cs),
(904,1335,o),
(689,1470,o),
(471,1470,cs),
(256,1470,o),
(35,1329,o),
(35,1096,cs),
(35,870,o),
(267,717,o),
(475,717,cs)
);
},
{
closed = 1;
nodes = (
(399,975,o),
(329,1017,o),
(329,1092,cs),
(329,1162,o),
(384,1212,o),
(471,1212,cs),
(561,1212,o),
(610,1161,o),
(610,1092,cs),
(610,1024,o),
(556,975,o),
(471,975,cs)
);
}
);
width = 914;
},
{
hints = (
{
place = (52,160);
type = Stem;
},
{
place = (695,160);
type = Stem;
}
);
layerId = "549D2AD3-0DA6-49CF-9D11-873E4390D3BF";
shapes = (
{
closed = 1;
nodes = (
(675,717,o),
(855,874,o),
(855,1092,cs),
(855,1321,o),
(669,1470,o),
(454,1470,cs),
(238,1470,o),
(52,1314,o),
(52,1096,cs),
(52,884,o),
(254,717,o),
(458,717,cs)
);
},
{
closed = 1;
nodes = (
(309,857,o),
(212,954,o),
(212,1092,cs),
(212,1234,o),
(305,1328,o),
(454,1328,cs),
(609,1328,o),
(695,1230,o),
(695,1092,cs),
(695,950,o),
(598,857,o),
(454,857,cs)
);
}
);
width = 883;
},
{
hints = (
{
place = (62,71);
type = Stem;
},
{
place = (751,71);
type = Stem;
}
);
layerId = "CD835F4B-8B2D-46BA-8F00-12B1EDA2331F";
shapes = (
{
closed = 1;
nodes = (
(662,717,o),
(823,883,o),
(823,1092,cs),
(823,1312,o),
(656,1470,o),
(443,1470,cs),
(223,1470,o),
(62,1304,o),
(62,1096,cs),
(62,892,o),
(243,717,o),
(446,717,cs)
);
},
{
closed = 1;
nodes = (
(247,780,o),
(134,914,o),
(134,1092,cs),
(134,1283,o),
(252,1405,o),
(443,1405,cs),
(642,1405,o),
(751,1276,o),
(751,1092,cs),
(751,901,o),
(626,780,o),
(443,780,cs)
);
}
);
width = 862;
}
);
leftKerningGroup = _degree2;
rightKerningGroup = _degree;
unicode = 186;
},
{
glyphname = guillemotright;
layers = (
{
layerId = "CE4E9A76-E92C-4E6B-9275-59AAE218FE2B";
shapes = (
{
closed = 1;
nodes = (
(899,997,l),
(636,837,l),
(821,529,l),
(634,220,l),
(899,61,l),
(1183,529,l)
);
},
{
closed = 1;
nodes = (
(382,997,l),
(120,837,l),
(304,529,l),
(118,220,l),
(382,61,l),
(666,529,l)
);
}
);
width = 1223;
},
{
layerId = "549D2AD3-0DA6-49CF-9D11-873E4390D3BF";
shapes = (
{
closed = 1;
nodes = (
(661,921,l),
(535,830,l),
(787,508,l),
(533,185,l),
(661,95,l),
(984,508,l)
);
},
{
closed = 1;
nodes = (
(239,921,l),
(113,830,l),
(365,508,l),
(111,185,l),
(239,95,l),
(562,508,l)
);
}
);
width = 1038;
},
{
layerId = "CD835F4B-8B2D-46BA-8F00-12B1EDA2331F";
shapes = (
{
closed = 1;
nodes = (
(502,870,l),
(466,826,l),
(765,493,l),
(466,162,l),
(502,117,l),
(852,493,l)
);
},
{
closed = 1;
nodes = (
(143,870,l),
(107,826,l),
(406,493,l),
(107,162,l),
(143,117,l),
(493,493,l)
);
}
);
width = 915;
}
);
unicode = 187;
},
{
glyphname = onequarter;
layers = (
{
layerId = "CE4E9A76-E92C-4E6B-9275-59AAE218FE2B";
shapes = (
{
closed = 1;
nodes = (
(307,500,l),
(549,500,l),
(549,1429,l),
(464,1428,l),
(37,1281,l),
(105,1076,l),
(307,1139,l)
);
},
{
closed = 1;
nodes = (
(1540,0,l),
(1756,0,l),
(1756,164,l),
(1877,164,l),
(1877,372,l),
(1756,372,l),
(1756,538,l),
(1540,538,l),
(1540,372,l),
(1365,372,l),
(1636,929,l),
(1380,929,l),
(1096,349,l),
(1096,164,l),
(1540,164,l)
);
},
{
closed = 1;
nodes = (
(591,-41,l),
(1372,1356,l),
(1171,1470,l),
(390,79,l)
);
}
);
width = 1888;
},
{
layerId = "549D2AD3-0DA6-49CF-9D11-873E4390D3BF";
shapes = (
{
closed = 1;
nodes = (
(334,500,l),
(477,500,l),
(477,1429,l),
(410,1430,l),
(45,1298,l),
(86,1179,l),
(334,1265,l)
);
},
{
closed = 1;
nodes = (
(1519,0,l),
(1653,0,l),
(1653,189,l),
(1799,189,l),
(1799,317,l),
(1653,317,l),
(1653,522,l),
(1519,522,l),
(1519,317,l),
(1206,317,l),
(1542,929,l),
(1384,929,l),
(1042,305,l),
(1042,189,l),
(1519,189,l)
);
},
{
closed = 1;
nodes = (
(504,-34,l),
(1303,1400,l),
(1187,1463,l),
(389,36,l)
);
}
);
width = 1823;
},
{
layerId = "CD835F4B-8B2D-46BA-8F00-12B1EDA2331F";
shapes = (
{
closed = 1;
nodes = (
(350,500,l),
(429,500,l),
(429,1429,l),
(374,1431,l),
(51,1311,l),
(73,1247,l),
(350,1348,l)
);
},
{
closed = 1;
nodes = (
(1504,0,l),
(1584,0,l),
(1584,205,l),
(1747,205,l),
(1747,282,l),
(1584,282,l),
(1584,511,l),
(1504,511,l),
(1504,282,l),
(1099,282,l),
(1480,929,l),
(1387,929,l),
(1007,277,l),
(1007,205,l),
(1504,205,l)
);
},
{
closed = 1;
nodes = (
(446,-30,l),
(1257,1428,l),
(1197,1459,l),
(388,7,l)
);
}
);
width = 1779;
}
);
leftKerningGroup = _onehalf;
unicode = 188;
},
{
glyphname = onehalf;
layers = (
{
layerId = "CE4E9A76-E92C-4E6B-9275-59AAE218FE2B";
shapes = (
{
closed = 1;
nodes = (
(301,490,l),
(538,490,l),
(538,1400,l),
(455,1399,l),
(36,1255,l),
(103,1054,l),
(301,1116,l)
);
},
{
closed = 1;
nodes = (
(579,-40,l),
(1344,1328,l),
(1147,1440,l),
(382,77,l)
);
},
{
alignment = -1;
pos = (1059,-720);
ref = twosuperior;
}
);
width = 1904;
},
{
layerId = "549D2AD3-0DA6-49CF-9D11-873E4390D3BF";
shapes = (
{
closed = 1;
nodes = (
(327,490,l),
(467,490,l),
(467,1400,l),
(402,1401,l),
(44,1272,l),
(84,1155,l),
(327,1239,l)
);
},
{
closed = 1;
nodes = (
(494,-33,l),
(1276,1371,l),
(1163,1433,l),
(381,35,l)
);
},
{
alignment = -1;
pos = (1025,-710);
ref = twosuperior;
}
);
width = 1856;
},
{
layerId = "CD835F4B-8B2D-46BA-8F00-12B1EDA2331F";
shapes = (
{
closed = 1;
nodes = (
(343,490,l),
(420,490,l),
(420,1400,l),
(366,1402,l),
(50,1284,l),
(72,1222,l),
(343,1321,l)
);
},
{
closed = 1;
nodes = (
(437,-29,l),
(1231,1399,l),
(1173,1429,l),
(380,7,l)
);
},
{
alignment = -1;
pos = (1002,-704);
ref = twosuperior;
}
);
width = 1823;
}
);
leftKerningGroup = _onehalf;
unicode = 189;
},
{
glyphname = threequarters;
layers = (
{
layerId = "CE4E9A76-E92C-4E6B-9275-59AAE218FE2B";
shapes = (
{
closed = 1;
nodes = (
(520,470,o),
(629,524,o),
(692,612,c),
(721,657,o),
(737,706,o),
(737,762,cs),
(737,871,o),
(686,944,o),
(612,989,c),
(575,1010,o),
(539,1023,o),
(498,1028,c),
(697,1211,l),
(697,1400,l),
(74,1400,l),
(74,1193,l),
(411,1193,l),
(190,1026,l),
(258,866,l),
(302,879,o),
(338,882,o),
(366,882,cs),
(406,882,o),
(437,873,o),
(465,856,c),
(489,839,o),
(500,813,o),
(500,781,cs),
(500,753,o),
(487,729,o),
(460,713,c),
(433,693,o),
(399,685,o),
(358,685,cs),
(315,685,o),
(275,694,o),
(234,711,cs),
(191,728,o),
(159,751,o),
(136,779,c),
(62,578,l),
(89,547,o),
(131,525,o),
(190,502,c),
(250,482,o),
(311,470,o),
(376,470,cs)
);
},
{
closed = 1;
nodes = (
(1670,0,l),
(1881,0,l),
(1881,161,l),
(2000,161,l),
(2000,364,l),
(1881,364,l),
(1881,527,l),
(1670,527,l),
(1670,364,l),
(1497,364,l),
(1764,910,l),
(1513,910,l),
(1235,342,l),
(1235,161,l),
(1670,161,l)
);
},
{
closed = 1;
nodes = (
(740,-40,l),
(1505,1328,l),
(1308,1440,l),
(543,77,l)
);
}
);
width = 2049;
},
{
layerId = "549D2AD3-0DA6-49CF-9D11-873E4390D3BF";
shapes = (
{
closed = 1;
nodes = (
(510,470,o),
(615,522,o),
(674,608,c),
(702,652,o),
(717,702,o),
(717,758,cs),
(717,880,o),
(652,956,o),
(554,997,cs),
(504,1017,o),
(455,1024,o),
(397,1024,c),
(676,1284,l),
(676,1400,l),
(84,1400,l),
(84,1273,l),
(495,1273,l),
(203,1013,l),
(247,914,l),
(288,925,o),
(326,928,o),
(358,928,cs),
(423,928,o),
(473,914,o),
(514,886,cs),
(553,858,o),
(571,818,o),
(571,767,cs),
(571,716,o),
(552,676,o),
(514,649,c),
(476,618,o),
(426,603,o),
(364,603,cs),
(321,603,o),
(279,610,o),
(236,626,c),
(191,641,o),
(155,662,o),
(126,687,c),
(77,564,l),
(106,537,o),
(147,518,o),
(201,498,c),
(256,481,o),
(312,470,o),
(373,470,cs)
);
},
{
closed = 1;
nodes = (
(1676,0,l),
(1807,0,l),
(1807,185,l),
(1950,185,l),
(1950,311,l),
(1807,311,l),
(1807,511,l),
(1676,511,l),
(1676,311,l),
(1369,311,l),
(1699,910,l),
(1544,910,l),
(1209,299,l),
(1209,185,l),
(1676,185,l)
);
},
{
closed = 1;
nodes = (
(682,-33,l),
(1464,1371,l),
(1351,1433,l),
(569,35,l)
);
}
);
width = 2011;
},
{
layerId = "CD835F4B-8B2D-46BA-8F00-12B1EDA2331F";
shapes = (
{
closed = 1;
nodes = (
(503,470,o),
(606,520,o),
(662,605,cs),
(690,649,o),
(704,699,o),
(704,755,cs),
(704,886,o),
(630,963,o),
(515,1001,cs),
(456,1020,o),
(398,1025,o),
(330,1021,c),
(661,1332,l),
(661,1400,l),
(90,1400,l),
(90,1326,l),
(551,1326,l),
(211,1005,l),
(240,947,l),
(279,956,o),
(318,959,o),
(352,959,cs),
(433,959,o),
(496,941,o),
(547,905,cs),
(595,870,o),
(618,821,o),
(618,757,cs),
(618,692,o),
(596,641,o),
(550,605,c),
(504,567,o),
(444,548,o),
(367,548,cs),
(324,548,o),
(282,554,o),
(237,569,cs),
(190,584,o),
(152,602,o),
(120,626,c),
(87,555,l),
(116,531,o),
(157,514,o),
(208,495,c),
(259,480,o),
(312,470,o),
(371,470,cs)
);
},
{
closed = 1;
nodes = (
(1679,0,l),
(1757,0,l),
(1757,201,l),
(1916,201,l),
(1916,276,l),
(1757,276,l),
(1757,501,l),
(1679,501,l),
(1679,276,l),
(1284,276,l),
(1655,910,l),
(1565,910,l),
(1193,271,l),
(1193,201,l),
(1679,201,l)
);
},
{
closed = 1;
nodes = (
(643,-29,l),
(1437,1399,l),
(1379,1429,l),
(585,7,l)
);
}
);
width = 1986;
}
);
unicode = 190;
},
{
glyphname = questiondown;
layers = (
{
guides = (
{
position = "{0, 1400}";
}
);
layerId = "CE4E9A76-E92C-4E6B-9275-59AAE218FE2B";
shapes = (
{
closed = 1;
nodes = (
(381,506,l),
(457,449,o),
(475,422,o),
(475,388,cs),
(475,364,o),
(471,344,o),
(454,333,cs),
(346,261,ls),
(238,190,o),
(86,76,o),
(86,-103,cs),
(86,-342,o),
(352,-450,o),
(550,-450,cs),
(668,-450,o),
(905,-412,o),
(977,-337,c),
(906,-28,l),
(824,-70,o),
(757,-100,o),
(660,-100,cs),
(574,-100,o),
(522,-61,o),
(522,3,cs),
(522,42,o),
(543,75,o),
(585,104,cs),
(661,157,ls),
(732,206,o),
(814,251,o),
(814,362,cs),
(814,432,o),
(783,484,o),
(635,562,c)
);
},
{
closed = 1;
nodes = (
(458,1070,o),
(359,982,o),
(359,854,cs),
(359,727,o),
(456,642,o),
(585,642,cs),
(709,642,o),
(808,724,o),
(808,854,cs),
(808,985,o),
(709,1070,o),
(586,1070,cs)
);
}
);
width = 1049;
},
{
guides = (
{
position = "{0, 1400}";
}
);
layerId = "549D2AD3-0DA6-49CF-9D11-873E4390D3BF";
shapes = (
{
closed = 1;
nodes = (
(429,595,l),
(488,551,o),
(549,503,o),
(549,439,cs),
(549,402,o),
(528,377,o),
(468,339,cs),
(366,275,ls),
(201,170,o),
(95,51,o),
(95,-90,cs),
(95,-317,o),
(325,-450,o),
(535,-450,cs),
(652,-450,o),
(804,-418,o),
(895,-340,c),
(840,-186,l),
(761,-251,o),
(663,-275,o),
(564,-275,cs),
(437,-275,o),
(322,-202,o),
(322,-63,cs),
(322,3,o),
(375,89,o),
(462,143,cs),
(548,197,ls),
(669,272,o),
(732,333,o),
(732,422,cs),
(732,524,o),
(651,587,o),
(568,635,c)
);
},
{
closed = 1;
nodes = (
(469,1070,o),
(408,1017,o),
(408,938,cs),
(408,858,o),
(469,807,o),
(547,807,cs),
(624,807,o),
(685,858,o),
(685,936,cs),
(685,1016,o),
(622,1070,o),
(546,1070,cs)
);
}
);
width = 977;
},
{
guides = (
{
position = "{0, 1400}";
}
);
layerId = "CD835F4B-8B2D-46BA-8F00-12B1EDA2331F";
shapes = (
{
closed = 1;
nodes = (
(468,665,l),
(512,630,o),
(609,567,o),
(609,479,cs),
(609,431,o),
(573,392,o),
(478,333,cs),
(382,274,ls),
(173,143,o),
(102,7,o),
(102,-102,cs),
(102,-323,o),
(310,-450,o),
(526,-450,cs),
(643,-450,o),
(748,-421,o),
(848,-342,c),
(802,-278,l),
(726,-355,o),
(612,-376,o),
(511,-376,cs),
(346,-376,o),
(171,-281,o),
(171,-101,cs),
(171,-6,o),
(226,101,o),
(366,184,cs),
(460,238,ls),
(621,332,o),
(666,399,o),
(666,469,cs),
(666,596,o),
(546,669,o),
(515,694,c)
);
},
{
closed = 1;
nodes = (
(475,1070,o),
(435,1036,o),
(435,985,cs),
(435,931,o),
(475,899,o),
(526,899,cs),
(576,899,o),
(618,931,o),
(618,983,cs),
(618,1032,o),
(574,1070,o),
(524,1070,cs)
);
}
);
width = 936;
}
);
unicode = 191;
},
{
glyphname = AE;
layers = (
{
layerId = "CE4E9A76-E92C-4E6B-9275-59AAE218FE2B";
shapes = (
{
closed = 1;
nodes = (
(-101,0,l),
(332,0,l),
(439,260,l),
(802,260,l),
(802,0,l),
(1787,0,l),
(1787,355,l),
(1210,355,l),
(1210,569,l),
(1695,569,l),
(1695,893,l),
(1210,893,l),
(1210,1088,l),
(1779,1088,l),
(1779,1440,l),
(525,1440,l)
);
},
{
closed = 1;
nodes = (
(569,580,l),
(802,1151,l),
(802,580,l)
);
}
);
width = 1844;
},
{
layerId = "549D2AD3-0DA6-49CF-9D11-873E4390D3BF";
shapes = (
{
closed = 1;
nodes = (
(-38,0,l),
(185,0,l),
(349,350,l),
(796,350,l),
(796,0,l),
(1683,0,l),
(1683,186,l),
(1005,186,l),
(1005,665,l),
(1601,665,l),
(1601,842,l),
(1005,842,l),
(1005,1254,l),
(1675,1254,l),
(1675,1440,l),
(661,1440,l)
);
},
{
closed = 1;
nodes = (
(423,524,l),
(796,1289,l),
(796,524,l)
);
}
);
width = 1773;
},
{
layerId = "CD835F4B-8B2D-46BA-8F00-12B1EDA2331F";
shapes = (
{
closed = 1;
nodes = (
(4,0,l),
(87,0,l),
(291,412,l),
(793,412,l),
(793,0,l),
(1615,0,l),
(1615,74,l),
(868,74,l),
(868,729,l),
(1538,729,l),
(1538,806,l),
(868,806,l),
(868,1365,l),
(1607,1365,l),
(1607,1440,l),
(752,1440,l)
);
},
{
closed = 1;
nodes = (
(325,484,l),
(793,1379,l),
(793,484,l)
);
}
);
width = 1726;
}
);
leftKerningGroup = _AE;
rightKerningGroup = _E;
unicode = 198;
},
